<svg width="42" height="40" viewBox="0 0 42 40" fill="none" xmlns="http://www.w3.org/2000/svg">
<path d="M28.1514 39.4445H13.8512C13.5156 39.4445 13.2441 39.1727 13.2441 38.8375C13.2441 38.5023 13.5156 38.2305 13.8512 38.2305H28.1514C28.4869 38.2305 28.7584 38.5023 28.7584 38.8375C28.7584 39.1727 28.4869 39.4445 28.1514 39.4445Z" fill="black"/>
<path d="M25.602 39.445H16.3964C16.2049 39.445 16.0253 39.3549 15.9103 39.2017C15.7959 39.0484 15.7603 38.8504 15.8142 38.667L17.3976 33.2793C17.4735 33.0208 17.7106 32.8433 17.9797 32.8433H24.0186C24.2878 32.8433 24.5249 33.0208 24.6008 33.2793L26.1842 38.667C26.2381 38.8504 26.2025 39.0484 26.0881 39.2017C25.9731 39.3549 25.7935 39.445 25.602 39.445ZM17.2073 38.231H24.7911L23.5646 34.0573H18.4338L17.2073 38.231Z" fill="black"/>
<path d="M1.57544 27.8511V29.6058C1.57544 31.7286 3.27245 33.4494 5.36583 33.4494H36.6351C38.7284 33.4494 40.4254 31.7286 40.4254 29.6058V27.8511H1.57544Z" fill="#2563EB"/>
<path d="M36.6347 34.0562H5.36544C2.94087 34.0562 0.968018 32.0596 0.968018 29.6054V27.8507C0.968018 27.5155 1.23952 27.2437 1.57505 27.2437H40.4251C40.7606 27.2437 41.0321 27.5155 41.0321 27.8507V29.6054C41.0321 32.0596 39.0592 34.0562 36.6347 34.0562ZM2.18208 28.4577V29.6054C2.18208 31.39 3.61014 32.8421 5.36544 32.8421H36.6347C38.39 32.8421 39.818 31.39 39.818 29.6054V28.4577H2.18208Z" fill="black"/>
<path d="M40.4251 28.4591H1.57505C1.23952 28.4591 0.968018 28.1873 0.968018 27.852V5.09845C0.968018 2.61549 2.94087 0.595215 5.36544 0.595215H36.6347C39.0592 0.595215 41.0321 2.61549 41.0321 5.09845V27.852C41.0321 28.1873 40.7606 28.4591 40.4251 28.4591ZM2.18208 27.245H39.818V5.09845C39.818 3.28477 38.39 1.80928 36.6347 1.80928H5.36544C3.61014 1.80928 2.18208 3.28477 2.18208 5.09845V27.245Z" fill="black"/>
<path d="M17.0758 31.26H15.921C15.5855 31.26 15.314 30.9882 15.314 30.6529C15.314 30.3177 15.5855 30.0459 15.921 30.0459H17.0758C17.4113 30.0459 17.6828 30.3177 17.6828 30.6529C17.6828 30.9882 17.4113 31.26 17.0758 31.26Z" fill="black"/>
<path d="M21.5784 31.26H20.4242C20.0886 31.26 19.8171 30.9882 19.8171 30.6529C19.8171 30.3177 20.0886 30.0459 20.4242 30.0459H21.5784C21.9139 30.0459 22.1854 30.3177 22.1854 30.6529C22.1854 30.9882 21.9139 31.26 21.5784 31.26Z" fill="black"/>
<path d="M26.0779 31.26H24.9237C24.5882 31.26 24.3167 30.9882 24.3167 30.6529C24.3167 30.3177 24.5882 30.0459 24.9237 30.0459H26.0779C26.4134 30.0459 26.6849 30.3177 26.6849 30.6529C26.6849 30.9882 26.4134 31.26 26.0779 31.26Z" fill="black"/>
<path d="M37.0311 9.04609H35.5924C35.2569 9.04609 34.9854 8.77429 34.9854 8.43906C34.9854 8.10383 35.2569 7.83203 35.5924 7.83203H37.0311C37.3666 7.83203 37.6382 8.10383 37.6382 8.43906C37.6382 8.77429 37.3666 9.04609 37.0311 9.04609Z" fill="black"/>
<path d="M33.1645 9.04609H25.9649C25.6294 9.04609 25.3579 8.77429 25.3579 8.43906C25.3579 8.10383 25.6294 7.83203 25.9649 7.83203H33.1645C33.5001 7.83203 33.7716 8.10383 33.7716 8.43906C33.7716 8.77429 33.5001 9.04609 33.1645 9.04609Z" fill="black"/>
<path d="M37.0292 15.1354H30.4063C30.0708 15.1354 29.7993 14.8636 29.7993 14.5284C29.7993 14.1932 30.0708 13.9214 30.4063 13.9214H37.0292C37.3647 13.9214 37.6362 14.1932 37.6362 14.5284C37.6362 14.8636 37.3647 15.1354 37.0292 15.1354Z" fill="black"/>
<path d="M27.9805 15.1357L25.9649 15.1354C25.6294 15.1354 25.3579 14.8636 25.3579 14.5284C25.3579 14.1932 25.63 13.9214 25.9649 13.9214L27.9805 13.9217C28.316 13.9217 28.5875 14.1935 28.5875 14.5287C28.5875 14.8639 28.3154 15.1357 27.9805 15.1357Z" fill="black"/>
<path d="M37.0293 21.2248H32.8346C32.499 21.2248 32.2275 20.953 32.2275 20.6178C32.2275 20.2825 32.499 20.0107 32.8346 20.0107H37.0293C37.3648 20.0107 37.6363 20.2825 37.6363 20.6178C37.6363 20.953 37.3648 21.2248 37.0293 21.2248Z" fill="black"/>
<path d="M30.4085 21.2248H25.9654C25.6299 21.2248 25.3584 20.953 25.3584 20.6178C25.3584 20.2825 25.6299 20.0107 25.9654 20.0107H30.4085C30.744 20.0107 31.0155 20.2825 31.0155 20.6178C31.0155 20.953 30.744 21.2248 30.4085 21.2248Z" fill="black"/>
<path d="M34.3785 10.2604C33.3743 10.2604 32.5574 9.44347 32.5574 8.43926C32.5574 7.43505 33.3743 6.61816 34.3785 6.61816C35.3827 6.61816 36.1996 7.43505 36.1996 8.43926C36.1996 9.44347 35.3827 10.2604 34.3785 10.2604ZM34.3785 7.83223C34.0435 7.83223 33.7714 8.10462 33.7714 8.43926C33.7714 8.77953 34.0382 9.04629 34.3785 9.04629C34.7134 9.04629 34.9855 8.7739 34.9855 8.43926C34.9855 8.10462 34.7134 7.83223 34.3785 7.83223Z" fill="black"/>
<path d="M29.1922 16.3497C28.188 16.3497 27.3711 15.5328 27.3711 14.5286C27.3711 13.5244 28.188 12.7075 29.1922 12.7075C30.1964 12.7075 31.0133 13.5244 31.0133 14.5286C31.0133 15.5328 30.1964 16.3497 29.1922 16.3497ZM29.1922 13.9216C28.8573 13.9216 28.5852 14.194 28.5852 14.5286C28.5852 14.8633 28.8573 15.1356 29.1922 15.1356C29.5325 15.1356 29.7992 14.8689 29.7992 14.5286C29.7992 14.194 29.5271 13.9216 29.1922 13.9216Z" fill="black"/>
<path d="M31.6204 22.4391C30.6162 22.4391 29.7993 21.6222 29.7993 20.618C29.7993 19.6138 30.6162 18.7969 31.6204 18.7969C32.6246 18.7969 33.4415 19.6138 33.4415 20.618C33.4415 21.6222 32.6246 22.4391 31.6204 22.4391ZM31.6204 20.0109C31.2855 20.0109 31.0134 20.2833 31.0134 20.618C31.0134 20.9526 31.2855 21.225 31.6204 21.225C31.9607 21.225 32.2274 20.9582 32.2274 20.618C32.2274 20.2833 31.9553 20.0109 31.6204 20.0109Z" fill="black"/>
<path d="M13.7541 23.9232C8.57599 23.9232 4.36353 19.7078 4.36353 14.5263C4.36353 9.34821 8.57599 5.13574 13.7541 5.13574C18.9323 5.13574 23.1447 9.34821 23.1447 14.5263C23.1447 16.7766 22.3338 18.9567 20.8613 20.6651C19.0793 22.7355 16.4887 23.9232 13.7541 23.9232ZM13.7541 6.3498C9.24586 6.3498 5.57759 10.0178 5.57759 14.5263C5.57759 19.0385 9.24586 22.7091 13.7541 22.7091C16.1348 22.7091 18.3899 21.6753 19.9412 19.8729C21.2241 18.3843 21.9307 16.4856 21.9307 14.5263C21.9307 10.0178 18.2624 6.3498 13.7541 6.3498Z" fill="black"/>
<path d="M22.5381 14.5264H13.7544V5.74268C18.6046 5.74268 22.5381 9.67626 22.5381 14.5264Z" fill="#2563EB"/>
<path d="M22.5381 15.1334H13.7545C13.419 15.1334 13.1475 14.8616 13.1475 14.5263V5.74277C13.1475 5.40754 13.419 5.13574 13.7545 5.13574C18.9326 5.13574 23.1451 9.34821 23.1451 14.5263C23.1451 14.8616 22.8736 15.1334 22.5381 15.1334ZM14.3615 13.9193H21.9085C21.6121 9.89359 18.3873 6.66903 14.3615 6.37203V13.9193Z" fill="black"/>
<path d="M20.4015 20.876C20.2562 20.876 20.1151 20.8238 20.0049 20.7284L13.3578 14.9859C13.1657 14.8199 13.0969 14.5525 13.1853 14.3148C13.2736 14.0771 13.5006 13.9194 13.7543 13.9194H22.5379C22.8734 13.9194 23.1449 14.1912 23.1449 14.5265C23.1449 16.7767 22.334 18.9568 20.8615 20.6652C20.7559 20.7874 20.6066 20.8626 20.4459 20.8742C20.4311 20.8754 20.4163 20.876 20.4015 20.876ZM15.3857 15.1335L20.3214 19.3975C21.2426 18.1535 21.7934 16.6739 21.9084 15.1335H15.3857Z" fill="black"/>
</svg>
