<svg width="22" height="22" viewBox="0 0 22 22" fill="none" xmlns="http://www.w3.org/2000/svg">
<path d="M19.016 1C17.9026 1 17 3.68629 17 7H19.016C19.9876 7 20.4734 7 20.7741 6.66455C21.0749 6.32909 21.0225 5.88733 20.9178 5.00381C20.6414 2.67143 19.8943 1 19.016 1Z" stroke="#141B34" stroke-width="1.5"/>
<path d="M17 7.05426V17.6458C17 19.1575 17 19.9133 16.538 20.2108C15.7831 20.6971 14.6161 19.6774 14.0291 19.3073C13.5441 19.0014 13.3017 18.8485 13.0325 18.8397C12.7417 18.8301 12.4949 18.9768 11.9709 19.3073L10.06 20.5124C9.5445 20.8374 9.2868 21 9 21C8.71321 21 8.45546 20.8374 7.94 20.5124L6.02913 19.3073C5.54415 19.0014 5.30166 18.8485 5.03253 18.8397C4.74172 18.8301 4.49493 18.9768 3.97087 19.3073C3.38395 19.6774 2.21687 20.6971 1.46195 20.2108C1 19.9133 1 19.1575 1 17.6458V7.05426C1 4.20025 1 2.77325 1.87868 1.88663C2.75736 1 4.17157 1 7 1H19" stroke="#141B34" stroke-width="1.5" stroke-linecap="round" stroke-linejoin="round"/>
<path d="M5 5H13" stroke="#141B34" stroke-width="1.5" stroke-linecap="round" stroke-linejoin="round"/>
<path d="M7 9H5" stroke="#141B34" stroke-width="1.5" stroke-linecap="round" stroke-linejoin="round"/>
<path d="M11.5 9.875C10.6716 9.875 10 10.4626 10 11.1875C10 11.9124 10.6716 12.5 11.5 12.5C12.3284 12.5 13 13.0876 13 13.8125C13 14.5374 12.3284 15.125 11.5 15.125M11.5 9.875C12.1531 9.875 12.7087 10.2402 12.9146 10.75M11.5 9.875V9M11.5 15.125C10.8469 15.125 10.2913 14.7598 10.0854 14.25M11.5 15.125V16" stroke="#141B34" stroke-width="1.5" stroke-linecap="round"/>
</svg>
