<svg width="20" height="22" viewBox="0 0 20 22" fill="none" xmlns="http://www.w3.org/2000/svg">
<path d="M9 1C5.22876 1 3.34315 1 2.17157 2.12874C1 3.25748 1 5.07416 1 8.70753V16.9808C1 19.2867 1 20.4396 1.77285 20.8523C3.26947 21.6514 6.0768 18.9852 7.41 18.1824C8.1832 17.7168 8.5698 17.484 9 17.484C9.4302 17.484 9.8168 17.7168 10.59 18.1824C11.9232 18.9852 14.7305 21.6514 16.2272 20.8523C17 20.4396 17 19.2867 17 16.9808V10.5" stroke="#141B34" stroke-width="1.5" stroke-linecap="round" stroke-linejoin="round"/>
<path d="M1.5 6H9" stroke="#141B34" stroke-width="1.5" stroke-linecap="round"/>
<path d="M19 1L12 7.99954M19 8L12 1.00046" stroke="#141B34" stroke-width="1.5" stroke-linecap="round" stroke-linejoin="round"/>
</svg>
