<svg width="26" height="26" viewBox="0 0 26 26" fill="none" xmlns="http://www.w3.org/2000/svg">
<path d="M14.2 1.0567C13.8053 1.0192 13.405 1 13 1C6.37333 1 1 6.14028 1 12.48C1 15.5261 2.23999 18.2938 4.26266 20.3477C4.708 20.8 5.00533 21.4177 4.88533 22.0537C4.6873 23.0934 4.23848 24.0632 3.58133 24.8716C5.31033 25.1932 7.10816 24.9036 8.64998 24.0836C9.19501 23.7938 9.46751 23.6489 9.65982 23.6195C9.85212 23.5901 10.1276 23.6418 10.6785 23.7454C11.4438 23.889 12.2208 23.9611 13 23.96C18.796 23.96 23.8783 20.0278 25 14.8" stroke="black" stroke-width="1.5" stroke-linecap="round" stroke-linejoin="round"/>
<path d="M12.9948 13H13.0056M8.2002 13H8.21096" stroke="black" stroke-width="2" stroke-linecap="round" stroke-linejoin="round"/>
<path d="M22.8201 3.14895C22.8201 4.33578 21.8784 5.29789 20.7168 5.29789C19.555 5.29789 18.6133 4.33578 18.6133 3.14895C18.6133 1.96211 19.555 1 20.7168 1C21.8784 1 22.8201 1.96211 22.8201 3.14895Z" stroke="black" stroke-width="1.5" stroke-linecap="round"/>
<path d="M16.5575 9.87547C17.6706 8.12473 19.4382 7.46862 20.7171 7.46997C21.9961 7.47133 23.7119 8.12473 24.825 9.87547C24.897 9.98866 24.9168 10.128 24.8519 10.2457C24.5915 10.7172 23.7833 11.6531 23.1995 11.7166C22.5288 11.7894 20.7741 11.7996 20.7185 11.8C20.6628 11.7997 18.8539 11.7894 18.1829 11.7166C17.5992 11.6531 16.7909 10.7172 16.5306 10.2457C16.4657 10.128 16.4855 9.98866 16.5575 9.87547Z" stroke="black" stroke-width="1.5" stroke-linecap="round"/>
</svg>
