<svg width="26" height="26" viewBox="0 0 26 26" fill="none" xmlns="http://www.w3.org/2000/svg">
<path d="M22.6 9.40001C21.6458 4.61747 17.2154 1 11.8952 1C5.8786 1 1 5.62626 1 11.332C1 14.0735 2.12583 16.5645 3.96227 18.413C4.36659 18.82 4.63655 19.3761 4.5276 19.9484C4.34779 20.8842 3.94032 21.757 3.34366 22.4845C4.91348 22.7739 6.54577 22.5133 7.94562 21.7753C8.44048 21.5145 8.6879 21.3841 8.8625 21.3576C8.98472 21.3391 9.14392 21.3564 9.40001 21.4003" stroke="black" stroke-width="1.5" stroke-linecap="round" stroke-linejoin="round"/>
<path d="M11.7998 18.1141C11.7998 21.6009 14.7552 24.4281 18.3998 24.4281C18.8283 24.4286 19.2557 24.389 19.6766 24.3101C19.9796 24.2531 20.1312 24.2246 20.2369 24.2408C20.3426 24.2569 20.4926 24.3367 20.7924 24.4961C21.6403 24.947 22.6291 25.1063 23.5801 24.9294C23.2187 24.4849 22.9718 23.9515 22.8629 23.3796C22.7969 23.0299 22.9604 22.6901 23.2053 22.4413C24.3179 21.3116 24.9998 19.7894 24.9998 18.1141C24.9998 14.6273 22.0445 11.8 18.3998 11.8C14.7552 11.8 11.7998 14.6273 11.7998 18.1141Z" stroke="black" stroke-width="1.5" stroke-linejoin="round"/>
</svg>
