<svg width="174" height="174" viewBox="0 0 174 174" fill="none" xmlns="http://www.w3.org/2000/svg">
<path d="M79 0C91.1171 0.242342 101.779 7.62685 110 16C103.159 38.4506 83.023 57.2329 62.8394 68.1709C59.9034 69.7129 56.9556 71.2309 54.0051 72.7449C48.0591 75.8459 42.9562 79.4621 38 84C37.3078 84.6123 36.6155 85.2246 35.9023 85.8555C30.1993 91.1849 26.1209 97.4241 22 104C17.7595 103.358 14.3035 101.895 10.4375 100.062C9.32246 99.5379 8.20742 99.0132 7.05859 98.4727C4.69493 97.3346 2.34057 96.1846 0 95C0.241715 82.6725 8.67925 71.5291 17 63C22.9721 57.7153 29.3754 53.6776 36.4375 50.0625C57.2169 39.3841 71.7181 22.3008 79 0Z" fill="#06080D"/>
<path d="M153 70C156.733 70.5922 159.608 71.6651 162.938 73.4375C166.562 75.3121 170.066 76.8611 174 78C173.738 91.1143 164.885 103.021 156 112C149.945 117.222 142.811 120.822 135.838 124.654C130.469 127.638 125.689 131.027 121 135C120.206 135.598 119.412 136.196 118.594 136.812C108.099 145.663 102.322 157.65 97 170C96.3468 171.34 95.6885 172.678 95 174C84.2223 173.585 75.1272 167.741 67 161C67.952 147.038 77.0374 132.897 87.1602 123.531C93.4105 118.329 100.041 114.386 107.25 110.688C113.056 107.707 118.511 104.499 123.812 100.688C124.381 100.279 124.949 99.8707 125.534 99.45C127.953 97.6651 130.149 95.8491 132.262 93.707C134 92 133.5 92.5 135 91C135.306 90.6944 135.896 90.1071 136 90C137.085 88.8804 138.178 87.7686 139.301 86.6875C141.482 84.5216 143.554 82.2708 145.625 80C146.38 79.175 147.136 78.35 147.914 77.5C149.91 75.1077 151.479 72.7131 153 70Z" fill="#06070D"/>
<path d="M121 34C123.251 36.8703 125.192 39.8755 127.11 42.9761C130.883 49.0529 134.624 54.196 140 59C137.779 65.4011 133.421 69.9896 129 75C128.132 75.9887 127.265 76.9774 126.371 77.9961C117.375 87.8028 106.364 94.0861 94.7109 100.301C78.087 109.206 66.1178 121.084 57.6123 138.087C55.1894 142.905 55.1894 142.905 53 144C52.7319 143.406 52.4638 142.811 52.1875 142.199C49.3007 136.093 45.8626 130.814 41.7695 125.445C40 123 40 123 38.9492 120.742C38.0615 118.642 36.5 117.5 35 118C37.0252 107.028 46.8561 97.9186 55.4375 91.5625C59.8213 88.5818 64.4113 86.2102 69.125 83.8125C85.865 75.2105 101.456 62.7453 112 47C112.692 45.97 113.384 44.9401 114.098 43.8789C115.527 41.7382 116.95 39.5927 118.363 37.4414C120 35 120 35 121 34Z" fill="#07090E"/>
</svg>
