<svg width="20" height="19" viewBox="0 0 20 19" fill="none" xmlns="http://www.w3.org/2000/svg">
<path d="M8.60236 0.433663C8.49408 0.455319 8.29051 0.502962 8.15191 0.541943C7.75777 0.654554 1.94965 3.25327 1.65946 3.44384C1.12239 3.80333 0.667612 4.35339 0.394747 4.98141C0.11322 5.63109 0.117551 5.57912 0.130545 9.55515L0.143538 13.1457L0.247487 13.4489C0.542008 14.3325 1.05742 14.9951 1.76774 15.4196C2.07525 15.6058 7.54554 18.053 8.00898 18.2132C8.64567 18.4341 9.38197 18.4601 10.0143 18.2825C10.3868 18.1786 10.5124 18.0876 10.638 17.8321C10.7723 17.5679 10.742 17.3383 10.5341 17.1088C10.3781 16.9355 10.0966 16.8316 9.91904 16.8792L9.82375 16.9009L9.83241 12.8599L9.84541 8.81885L10.0836 8.75821C10.2136 8.7279 11.7425 8.06955 13.4836 7.29427C15.6579 6.32841 16.6584 5.90829 16.6887 5.93861C16.7147 5.96459 16.7407 6.49733 16.7537 7.36357C16.7796 8.93579 16.771 8.89681 17.1565 9.08738C17.3167 9.16968 17.3947 9.18267 17.5376 9.16101C17.7672 9.12203 18.0357 8.88382 18.0963 8.67159C18.1526 8.45936 18.1526 6.33708 18.092 5.90396C18.0314 5.45785 17.8754 4.99008 17.6502 4.59161C17.425 4.19314 16.8403 3.5911 16.4591 3.37021C16.2209 3.23594 11.0625 0.918757 10.3478 0.628567C9.86273 0.429332 9.11777 0.347039 8.60236 0.433663ZM9.52923 1.82398C9.75445 1.87162 15.3374 4.31874 15.7055 4.53097C15.8051 4.59161 15.8874 4.65658 15.8874 4.6739C15.8874 4.69556 15.3287 4.95976 14.6487 5.26294L13.41 5.813L11.7381 5.02473C10.8156 4.58728 9.317 3.88129 8.40312 3.4525C7.49357 3.02372 6.7616 2.65556 6.77892 2.63824C6.84389 2.57327 8.41178 1.90194 8.62834 1.8413C8.90121 1.76767 9.23038 1.76334 9.52923 1.82398ZM8.40312 4.99008L11.7295 6.55364L10.7723 6.97809C10.2482 7.21198 9.73713 7.42421 9.64617 7.45019C9.39929 7.51949 8.79726 7.5065 8.55904 7.43287C8.3035 7.35491 2.33079 4.71288 2.33079 4.67823C2.33079 4.66091 2.41308 4.6046 2.51703 4.5483C2.77257 4.40103 4.93817 3.43085 5.0118 3.42652C5.04645 3.42219 6.57536 4.12817 8.40312 4.99008ZM4.69995 7.26828C8.00465 8.73656 7.97 8.71923 8.25586 8.79286L8.43777 8.84051V12.8642C8.43777 15.0818 8.42911 16.8922 8.41611 16.8922C8.36847 16.8922 2.89384 14.4494 2.62098 14.3021C2.1099 14.0379 1.75907 13.6178 1.59449 13.0851C1.51219 12.8252 1.50786 12.6693 1.50786 9.44687C1.50786 6.44103 1.52086 5.89096 1.57716 5.89096C1.58582 5.89096 2.99346 6.51033 4.69995 7.26828Z" fill="white"/>
<path d="M15.0692 9.66362C14.0947 9.77624 13.2024 10.218 12.4835 10.9327C11.9161 11.5 11.5522 12.1367 11.3314 12.9423C11.2534 13.2195 11.2361 13.4014 11.2361 14.0121C11.2317 14.6618 11.2447 14.7918 11.3357 15.1166C11.5479 15.8789 11.9074 16.5069 12.4618 17.0786C13.0205 17.659 13.7005 18.0575 14.5018 18.2697C15.0735 18.4213 16.0307 18.43 16.5808 18.2914C18.3566 17.8452 19.6299 16.4593 19.9158 14.6748C19.9894 14.22 19.9504 13.3755 19.8378 12.9423C19.6256 12.1541 19.2531 11.5044 18.6857 10.9327C17.9538 10.205 17.0962 9.78923 16.061 9.65929C15.6496 9.61165 15.5283 9.61165 15.0692 9.66362ZM16.3425 11.1189C17.1871 11.3311 17.9191 11.9505 18.3089 12.7778C18.7334 13.67 18.6424 14.8307 18.0794 15.671C17.538 16.4896 16.5504 17.0223 15.5846 17.0223C14.6144 17.0223 13.6356 16.4896 13.0898 15.671C12.5181 14.8134 12.4358 13.6613 12.8776 12.7388C13.315 11.8249 14.1553 11.2012 15.1471 11.0453C15.4547 10.9976 16.0047 11.0323 16.3425 11.1189Z" fill="white"/>
<path d="M15.3029 12.2315C15.0084 12.3657 14.8915 12.5953 14.8915 13.0414L14.8958 13.3402H14.5287C14.1173 13.3402 13.9689 13.4312 13.8173 13.7387C13.6831 14.0116 13.7134 14.2368 13.9256 14.4707C14.0989 14.6612 14.2873 14.6342 14.6424 14.6342L14.8958 14.6342L14.8958 15.0684C14.9088 15.3326 14.9348 15.4409 15.0041 15.5361C15.3203 15.9606 15.8487 15.9606 16.1648 15.5361C16.1648 15.3975 16.1519 15.3326 16.1648 15.0684L16.1648 14.6342L16.559 14.6342C16.9141 14.6342 17.0701 14.6612 17.2433 14.4707C17.4555 14.2368 17.4859 14.0116 17.3516 13.7387C17.2 13.4312 17.0311 13.3402 16.624 13.3402L16.1648 13.3402L16.1648 12.9937C16.1475 12.6039 16.1995 12.461 15.9656 12.2878C15.8183 12.1795 15.4762 12.1492 15.3029 12.2315Z" fill="white"/>
</svg>
