<svg width="19" height="19" viewBox="0 0 19 19" fill="none" xmlns="http://www.w3.org/2000/svg">
<path d="M12.668 3.5C12.668 2.72343 12.668 2.33515 12.7948 2.02885C12.964 1.62048 13.2885 1.29602 13.6968 1.12686C14.0032 1 14.3914 1 15.168 1C15.9446 1 16.3328 1 16.6392 1.12686C17.0475 1.29602 17.372 1.62048 17.5412 2.02885C17.668 2.33515 17.668 2.72343 17.668 3.5V6.83333C17.668 7.6099 17.668 7.99816 17.5412 8.3045C17.372 8.71283 17.0475 9.03733 16.6392 9.2065C16.3328 9.33333 15.9446 9.33333 15.168 9.33333C14.3914 9.33333 14.0032 9.33333 13.6968 9.2065C13.2885 9.03733 12.964 8.71283 12.7948 8.3045C12.668 7.99816 12.668 7.6099 12.668 6.83333V3.5Z" stroke="white" stroke-width="1.25"/>
<path d="M12.668 15.167C12.668 14.3904 12.668 14.0021 12.7948 13.6958C12.964 13.2875 13.2885 12.963 13.6968 12.7938C14.0032 12.667 14.3914 12.667 15.168 12.667C15.9446 12.667 16.3328 12.667 16.6392 12.7938C17.0475 12.963 17.372 13.2875 17.5412 13.6958C17.668 14.0021 17.668 14.3904 17.668 15.167C17.668 15.9436 17.668 16.3318 17.5412 16.6381C17.372 17.0465 17.0475 17.371 16.6392 17.5401C16.3328 17.667 15.9446 17.667 15.168 17.667C14.3914 17.667 14.0032 17.667 13.6968 17.5401C13.2885 17.371 12.964 17.0465 12.7948 16.6381C12.668 16.3318 12.668 15.9436 12.668 15.167Z" stroke="white" stroke-width="1.25"/>
<path d="M1 12.6668C1 11.0955 1 10.3098 1.48816 9.8217C1.97631 9.3335 2.76199 9.3335 4.33334 9.3335H6C7.57135 9.3335 8.357 9.3335 8.84517 9.8217C9.33334 10.3098 9.33334 11.0955 9.33334 12.6668V14.3335C9.33334 15.9048 9.33334 16.6905 8.84517 17.1787C8.357 17.6668 7.57135 17.6668 6 17.6668H4.33334C2.76199 17.6668 1.97631 17.6668 1.48816 17.1787C1 16.6905 1 15.9048 1 14.3335V12.6668Z" stroke="white" stroke-width="1.25"/>
<path d="M1 3.5C1 2.72343 1 2.33515 1.12687 2.02885C1.29603 1.62048 1.62049 1.29602 2.02886 1.12686C2.33515 1 2.72344 1 3.5 1H6.83334C7.6099 1 7.99817 1 8.3045 1.12686C8.71284 1.29602 9.03734 1.62048 9.2065 2.02885C9.33334 2.33515 9.33334 2.72343 9.33334 3.5C9.33334 4.27656 9.33334 4.66485 9.2065 4.97114C9.03734 5.37951 8.71284 5.70397 8.3045 5.87313C7.99817 6 7.6099 6 6.83334 6H3.5C2.72344 6 2.33515 6 2.02886 5.87313C1.62049 5.70397 1.29603 5.37951 1.12687 4.97114C1 4.66485 1 4.27656 1 3.5Z" stroke="white" stroke-width="1.25"/>
</svg>
