<svg width="12" height="14" viewBox="0 0 12 14" fill="none" xmlns="http://www.w3.org/2000/svg">
<path d="M10.2919 3.09998L9.93607 9.11504C9.84513 10.6518 9.79971 11.4202 9.4311 11.9727C9.2488 12.2458 9.0142 12.4764 8.74205 12.6496C8.19165 13 7.45495 13 5.98147 13C4.50611 13 3.76842 13 3.21765 12.6489C2.94536 12.4754 2.71064 12.2445 2.52845 11.9709C2.15995 11.4175 2.11549 10.648 2.02659 9.1091L1.67944 3.09998" stroke="#EB3F35" stroke-width="0.9" stroke-linecap="round"/>
<path d="M0.818115 3.1H11.153M8.31421 3.1L7.92229 2.25504C7.66191 1.69376 7.53168 1.41311 7.30713 1.23809C7.25735 1.19926 7.20458 1.16472 7.14941 1.13482C6.90074 1 6.60229 1 6.00539 1C5.3935 1 5.08759 1 4.83477 1.14047C4.77875 1.17161 4.72528 1.20754 4.67493 1.2479C4.44777 1.43002 4.32087 1.72093 4.06708 2.30276L3.71931 3.1" stroke="#EB3F35" stroke-width="0.9" stroke-linecap="round"/>
<path d="M4.55029 9.69998V6.09998" stroke="#EB3F35" stroke-width="0.9" stroke-linecap="round"/>
<path d="M7.42114 9.69998V6.09998" stroke="#EB3F35" stroke-width="0.9" stroke-linecap="round"/>
</svg>
