<svg width="40" height="48" viewBox="0 0 40 48" fill="none" xmlns="http://www.w3.org/2000/svg">
<path fill-rule="evenodd" clip-rule="evenodd" d="M14.8571 3.5C12.8544 3.5 11.2143 5.13678 11.2143 7.17647V10.8529H28.7857V7.17647C28.7857 5.13677 27.1456 3.5 25.1429 3.5H14.8571ZM31.7857 10.8529V7.17647C31.7857 3.4984 28.8209 0.5 25.1429 0.5H14.8571C11.1792 0.5 8.21429 3.49838 8.21429 7.17647V10.8529H2C1.17157 10.8529 0.5 11.5245 0.5 12.3529C0.5 13.1814 1.17157 13.8529 2 13.8529H3.07143V40.8235C3.07143 44.5017 6.03635 47.5 9.71429 47.5H30.2857C33.9637 47.5 36.9286 44.5017 36.9286 40.8235V13.8529H38C38.8284 13.8529 39.5 13.1814 39.5 12.3529C39.5 11.5245 38.8284 10.8529 38 10.8529H31.7857ZM33.9286 13.8529H6.07143V40.8235C6.07143 42.8633 7.71157 44.5 9.71429 44.5H30.2857C32.2885 44.5 33.9286 42.8633 33.9286 40.8235V13.8529ZM14.8571 21.2059C15.6856 21.2059 16.3571 21.8775 16.3571 22.7059V35.6471C16.3571 36.4755 15.6856 37.1471 14.8571 37.1471C14.0287 37.1471 13.3571 36.4755 13.3571 35.6471V22.7059C13.3571 21.8775 14.0287 21.2059 14.8571 21.2059ZM25.1429 21.2059C25.9713 21.2059 26.6429 21.8775 26.6429 22.7059V35.6471C26.6429 36.4755 25.9713 37.1471 25.1429 37.1471C24.3144 37.1471 23.6429 36.4755 23.6429 35.6471V22.7059C23.6429 21.8775 24.3144 21.2059 25.1429 21.2059Z" fill="#1C274C"/>
</svg>
