<svg width="18" height="22" viewBox="0 0 18 22" fill="none" xmlns="http://www.w3.org/2000/svg">
<path d="M17 12V9.6569C17 8.83935 17 8.4306 16.8478 8.06306C16.6955 7.69552 16.4065 7.40649 15.8284 6.82843L11.0919 2.09188C10.593 1.593 10.3436 1.34355 10.0345 1.19575C9.9702 1.165 9.9044 1.13772 9.8372 1.11401C9.5141 1 9.1614 1 8.4558 1C5.21082 1 3.58831 1 2.48933 1.88607C2.26731 2.06508 2.06508 2.26731 1.88607 2.48933C1 3.58831 1 5.21082 1 8.45584V12M10 1.5V2C10 4.82843 10 6.24264 10.8787 7.12132C11.7574 8 13.1716 8 16 8H16.5" stroke="black" stroke-width="1.5" stroke-linecap="round" stroke-linejoin="round"/>
<path d="M16.75 15H14.25C13.6977 15 13.25 15.4477 13.25 16V18M13.25 18V21M13.25 18H16.25M1.25 21V18.5M1.25 18.5V15H3C3.9665 15 4.75 15.7835 4.75 16.75C4.75 17.7165 3.9665 18.5 3 18.5H1.25ZM7.25 15H8.75C9.8546 15 10.75 15.8954 10.75 17V19C10.75 20.1046 9.8546 21 8.75 21H7.25V15Z" stroke="black" stroke-width="1.5" stroke-linecap="round" stroke-linejoin="round"/>
</svg>
