<svg width="117" height="48" viewBox="0 0 117 48" fill="none" xmlns="http://www.w3.org/2000/svg">
<g clip-path="url(#clip0_75_2)">
<path d="M23.3572 22.5262C23.0992 17.0234 19.126 15.0095 14.8929 15.0334C10.3318 15.0584 6.69905 17.3916 6.08624 22.624L23.3572 22.5262ZM5.97883 26.5263C6.32791 31.8517 10.0144 34.9791 15.0665 34.9512C18.565 34.9311 21.6693 33.4897 22.6926 30.3834L28.7401 30.3499C27.6018 36.6487 20.9232 38.8218 15.1748 38.8525C4.71005 38.911 0.0415609 33.1771 -0.00159481 25.4033C-0.0495456 16.8421 4.71389 11.1887 15.1173 11.1293C23.3917 11.0832 29.4814 15.3806 29.5342 24.8346L29.5438 26.393L5.97883 26.5263Z" fill="#F02D2D"/>
<path d="M44.6372 34.6771C50.0921 34.6464 53.7891 30.6991 53.7555 24.78C53.7219 18.861 49.9703 14.954 44.5278 14.9847C39.0854 15.0153 35.376 18.9627 35.4086 24.8817C35.4412 30.8008 39.2197 34.7068 44.6372 34.6771ZM29.3965 0.727919L35.2618 0.695312L35.3433 15.4344C38.1993 11.9935 42.1524 10.975 46.0527 10.952C52.5903 10.9165 59.874 15.2848 59.9277 24.8136C59.9709 32.7639 54.2302 38.6302 46.0968 38.6752C41.8167 38.7002 37.8262 37.1936 35.3385 34.1861C35.3449 35.3813 35.2841 36.5758 35.1563 37.7642L29.408 37.7968C29.4943 35.9603 29.5854 33.6116 29.5749 31.7339L29.3965 0.727919Z" fill="#0968F6"/>
<path d="M74.1149 25.3702C68.7943 25.5773 65.4981 26.5488 65.5173 30.0531C65.5298 32.3211 67.3778 34.7705 71.9427 34.7436C78.0948 34.71 81.366 31.3333 81.3353 25.8353V25.2244C79.1756 25.2436 76.5028 25.2762 74.1149 25.3702ZM87.2371 32.5686C87.2467 34.2737 87.3052 35.9616 87.4596 37.4595L82.0047 37.4902C81.8626 36.2726 81.7906 35.0479 81.7889 33.822C78.862 37.4663 75.3558 38.5298 70.4888 38.5576C63.2655 38.5979 59.3786 34.8031 59.3537 30.3887C59.3182 23.9969 64.565 21.7106 73.6948 21.4526C76.1883 21.3836 78.9972 21.3567 81.3142 21.3414V20.7305C81.2893 16.4504 78.5331 14.703 73.7821 14.7299C70.2529 14.75 67.6751 16.2269 67.4018 18.7578L61.2314 18.7913C61.85 12.4944 68.4528 10.8612 74.2693 10.8315C81.2346 10.7931 87.1258 13.2367 87.1661 20.6058L87.2371 32.5686Z" fill="#FFBD14"/>
<path d="M88.171 19.7387L83.8555 11.7194L90.7163 11.681L100.871 31.7456L110.776 11.587L116.996 11.541L99.0559 47.2653L92.4866 47.3027L97.648 37.3788L88.1662 19.7396" fill="#92C821"/>
</g>
<defs>
<clipPath id="clip0_75_2">
<rect width="117" height="48" fill="white"/>
</clipPath>
</defs>
</svg>
