<svg width="256" height="297" viewBox="0 0 256 297" fill="none" xmlns="http://www.w3.org/2000/svg">
<path d="M200 72C200 111.765 167.765 144 128 144C88.2355 144 56 111.765 56 72C56 32.2355 88.2355 0 128 0C167.765 0 200 32.2355 200 72ZM76.2157 72C76.2157 100.6 99.4003 123.784 128 123.784C156.6 123.784 179.784 100.6 179.784 72C179.784 43.4003 156.6 20.2157 128 20.2157C99.4003 20.2157 76.2157 43.4003 76.2157 72Z" fill="white"/>
<path d="M0 86H58V297H20C8.95431 297 0 288.046 0 277V86Z" fill="#EA323C"/>
<path d="M256 86H198V297H236C247.046 297 256 288.046 256 277V86Z" fill="#88B621"/>
<rect x="58" y="86" width="70" height="211" fill="#0064D1"/>
<rect x="128" y="86" width="70" height="211" fill="#F5AE03"/>
</svg>
