<svg width="16" height="16" viewBox="0 0 16 16" fill="none" xmlns="http://www.w3.org/2000/svg">
<path d="M7.032 0.105647C7.00276 0.161992 7.01007 0.28877 7.032 0.380331C7.06854 0.535281 7.1197 0.549367 7.67515 0.598669C9.83118 0.767705 11.7753 2.19042 12.5427 4.15547C12.7473 4.69075 12.835 5.64157 12.7473 6.34589C12.6961 6.71213 12.6157 7.09951 12.5719 7.20515C12.5207 7.31784 12.4842 7.43758 12.4842 7.47279C12.4842 7.5714 12.1553 8.17711 11.9434 8.47997C11.2344 9.49418 10.1893 10.2548 8.998 10.6211C8.40601 10.8113 7.85056 10.931 7.47782 10.9521C7.30242 10.9662 7.12701 10.9944 7.08316 11.0155C6.97353 11.0789 6.97353 15.8894 7.07585 15.9528C7.30242 16.0866 9.15879 15.9175 10.0358 15.6781C11.3514 15.3189 12.6815 14.53 13.734 13.4806C14.8229 12.396 15.4953 11.1071 15.8754 9.3674C16.1019 8.34615 16.0142 6.96569 15.6561 5.83878C15.5976 5.65566 15.5538 5.47254 15.5538 5.43028C15.5538 5.3528 15.1591 4.47945 15.0349 4.29633C14.9983 4.23998 14.9472 4.14138 14.9179 4.08503C14.7352 3.69062 14.0701 2.8877 13.427 2.28198C12.1261 1.07056 10.7155 0.40146 8.8226 0.105647C7.90172 -0.0352161 7.08316 -0.0352161 7.032 0.105647Z" fill="white"/>
<path d="M4.5 0.184641C3.77276 0.615234 3.54884 0.917319 3.04387 1.32497C1.7849 2.35918 0.719619 4.04261 0.304575 5.6581C-0.594688 9.14575 0.539766 12.8523 3.14763 14.966C3.76328 15.4643 4.89773 16.1059 4.9669 15.9852C4.99457 15.9399 5.00841 12.3616 4.99457 8.04359C4.97382 -0.849153 5.13516 -0.191431 4.5 0.184641Z" fill="white"/>
</svg>
