<svg width="16" height="17" viewBox="0 0 16 17" fill="none" xmlns="http://www.w3.org/2000/svg">
<path d="M8 16.5C10.1217 16.5 12.1566 15.6571 13.6569 14.1569C15.1571 12.6566 16 10.6217 16 8.5C16 6.37827 15.1571 4.34344 13.6569 2.84315C12.1566 1.34285 10.1217 0.5 8 0.5C5.87827 0.5 3.84344 1.34285 2.34315 2.84315C0.842855 4.34344 0 6.37827 0 8.5C0 10.6217 0.842855 12.6566 2.34315 14.1569C3.84344 15.6571 5.87827 16.5 8 16.5ZM6.75 11H7.5V9H6.75C6.33437 9 6 8.66562 6 8.25C6 7.83437 6.33437 7.5 6.75 7.5H8.25C8.66562 7.5 9 7.83437 9 8.25V11H9.25C9.66562 11 10 11.3344 10 11.75C10 12.1656 9.66562 12.5 9.25 12.5H6.75C6.33437 12.5 6 12.1656 6 11.75C6 11.3344 6.33437 11 6.75 11ZM8 4.5C8.26522 4.5 8.51957 4.60536 8.70711 4.79289C8.89464 4.98043 9 5.23478 9 5.5C9 5.76522 8.89464 6.01957 8.70711 6.20711C8.51957 6.39464 8.26522 6.5 8 6.5C7.73478 6.5 7.48043 6.39464 7.29289 6.20711C7.10536 6.01957 7 5.76522 7 5.5C7 5.23478 7.10536 4.98043 7.29289 4.79289C7.48043 4.60536 7.73478 4.5 8 4.5Z" fill="#EB3F35"/>
</svg>
