<svg width="14" height="14" viewBox="0 0 14 14" fill="none" xmlns="http://www.w3.org/2000/svg">
<path d="M2.65911 5.6689C4.228 2.89279 5.01244 1.50473 6.08889 1.14742C6.68104 0.950858 7.31895 0.950858 7.9111 1.14742C8.98756 1.50473 9.77198 2.89279 11.3409 5.6689C12.9098 8.44498 13.6942 9.83305 13.4589 10.9641C13.3294 11.5863 13.0105 12.1506 12.5477 12.5763C11.7066 13.35 10.1378 13.35 7 13.35C3.86222 13.35 2.29333 13.35 1.45223 12.5763C0.989504 12.1506 0.670556 11.5863 0.541095 10.9641C0.305776 9.83305 1.09022 8.44498 2.65911 5.6689Z" fill="#EB3F35" stroke="#EB3F35"/>
<path d="M6.99976 10.5709H7.00568" stroke="white" stroke-width="1.76429" stroke-linecap="round" stroke-linejoin="round"/>
<path d="M7.00586 7.98164V4.52856" stroke="white" stroke-width="1.76429" stroke-linecap="round" stroke-linejoin="round"/>
</svg>
