<svg width="14" height="10" viewBox="0 0 14 10" fill="none" xmlns="http://www.w3.org/2000/svg">
<path d="M12.4537 4.45426C12.6274 4.69786 12.7143 4.81969 12.7143 4.99998C12.7143 5.18026 12.6274 5.30209 12.4537 5.54569C11.6731 6.64031 9.67954 8.99995 7.00002 8.99995C4.32048 8.99995 2.32696 6.64031 1.54636 5.54569C1.37263 5.30209 1.28577 5.18026 1.28577 4.99998C1.28577 4.81969 1.37263 4.69786 1.54636 4.45426C2.32696 3.35967 4.32048 1 7.00002 1C9.67954 1 11.6731 3.35967 12.4537 4.45426Z" stroke="#1E293B" stroke-width="0.857138"/>
<path d="M8.71444 4.99992C8.71444 4.05313 7.94696 3.28564 7.00016 3.28564C6.05337 3.28564 5.28589 4.05313 5.28589 4.99992C5.28589 5.94671 6.05337 6.71419 7.00016 6.71419C7.94696 6.71419 8.71444 5.94671 8.71444 4.99992Z" stroke="#1E293B" stroke-width="0.857138"/>
</svg>
