<svg width="22" height="22" viewBox="0 0 22 22" fill="none" xmlns="http://www.w3.org/2000/svg">
<path d="M2.46122 0.00608831C2.53789 0.00590398 2.61457 0.00566217 2.69124 0.00536812C2.90115 0.0047315 3.11104 0.00491716 3.32095 0.00524309C3.54764 0.00545211 3.77432 0.00489965 4.00101 0.00444798C4.4448 0.00368964 4.88859 0.00365236 5.33238 0.00388368C5.69315 0.00406213 6.05392 0.00399823 6.41469 0.0037624C6.46606 0.00372937 6.51744 0.00369634 6.57037 0.00366231C6.67474 0.00359473 6.77911 0.00352684 6.88348 0.00345865C7.86195 0.00285303 8.84042 0.00309289 9.81888 0.00359922C10.7137 0.00403752 11.6085 0.00346647 12.5033 0.00241061C13.4225 0.00133414 14.3417 0.000910256 15.2609 0.00120377C15.7768 0.00135786 16.2927 0.0012595 16.8086 0.000486609C17.2477 -0.000163185 17.6869 -0.00019097 18.1261 0.000577998C18.35 0.000953558 18.574 0.00104837 18.798 0.000372725C19.0032 -0.000238744 19.2084 -2.76273e-05 19.4137 0.000824583C19.4877 0.000990402 19.5617 0.000861887 19.6358 0.00040042C20.3599 -0.00379038 20.8936 0.155676 21.4331 0.654809C21.9323 1.18077 21.9951 1.76284 21.9924 2.45329C21.9926 2.52975 21.9929 2.60621 21.9931 2.68266C21.9938 2.89197 21.9936 3.10127 21.9933 3.31058C21.9931 3.53662 21.9936 3.76265 21.9941 3.98869C21.9948 4.43122 21.9949 4.87375 21.9946 5.31627C21.9945 5.67602 21.9945 6.03576 21.9948 6.3955C21.9948 6.44673 21.9948 6.49795 21.9949 6.55073C21.9949 6.65481 21.995 6.75888 21.9951 6.86296C21.9957 7.83864 21.9954 8.81432 21.9949 9.79C21.9945 10.6822 21.9951 11.5745 21.9961 12.4667C21.9972 13.3833 21.9976 14.2999 21.9973 15.2165C21.9972 15.7309 21.9973 16.2453 21.998 16.7598C21.9987 17.1977 21.9987 17.6356 21.998 18.0735C21.9976 18.2968 21.9975 18.5202 21.9982 18.7435C21.9988 18.9481 21.9986 19.1528 21.9977 19.3574C21.9975 19.4313 21.9977 19.5051 21.9981 19.5789C22.0023 20.301 21.8424 20.8332 21.3419 21.3712C20.8144 21.8689 20.2307 21.9316 19.5382 21.9289C19.4616 21.929 19.3849 21.9293 19.3082 21.9296C19.0983 21.9302 18.8884 21.93 18.6785 21.9297C18.4518 21.9295 18.2251 21.93 17.9984 21.9305C17.5546 21.9313 17.1109 21.9313 16.6671 21.9311C16.3063 21.9309 15.9455 21.9309 15.5848 21.9312C15.5077 21.9312 15.5077 21.9312 15.4291 21.9313C15.3247 21.9314 15.2203 21.9314 15.116 21.9315C14.1375 21.9321 13.159 21.9319 12.1806 21.9313C11.2858 21.9309 10.391 21.9315 9.49617 21.9325C8.57697 21.9336 7.65777 21.934 6.73857 21.9337C6.22267 21.9336 5.70678 21.9337 5.19089 21.9345C4.75172 21.9351 4.31256 21.9351 3.87339 21.9344C3.64942 21.934 3.42546 21.9339 3.20149 21.9346C2.99625 21.9352 2.79103 21.935 2.58579 21.9341C2.51176 21.934 2.43772 21.9341 2.36369 21.9345C1.63957 21.9387 1.10584 21.7793 0.566317 21.2801C0.0671084 20.7542 0.00430075 20.1721 0.00702131 19.4817C0.00683645 19.4052 0.00659397 19.3287 0.00629908 19.2523C0.00566065 19.043 0.00584678 18.8337 0.00617364 18.6244C0.00638326 18.3983 0.00582925 18.1723 0.00537629 17.9463C0.00461579 17.5037 0.00457841 17.0612 0.00481039 16.6187C0.00498935 16.2589 0.00492534 15.8992 0.00468883 15.5394C0.00465571 15.4882 0.00462251 15.437 0.00458838 15.3842C0.0045206 15.2801 0.00445249 15.1761 0.00438411 15.072C0.00377675 14.0963 0.0040173 13.1206 0.00452507 12.1449C0.00496463 11.2527 0.00439205 10.3605 0.00333318 9.46821C0.00225363 8.55162 0.00182852 7.63504 0.00212288 6.71846C0.00227741 6.20403 0.00217862 5.68961 0.00140352 5.17519C0.000751866 4.73727 0.000724022 4.29936 0.00149519 3.86144C0.00187182 3.63811 0.00196697 3.41479 0.00128939 3.19146C0.000676176 2.9868 0.000887869 2.78216 0.00174252 2.57751C0.00190881 2.50369 0.00178003 2.42986 0.00131725 2.35604C-0.00288553 1.63398 0.157037 1.10177 0.657596 0.563791C1.18506 0.0660042 1.76879 0.0033755 2.46122 0.00608831Z" fill="#D2D8F1"/>
<path d="M2.44799 0.00726259C2.52322 0.0072048 2.59845 0.00708877 2.67367 0.00691981C2.87956 0.00662476 3.08544 0.00715201 3.29132 0.00781716C3.51365 0.00839013 3.73598 0.00819533 3.95831 0.00809488C4.34324 0.00802554 4.72817 0.0084401 5.1131 0.00918549C5.66964 0.0102625 6.22617 0.0106063 6.78271 0.0107726C7.68571 0.0110622 8.58871 0.0119428 9.49171 0.0131957C10.3688 0.0144113 11.2458 0.0153482 12.1229 0.0159107C12.177 0.0159455 12.231 0.0159803 12.2868 0.0160161C12.5581 0.0161889 12.8294 0.0163562 13.1007 0.0165208C15.3508 0.0178927 17.6009 0.0202241 19.851 0.0231831C19.8087 0.0726179 19.7663 0.122027 19.724 0.171424C19.7004 0.198941 19.6768 0.226459 19.6525 0.25481C19.5741 0.345187 19.4927 0.431978 19.4092 0.517751C19.3773 0.55056 19.3454 0.58337 19.3125 0.617173C19.1688 0.763615 19.0248 0.909716 18.8804 1.05544C18.8043 1.13251 18.7285 1.2099 18.653 1.28759C18.5437 1.40011 18.4333 1.51159 18.3227 1.6229C18.2723 1.67536 18.2723 1.67536 18.2209 1.72888C17.9838 1.96438 17.9838 1.96438 17.7991 1.96712C17.7606 1.95183 17.7221 1.93653 17.6824 1.92078C17.6437 1.90548 17.6051 1.89017 17.5652 1.87441C17.5055 1.84685 17.5055 1.84685 17.4445 1.81873C16.9915 1.62489 16.4946 1.49526 16.0007 1.47948C15.9701 1.47834 15.9396 1.4772 15.9081 1.47603C14.6382 1.4342 13.4482 1.76361 12.4602 2.58273C12.403 2.62966 12.403 2.62966 12.3447 2.67754C11.4172 3.47315 10.7998 4.62899 10.6899 5.84836C10.6335 6.71648 10.8529 7.49834 11.215 8.28035C11.2653 8.40791 11.2653 8.40791 11.2653 8.58443C11.1987 8.66649 11.1987 8.66649 11.1076 8.74992C10.9896 8.85908 10.8812 8.97103 10.7769 9.09301C10.5824 9.31557 10.3741 9.52328 10.1646 9.7317C10.1209 9.77532 10.0772 9.81895 10.0335 9.86259C9.91434 9.98164 9.79499 10.1006 9.67562 10.2194C9.54661 10.348 9.41772 10.4767 9.28882 10.6053C9.03669 10.8569 8.78445 11.1084 8.53216 11.3598C8.32724 11.5641 8.12237 11.7684 7.91752 11.9727C7.88834 12.0018 7.85917 12.0309 7.8291 12.0609C7.76983 12.12 7.71055 12.1791 7.65128 12.2382C7.0961 12.7919 6.54078 13.3455 5.98542 13.8991C5.50848 14.3745 5.03167 14.85 4.55493 15.3255C4.00128 15.8778 3.44756 16.4301 2.89372 16.9822C2.83475 17.041 2.77577 17.0998 2.7168 17.1586C2.68778 17.1875 2.65877 17.2164 2.62887 17.2462C2.42398 17.4505 2.21914 17.6548 2.01431 17.8592C1.76509 18.1078 1.51579 18.3564 1.26639 18.6048C1.13905 18.7317 1.01174 18.8586 0.884537 18.9856C0.768299 19.1016 0.651961 19.2175 0.53554 19.3334C0.473081 19.3956 0.410732 19.4579 0.348386 19.5202C0.311798 19.5566 0.275211 19.593 0.237514 19.6304C0.205702 19.6622 0.17389 19.6939 0.141114 19.7266C0.0684365 19.7935 0.0684364 19.7935 0.0241802 19.7935C0.0201277 17.4975 0.0170087 15.2015 0.0151403 12.9056C0.0149189 12.6345 0.0146898 12.3634 0.0144559 12.0923C0.0144095 12.0383 0.0143631 11.9843 0.0143153 11.9287C0.0135452 11.055 0.0121493 10.1813 0.0105222 9.30753C0.00886631 8.41091 0.00788341 7.51429 0.00752419 6.61767C0.00728137 6.06447 0.00651459 5.51127 0.00507624 4.95808C0.00414 4.57865 0.00385781 4.19923 0.0040876 3.81981C0.00420091 3.60095 0.00402808 3.3821 0.00307786 3.16324C0.00221336 2.96265 0.00217482 2.76208 0.00277803 2.56149C0.00285253 2.48914 0.00263052 2.41678 0.00207269 2.34443C-0.00313338 1.62719 0.160843 1.09767 0.657597 0.563777C1.18122 0.0696225 1.76018 0.00332294 2.44799 0.00726259Z" fill="#28BE77"/>
<path d="M17.948 2.00929C17.994 2.0329 18.04 2.05651 18.0875 2.08083C18.4492 2.27848 18.7496 2.52967 19.0544 2.80364C19.0834 2.82889 19.1124 2.85415 19.1424 2.88018C20.0301 3.69986 20.5313 4.98375 20.5792 6.16993C20.5931 6.96437 20.3324 7.66072 19.9837 8.36404C19.967 8.39793 19.9503 8.43183 19.9331 8.46676C19.5132 9.30876 18.9986 10.0831 18.4348 10.8353C18.4153 10.8614 18.3958 10.8874 18.3757 10.9142C18.0885 11.2956 17.7863 11.665 17.4833 12.034C17.4239 12.1066 17.3648 12.1794 17.3057 12.2523C17.1147 12.4876 16.9179 12.7156 16.7134 12.9394C16.6323 13.0287 16.5527 13.1189 16.4737 13.2101C16.33 13.3746 16.1822 13.5352 16.0339 13.6955C16.0109 13.7204 15.9879 13.7453 15.9641 13.7709C15.8602 13.8829 15.7562 13.9944 15.6466 14.101C15.3144 13.9589 15.0723 13.623 14.8414 13.3545C14.7519 13.2514 14.66 13.1508 14.5679 13.0501C14.3953 12.8595 14.2315 12.6632 14.0697 12.4635C13.9789 12.3528 13.8864 12.2439 13.7929 12.1356C13.5079 11.8045 13.241 11.4611 12.9784 11.1123C12.9275 11.0447 12.8765 10.9773 12.8254 10.9101C12.2538 10.1575 11.755 9.37334 11.3095 8.54056C11.2945 8.51287 11.2795 8.48518 11.2641 8.45665C11.055 8.06876 10.9051 7.6813 10.7784 7.26078C10.7628 7.21067 10.7471 7.16055 10.7309 7.10891C10.4526 6.04205 10.7369 4.88416 11.2542 3.93723C11.9821 2.73543 13.0804 1.88746 14.4511 1.5461C15.6383 1.27037 16.8718 1.45126 17.948 2.00929Z" fill="#D63D3F"/>
<path d="M11.3538 8.54004C11.3653 8.56192 11.3768 8.58381 11.3886 8.60635C11.8488 9.47563 12.3892 10.278 12.9913 11.0555C12.9246 11.2111 12.8341 11.3115 12.7146 11.4308C12.6751 11.4704 12.6357 11.51 12.595 11.5508C12.5512 11.5943 12.5073 11.6379 12.4635 11.6814C12.4174 11.7275 12.3713 11.7736 12.3252 11.8198C12.2002 11.9449 12.0748 12.0697 11.9494 12.1945C11.8183 12.325 11.6874 12.4557 11.5565 12.5864C11.3367 12.8057 11.1167 13.0248 10.8967 13.2439C10.6419 13.4974 10.3875 13.7512 10.1333 14.0052C9.91515 14.2231 9.69685 14.4409 9.4784 14.6585C9.34785 14.7885 9.21737 14.9186 9.08703 15.0489C8.9646 15.1712 8.84195 15.2933 8.71914 15.4153C8.67399 15.4602 8.62893 15.5052 8.58394 15.5502C8.52274 15.6115 8.46125 15.6724 8.39974 15.7334C8.34814 15.7848 8.34814 15.7848 8.29551 15.8372C8.2116 15.9098 8.2116 15.9098 8.12309 15.9098C8.11321 15.9339 8.10333 15.958 8.09315 15.9829C8.01664 16.118 7.91436 16.2197 7.80543 16.3287C7.78184 16.3526 7.75825 16.3765 7.73395 16.4012C7.65484 16.4814 7.57542 16.5612 7.49599 16.6411C7.4392 16.6985 7.38242 16.7559 7.32566 16.8133C7.13916 17.0018 6.95219 17.1898 6.76514 17.3778C6.71741 17.4258 6.71741 17.4258 6.66871 17.4747C6.36855 17.7765 6.06823 18.0781 5.76749 18.3793C5.38294 18.7645 4.99923 19.1504 4.61665 19.5375C4.34748 19.8097 4.07739 20.0809 3.8066 20.3515C3.64492 20.5131 3.48367 20.6751 3.3234 20.8381C3.17258 20.9914 3.02064 21.1436 2.86777 21.2949C2.81195 21.3505 2.75655 21.4066 2.7016 21.4631C2.2869 21.8889 2.2869 21.8889 2.05324 21.9449C1.9309 21.9463 1.82527 21.937 1.70593 21.9115C1.65704 21.9023 1.60815 21.8932 1.55778 21.8837C0.93069 21.6687 0.451829 21.2701 0.156964 20.6758C0.0964664 20.53 0.0489593 20.3905 0.0241955 20.2345C0.0161449 20.1887 0.0161448 20.1887 0.00793164 20.142C-0.00974832 19.9608 -0.00464865 19.8386 0.0947498 19.6823C0.202227 19.5601 0.314983 19.4468 0.432064 19.3337C0.47648 19.2893 0.520799 19.2448 0.565028 19.2001C0.686572 19.078 0.80945 18.9573 0.932593 18.8368C1.06527 18.7065 1.19666 18.575 1.32821 18.4436C1.55628 18.216 1.78514 17.9894 2.01457 17.7632C2.34663 17.4359 2.67744 17.1073 3.00796 16.7784C3.54472 16.2444 4.08245 15.7113 4.6208 15.1788C5.1429 14.6625 5.6646 14.1457 6.18572 13.6283C6.2178 13.5965 6.24988 13.5646 6.28293 13.5318C6.50762 13.3088 6.73229 13.0857 6.95695 12.8626C7.20639 12.6148 7.45584 12.3671 7.7053 12.1194C7.73558 12.0894 7.76585 12.0593 7.79705 12.0283C8.21592 11.6124 8.63514 11.1969 9.05464 10.7816C9.22258 10.6153 9.39047 10.449 9.55836 10.2826C9.71391 10.1285 9.86957 9.97452 10.0253 9.82059C10.1201 9.72688 10.2147 9.63307 10.3094 9.53923C10.3729 9.47634 10.4365 9.41357 10.5001 9.35081C10.697 9.15544 10.8876 8.95789 11.0675 8.74683C11.2482 8.54004 11.2482 8.54004 11.3538 8.54004Z" fill="#FEDE64"/>
<path d="M8.12308 15.9541C8.29671 16.0243 8.41366 16.1434 8.54317 16.2738C8.56718 16.2977 8.59119 16.3215 8.61592 16.346C8.69632 16.426 8.77639 16.5062 8.85647 16.5864C8.91403 16.6438 8.97161 16.7011 9.02921 16.7584C9.18557 16.9141 9.34166 17.0701 9.49769 17.2261C9.6608 17.3892 9.82415 17.552 9.98746 17.7148C10.2616 17.9882 10.5355 18.2617 10.8094 18.5354C11.1264 18.8522 11.4437 19.1689 11.7611 19.4853C12.0661 19.7894 12.3709 20.0935 12.6756 20.3978C12.8055 20.5275 12.9355 20.6571 13.0655 20.7868C13.2183 20.9392 13.371 21.0917 13.5236 21.2444C13.5798 21.3005 13.636 21.3567 13.6923 21.4127C13.7688 21.489 13.8451 21.5653 13.9213 21.6417C13.944 21.6642 13.9666 21.6866 13.9899 21.7098C14.1419 21.8625 14.1419 21.8625 14.1419 21.9117C10.1987 21.9117 6.25547 21.9117 2.19275 21.9117C2.35998 21.7171 2.52394 21.5309 2.70528 21.3512C2.72864 21.3278 2.75199 21.3045 2.77606 21.2805C2.85342 21.2033 2.93093 21.1262 3.00844 21.0492C3.0643 20.9935 3.12015 20.9378 3.17599 20.8821C3.32693 20.7316 3.478 20.5812 3.6291 20.4308C3.78724 20.2734 3.94525 20.1159 4.10327 19.9583C4.40223 19.6604 4.7013 19.3625 5.00041 19.0647C5.34106 18.7255 5.68159 18.3862 6.0221 18.0469C6.72229 17.3491 7.42263 16.6516 8.12308 15.9541Z" fill="#4A9BF6"/>
<path d="M10.1589 13.9463C10.3732 14.1461 10.4189 14.1989 10.616 14.4195C10.6574 14.4655 10.6574 14.4655 10.6996 14.5124C10.791 14.6141 10.8823 14.716 10.9736 14.8179C11.0394 14.8913 11.1053 14.9646 11.1712 15.038C11.3494 15.2364 11.5275 15.435 11.7055 15.6336C11.8918 15.8415 12.0783 16.0492 12.2647 16.2569C12.5774 16.6054 12.89 16.9541 13.2026 17.3027C13.5644 17.7064 13.9264 18.1098 14.2885 18.5132C14.5993 18.8594 14.91 19.2058 15.2207 19.5522C15.4063 19.7592 15.5919 19.9661 15.7776 20.1729C15.9518 20.3671 16.126 20.5613 16.3001 20.7557C16.3642 20.8272 16.4283 20.8986 16.4924 20.9701C16.5796 21.0671 16.6666 21.1643 16.7536 21.2615C16.7794 21.2901 16.8052 21.3187 16.8317 21.3482C17.0051 21.5425 17.3468 21.87 17.3468 21.9272C16.7049 22.0911 15.7178 21.9272 15.064 21.9272C15.0006 21.9272 14.9658 21.9361 14.9153 21.9407C13.6262 22.0439 12.5989 21.7868 11.6121 20.8549C11.0095 20.2729 10.4544 19.6366 9.91177 18.9864C9.88568 18.9552 9.85958 18.924 9.8327 18.8918C9.17042 18.099 8.52921 17.2875 7.90758 16.4547C7.83435 16.3564 7.83435 16.3564 7.74316 16.2575C7.76456 16.2373 7.78596 16.2171 7.80801 16.1963C8.071 15.9443 8.29914 15.8311 8.54354 15.557C8.60566 15.4877 8.63506 15.4728 8.69844 15.4021C8.8073 15.2805 8.94378 15.1934 9.05249 15.0716C9.16393 14.9468 9.36136 14.7991 9.47292 14.6744C9.6909 14.4309 9.94115 14.1901 10.1589 13.9463Z" fill="#F6F6FE"/>
<path d="M6.08733 1.6118C6.2793 1.75816 6.4499 1.92474 6.6184 2.09723C6.64505 2.12197 6.67169 2.14672 6.69914 2.17221C6.75117 2.22962 6.75117 2.22962 6.75117 2.31788C6.65872 2.39679 6.56588 2.47083 6.46904 2.54404C6.41232 2.58764 6.35562 2.63125 6.29893 2.67488C6.27069 2.69649 6.24245 2.7181 6.21336 2.74037C6.0983 2.82893 5.98491 2.91941 5.87158 3.01017C5.8361 3.03856 5.80061 3.06694 5.76405 3.09619C5.73929 3.11604 5.71453 3.1359 5.68902 3.15635C5.62878 3.09901 5.62878 3.09901 5.56732 3.04051C5.1411 2.67598 4.63416 2.51299 4.07972 2.52181C3.65042 2.56641 3.24246 2.78729 2.95776 3.10998C2.6146 3.54921 2.49956 3.97108 2.54683 4.52439C2.64909 5.00813 2.88665 5.43271 3.29919 5.7159C3.74509 5.9775 4.20785 6.06341 4.72005 5.95034C5.25742 5.76896 5.6142 5.46795 5.86605 4.96569C5.34028 4.96569 4.81452 4.96569 4.27282 4.96569C4.27282 4.49967 4.27282 4.03366 4.27282 3.55352C4.61416 3.55074 4.95545 3.54809 5.29678 3.54667C5.45575 3.54597 5.61471 3.54504 5.77367 3.54353C5.9269 3.54209 6.08013 3.5413 6.23337 3.54096C6.32 3.5406 6.40663 3.53957 6.49326 3.53852C6.5464 3.53851 6.59954 3.5385 6.6543 3.53849C6.70088 3.5382 6.74746 3.5379 6.79546 3.5376C6.98058 3.55981 7.12974 3.62634 7.26652 3.75366C7.4983 4.0559 7.49025 4.33182 7.45927 4.70091C7.35353 5.32467 7.08649 5.90551 6.66266 6.37785C6.63368 6.41085 6.6047 6.44384 6.57484 6.47783C6.05514 7.03388 5.26679 7.41675 4.49929 7.4518C3.61317 7.46713 2.82323 7.2446 2.14853 6.64263C2.09889 6.59929 2.09889 6.59929 2.04826 6.55506C1.47441 6.02177 1.10918 5.23098 1.07151 4.44664C1.05587 3.6037 1.27745 2.78809 1.86363 2.15791C1.94231 2.07698 2.02271 1.99883 2.10427 1.92071C2.13005 1.89465 2.15584 1.8686 2.18241 1.84176C2.5309 1.51356 3.01156 1.27314 3.47621 1.17049C3.50504 1.16322 3.53386 1.15595 3.56356 1.14845C4.4355 0.936844 5.33906 1.1252 6.08733 1.6118Z" fill="#F5F6FD"/>
<path d="M16.6433 4.49885C16.7425 4.56233 16.8364 4.6295 16.9301 4.70071C16.9757 4.73348 17.0214 4.76624 17.0684 4.8C17.4789 5.19157 17.7277 5.69983 17.7484 6.26892C17.7512 6.89707 17.5533 7.43147 17.1154 7.89463C16.6453 8.32991 16.0828 8.5151 15.4492 8.50797C14.8889 8.4648 14.3723 8.19546 13.9897 7.78741C13.5581 7.25025 13.4115 6.65724 13.4781 5.98048C13.5978 5.4317 13.8888 4.96311 14.3473 4.63434C15.0487 4.19085 15.8995 4.07914 16.6433 4.49885Z" fill="#A83229"/>
<path d="M20.4706 6.95117C20.4852 6.95117 20.4998 6.95117 20.5148 6.95117C20.7995 8.9822 19.5591 10.7538 18.3907 12.3061C18.0886 12.7048 17.7822 13.0987 17.4612 13.4824C17.3948 13.5642 17.3284 13.6461 17.262 13.7279C17.0995 13.9261 16.9307 14.1173 16.7579 14.3066C16.6758 14.3968 16.5952 14.4881 16.5152 14.5802C16.3809 14.7338 16.2438 14.8848 16.1058 15.0353C16.0857 15.0573 16.0655 15.0793 16.0447 15.102C15.9154 15.2426 15.7827 15.3785 15.6467 15.5124C15.4735 15.4421 15.3647 15.3298 15.2345 15.198C15.213 15.1762 15.1914 15.1544 15.1692 15.1319C15.024 14.9839 14.8846 14.8321 14.7498 14.6746C14.6616 14.5724 14.5705 14.473 14.4794 14.3733C14.3103 14.1863 14.1489 13.9944 13.9902 13.7986C13.9051 13.6937 13.8189 13.5898 13.7322 13.4862C13.2675 12.9299 12.8255 12.3595 12.416 11.7614C12.4862 11.5891 12.5989 11.4818 12.7313 11.3532C12.7716 11.3138 12.8118 11.2744 12.8533 11.2339C12.8843 11.2041 12.9152 11.1742 12.947 11.1435C13.1368 11.2116 13.2318 11.3551 13.3481 11.5104C13.3913 11.5666 13.4346 11.6228 13.4779 11.679C13.4999 11.7075 13.522 11.736 13.5446 11.7654C13.6463 11.8947 13.7527 12.0199 13.8598 12.1447C14.0064 12.3156 14.1503 12.4878 14.2913 12.6633C14.4956 12.9138 14.7158 13.148 14.9373 13.3833C15.0686 13.5229 15.1953 13.6661 15.3206 13.811C15.3961 13.8966 15.4757 13.9772 15.5581 14.0561C15.8732 13.9182 16.0946 13.6137 16.3147 13.3583C16.4127 13.2461 16.5137 13.1368 16.6148 13.0273C16.8118 12.8117 16.9979 12.5894 17.1815 12.3624C17.2467 12.2825 17.3129 12.2035 17.3792 12.1246C17.7783 11.6485 18.1566 11.1594 18.5233 10.6581C18.5498 10.622 18.5763 10.5858 18.6036 10.5486C19.3724 9.49368 20.0833 8.35222 20.4263 7.08356C20.4409 7.03987 20.4555 6.99618 20.4706 6.95117Z" fill="#AEB1D3"/>
<path d="M20.4374 0.0509684C21.0672 0.264195 21.5465 0.663099 21.8425 1.25886C21.9656 1.5515 22.042 1.87068 21.9753 2.18559C21.8608 2.36517 21.7139 2.50292 21.559 2.6481C21.5162 2.68984 21.4735 2.73169 21.431 2.77365C21.3194 2.88307 21.2064 2.99096 21.0931 3.09858C20.9774 3.20893 20.8631 3.3207 20.7487 3.43235C20.5245 3.65069 20.2989 3.86743 20.0722 4.08319C19.8989 4.02559 19.8902 3.96632 19.8067 3.80737C19.4167 3.11937 18.8406 2.59028 18.1678 2.18163C18.0619 2.11367 17.989 2.05428 17.9037 1.96494C18.1486 1.71046 18.3947 1.45722 18.6424 1.20543C18.7574 1.08846 18.872 0.971119 18.9856 0.85281C19.0954 0.738519 19.2062 0.62536 19.3179 0.512883C19.3602 0.469914 19.4021 0.426559 19.4435 0.382815C19.7761 0.0328117 19.971 -0.0390166 20.4374 0.0509684Z" fill="#FEDE64"/>
<path d="M16.6433 4.49921C16.7425 4.56269 16.8364 4.62986 16.9301 4.70107C16.9757 4.73384 17.0214 4.7666 17.0684 4.80036C17.4817 5.19453 17.7311 5.70554 17.7459 6.27871C17.7463 6.53293 17.7321 6.75517 17.6382 6.99584C17.609 6.99584 17.5798 6.99584 17.5497 6.99584C17.5351 6.96541 17.5206 6.93497 17.5056 6.90361C17.1932 6.28816 16.7601 5.97201 16.1139 5.75261C15.5168 5.61405 14.9598 5.73492 14.4372 6.03446C14.0652 6.2823 13.8455 6.5975 13.6551 6.99584C13.6259 6.99584 13.5967 6.99584 13.5666 6.99584C13.3795 6.51631 13.4362 5.97349 13.6282 5.50524C13.9313 4.9 14.4002 4.51619 15.0387 4.2989C15.5783 4.17127 16.1593 4.22609 16.6433 4.49921Z" fill="#91323B"/>
<path d="M11.3538 8.54004C11.3653 8.56192 11.3768 8.58381 11.3886 8.60635C11.8488 9.47563 12.3891 10.278 12.9912 11.0555C12.921 11.2277 12.8083 11.335 12.6759 11.4637C12.6356 11.503 12.5954 11.5424 12.5539 11.583C12.5229 11.6128 12.492 11.6426 12.4602 11.6733C12.3026 11.6098 12.2376 11.5372 12.1474 11.3951C12.1225 11.3561 12.0976 11.3171 12.072 11.2769C12.0458 11.2348 12.0197 11.1926 11.9927 11.1492C11.9518 11.084 11.9518 11.084 11.9101 11.0175C11.5025 10.3618 11.1417 9.70327 10.8669 8.98134C10.9084 8.93255 10.9499 8.88384 10.9914 8.83516C11.0145 8.80802 11.0376 8.78089 11.0614 8.75293C11.2493 8.54004 11.2493 8.54004 11.3538 8.54004Z" fill="#FDB745"/>
<path d="M10.69 6.95117C10.7878 7.09746 10.8296 7.23973 10.878 7.40626C10.9687 7.70921 11.0822 7.99303 11.215 8.2799C11.2653 8.40747 11.2653 8.40747 11.2653 8.58399C11.1878 8.67845 11.1878 8.67845 11.0883 8.77154C11.0554 8.80271 11.0225 8.83389 10.9887 8.86601C10.9631 8.88944 10.9376 8.91288 10.9112 8.93703C10.8109 8.83701 10.7929 8.7761 10.7536 8.64191C10.7426 8.60533 10.7316 8.56875 10.7202 8.53107C10.6505 8.24639 10.6388 7.97049 10.6402 7.67932C10.64 7.64331 10.6398 7.6073 10.6396 7.5702C10.64 7.35922 10.6546 7.15922 10.69 6.95117Z" fill="#21A363"/>
<path d="M16.1777 1.43555C16.9226 1.43555 17.6674 1.43555 18.4348 1.43555C18.3472 1.53749 18.2595 1.63943 18.1693 1.74446C18.1328 1.78815 18.0962 1.83184 18.0586 1.87685C17.948 1.96511 17.948 1.96511 17.8221 1.95477C17.6896 1.92271 17.5836 1.88049 17.4612 1.82169C17.0529 1.64449 16.6119 1.56954 16.1777 1.47968C16.1777 1.46511 16.1777 1.45055 16.1777 1.43555Z" fill="#2DBC75"/>
</svg>
