<svg width="22" height="22" viewBox="0 0 22 22" fill="none" xmlns="http://www.w3.org/2000/svg">
<g clip-path="url(#clip0_315_9)">
<path d="M2.53246 -0.00541604C2.61343 -0.00483445 2.61343 -0.00483445 2.69603 -0.00424111C2.8286 -0.00323294 2.96118 -0.00169175 3.09374 -4.49453e-05C3.09374 0.22683 3.09374 0.453705 3.09374 0.687455C3.02478 0.691665 2.95582 0.695874 2.88477 0.700211C2.7924 0.706666 2.70003 0.713158 2.60766 0.719682C2.56243 0.72234 2.51721 0.724999 2.47061 0.727738C1.93047 0.767626 1.50449 0.928529 1.12792 1.32527C0.712882 1.83162 0.72401 2.44381 0.725295 3.06416C0.725276 3.13145 0.725238 3.19874 0.725184 3.26604C0.725088 3.45045 0.725259 3.63486 0.725475 3.81927C0.725661 4.01832 0.725598 4.21737 0.725565 4.41642C0.725542 4.76113 0.725677 5.10583 0.725919 5.45054C0.726268 5.94892 0.72638 6.4473 0.726434 6.94569C0.726528 7.75431 0.726814 8.56293 0.72722 9.37155C0.727615 10.157 0.727919 10.9424 0.728102 11.7279C0.728113 11.7768 0.728125 11.8257 0.728137 11.8761C0.728226 12.2587 0.72831 12.6413 0.728392 13.0239C0.728798 14.8987 0.729662 16.7735 0.730462 18.6484C3.45296 15.9259 6.17546 13.2034 8.98046 10.3984C9.14558 10.481 9.22987 10.5528 9.35644 10.6831C9.40795 10.7357 9.40795 10.7357 9.4605 10.7895C9.48643 10.8164 9.51235 10.8433 9.53906 10.871C9.47954 11.0051 9.41088 11.0956 9.30687 11.1985C9.26122 11.2441 9.26122 11.2441 9.21465 11.2905C9.16432 11.34 9.16432 11.34 9.11298 11.3905C9.07743 11.4258 9.04189 11.4611 9.00526 11.4975C8.90656 11.5955 8.80767 11.6933 8.70871 11.791C8.60202 11.8964 8.49558 12.0021 8.38913 12.1078C8.22854 12.2672 8.06787 12.4264 7.90711 12.5856C7.59125 12.8983 7.27592 13.2116 6.96079 13.5251C6.91118 13.5744 6.86157 13.6238 6.81195 13.6731C6.73677 13.7479 6.66158 13.8227 6.58639 13.8975C6.30296 14.1794 6.01947 14.4612 5.73591 14.743C5.70999 14.7688 5.68407 14.7945 5.65737 14.8211C5.23715 15.2386 4.8163 15.6556 4.39526 16.0723C3.96306 16.5001 3.53168 16.9287 3.10101 17.3581C2.83531 17.6229 2.56896 17.8871 2.30175 18.1504C2.11873 18.3309 1.93651 18.5122 1.75489 18.6941C1.65004 18.799 1.54488 18.9036 1.43875 19.0072C1.32388 19.1198 1.21041 19.2336 1.0972 19.3477C1.06336 19.3803 1.02952 19.4128 0.994658 19.4463C0.82874 19.6112 0.82874 19.6112 0.761893 19.8276C0.802353 20.2395 1.02798 20.6087 1.33202 20.8828C1.61254 21.086 1.91992 21.262 2.27734 21.2265C2.36895 21.1668 2.36895 21.1668 2.45141 21.0789C2.48476 21.046 2.51812 21.013 2.55249 20.9791C2.58864 20.9423 2.6248 20.9055 2.66205 20.8676C2.70084 20.829 2.73962 20.7904 2.77958 20.7507C2.88737 20.6434 2.99447 20.5354 3.10147 20.4273C3.21692 20.3109 3.33299 20.1952 3.44899 20.0794C3.64992 19.8785 3.85046 19.6773 4.05073 19.4758C4.3403 19.1845 4.63045 18.8938 4.92075 18.6032C5.39171 18.1318 5.86218 17.6599 6.33236 17.1877C6.78914 16.729 7.24614 16.2704 7.70345 15.8122C7.73163 15.784 7.75981 15.7557 7.78885 15.7266C7.93022 15.585 8.07159 15.4433 8.21297 15.3017C9.38615 14.1263 10.5586 12.9501 11.7305 11.7734C11.8866 11.8463 11.9859 11.934 12.1064 12.0581C12.1408 12.0932 12.1751 12.1283 12.2105 12.1645C12.2364 12.1914 12.2623 12.2183 12.2891 12.246C12.2326 12.3709 12.1722 12.4595 12.075 12.5558C12.0492 12.5816 12.0234 12.6074 11.9968 12.6339C11.9691 12.6612 11.9413 12.6886 11.9127 12.7167C11.8843 12.7451 11.8558 12.7734 11.8264 12.8027C11.7355 12.893 11.6444 12.9831 11.5532 13.0732C11.4915 13.1345 11.4298 13.1958 11.3681 13.2572C11.217 13.4073 11.0656 13.5572 10.9141 13.707C10.9698 13.8292 11.0291 13.9193 11.1226 14.0154C11.1604 14.0546 11.1604 14.0546 11.1989 14.0945C11.2266 14.1227 11.2543 14.151 11.2828 14.1801C11.3122 14.2104 11.3416 14.2408 11.3719 14.272C11.4708 14.3738 11.5699 14.4753 11.6691 14.5768C11.74 14.6496 11.8108 14.7225 11.8817 14.7953C12.53 15.4611 13.1823 16.1229 13.8356 16.7838C13.9231 16.8724 14.0105 16.9609 14.098 17.0494C14.1197 17.0714 14.1415 17.0935 14.1639 17.1161C14.515 17.4717 14.8638 17.8294 15.2117 18.1881C15.5698 18.557 15.9301 18.9236 16.2926 19.2882C16.4958 19.4926 16.6978 19.698 16.8973 19.906C17.7552 20.9021 17.7552 20.9021 18.913 21.3824C19.1498 21.3719 19.365 21.3285 19.5937 21.2695C19.7266 21.2472 19.8597 21.2273 19.993 21.2078C20.3813 21.1269 20.7275 20.8823 20.9583 20.5637C21.1969 20.184 21.243 19.8438 21.2749 19.403C21.2805 19.3313 21.2805 19.3313 21.2861 19.2581C21.2952 19.1408 21.3039 19.0235 21.3125 18.9062C21.5394 18.9062 21.7662 18.9062 22 18.9062C22.0047 19.0889 22.0081 19.2714 22.0107 19.4541C22.0122 19.5051 22.0136 19.5561 22.0151 19.6086C22.0218 20.2204 21.8106 20.8268 21.3904 21.2831C20.9377 21.7036 20.3747 22.0103 19.7476 22.011C19.7168 22.0112 19.686 22.0113 19.6543 22.0115C19.5513 22.0119 19.4483 22.0117 19.3453 22.0114C19.2706 22.0116 19.1959 22.0118 19.1212 22.012C18.9162 22.0126 18.7111 22.0126 18.506 22.0125C18.2848 22.0124 18.0636 22.0129 17.8423 22.0133C17.4089 22.014 16.9755 22.0143 16.5421 22.0143C16.1898 22.0144 15.8375 22.0145 15.4852 22.0148C14.4861 22.0156 13.4871 22.016 12.4881 22.0159C12.4073 22.0159 12.4073 22.0159 12.3249 22.0159C12.2709 22.0159 12.217 22.0159 12.1615 22.0159C11.2877 22.0158 10.4139 22.0167 9.54013 22.0179C8.64282 22.0191 7.74551 22.0197 6.84819 22.0196C6.34447 22.0196 5.84075 22.0198 5.33703 22.0208C4.90812 22.0215 4.47922 22.0217 4.0503 22.0211C3.83155 22.0209 3.6128 22.0209 3.39404 22.0216C3.19357 22.0223 2.99312 22.0222 2.79266 22.0214C2.72034 22.0213 2.64802 22.0214 2.5757 22.0219C1.89023 22.0262 1.2367 21.869 0.716866 21.3903C0.296384 20.9377 -0.0103672 20.3747 -0.0110614 19.7476C-0.011212 19.7168 -0.0113626 19.686 -0.0115179 19.6542C-0.0119169 19.5513 -0.0117068 19.4483 -0.0114977 19.3453C-0.0116583 19.2706 -0.011856 19.1959 -0.0120876 19.1212C-0.0126132 18.9161 -0.012602 18.7111 -0.0125007 18.506C-0.0124831 18.2848 -0.0129575 18.0635 -0.013365 17.8423C-0.0140788 17.4089 -0.014315 16.9755 -0.0143629 16.5421C-0.0144037 16.1898 -0.0145804 15.8375 -0.0148528 15.4851C-0.0156097 14.4861 -0.016006 13.4871 -0.0159415 12.488C-0.0159381 12.4342 -0.0159347 12.3803 -0.0159312 12.3248C-0.0159277 12.2709 -0.0159242 12.217 -0.0159206 12.1614C-0.0158856 11.2876 -0.0167078 10.4139 -0.0179196 9.54009C-0.0191542 8.64278 -0.0197476 7.74547 -0.0196733 6.84816C-0.0196448 6.34443 -0.0198806 5.84072 -0.0208058 5.337C-0.0215886 4.90808 -0.0217749 4.47918 -0.0211917 4.05027C-0.0209112 3.83151 -0.0209057 3.61276 -0.0216518 3.394C-0.0223284 3.19353 -0.0222039 2.99308 -0.0214554 2.79262C-0.0213236 2.7203 -0.0214791 2.64798 -0.0219591 2.57566C-0.0262057 1.89019 0.130915 1.23666 0.609612 0.716828C0.910549 0.437294 1.24839 0.229216 1.63281 0.0858926C1.67474 0.0699404 1.71667 0.0539883 1.75987 0.0375527C2.00984 -0.0314865 2.27563 -0.00891765 2.53246 -0.00541604ZM10.2037 14.364C10.178 14.39 10.1522 14.4159 10.1257 14.4427C10.0964 14.4719 10.0672 14.5012 10.037 14.5313C10.0055 14.5632 9.97402 14.5952 9.94155 14.6281C9.89309 14.6768 9.89309 14.6768 9.84366 14.7264C9.74013 14.8304 9.63691 14.9347 9.53368 15.039C9.46371 15.1094 9.39372 15.1798 9.32371 15.2502C9.15178 15.4231 8.98009 15.5962 8.80859 15.7695C8.87634 15.9273 8.97364 16.0388 9.08824 16.1659C9.10809 16.188 9.12795 16.2101 9.1484 16.2328C9.21502 16.3067 9.28195 16.3803 9.34892 16.4539C9.37235 16.4798 9.39578 16.5056 9.41993 16.5323C9.88703 17.0476 10.364 17.5535 10.8444 18.0564C11.1494 18.376 11.4509 18.6978 11.7454 19.0271C13.2029 20.7456 13.2029 20.7456 15.2335 21.4864C15.9311 21.5179 16.6313 21.4402 17.3164 21.3125C17.1441 21.106 16.9641 20.9109 16.7737 20.721C16.7324 20.6796 16.7324 20.6796 16.6903 20.6373C16.5987 20.5455 16.507 20.4539 16.4154 20.3622C16.3494 20.2961 16.2835 20.23 16.2175 20.1639C16.039 19.9851 15.8604 19.8063 15.6817 19.6276C15.5701 19.516 15.4586 19.4044 15.3471 19.2927C14.9581 18.9034 14.5691 18.5142 14.18 18.1251C13.8168 17.762 13.4539 17.3986 13.0911 17.0351C12.7797 16.7232 12.4681 16.4114 12.1564 16.0997C11.9702 15.9135 11.784 15.7272 11.5981 15.5407C11.4235 15.3657 11.2487 15.1909 11.0737 15.0163C11.0093 14.952 10.9451 14.8876 10.8809 14.8232C10.7936 14.7356 10.7061 14.6483 10.6185 14.561C10.5801 14.5222 10.5801 14.5222 10.5408 14.4826C10.3898 14.3036 10.3898 14.3036 10.2037 14.364ZM8.11995 16.4474C8.06588 16.5015 8.06588 16.5015 8.01073 16.5567C7.98061 16.5867 7.98061 16.5867 7.94989 16.6172C7.88226 16.6846 7.81493 16.7523 7.74761 16.82C7.69935 16.8682 7.65108 16.9164 7.60279 16.9646C7.47139 17.0958 7.34026 17.2273 7.20917 17.3588C7.07226 17.4961 6.93511 17.6331 6.798 17.7702C6.56775 18.0005 6.33767 18.231 6.1077 18.4615C5.84141 18.7285 5.57489 18.9952 5.30824 19.2619C5.05224 19.5178 4.79635 19.7739 4.54054 20.0301C4.43144 20.1394 4.3223 20.2486 4.21313 20.3578C4.08472 20.4862 3.95643 20.6148 3.82822 20.7434C3.781 20.7908 3.73374 20.8381 3.68645 20.8853C3.62219 20.9496 3.55806 21.014 3.49397 21.0784C3.45796 21.1144 3.42195 21.1505 3.38485 21.1877C3.3037 21.2561 3.3037 21.2561 3.30859 21.3125C6.56992 21.3125 9.83124 21.3125 13.1914 21.3125C13.038 21.1334 12.8921 20.9648 12.727 20.7993C12.6877 20.7599 12.6484 20.7204 12.608 20.6798C12.5652 20.637 12.5224 20.5943 12.4797 20.5515C12.4341 20.5058 12.3884 20.46 12.3428 20.4142C12.2197 20.2908 12.0965 20.1674 11.9732 20.0441C11.8962 19.967 11.8192 19.89 11.7422 19.8129C11.4736 19.5439 11.205 19.275 10.9362 19.0063C10.6855 18.7556 10.4351 18.5048 10.1847 18.2538C9.96966 18.0381 9.75442 17.8226 9.53904 17.6073C9.41046 17.4787 9.28194 17.3501 9.15359 17.2213C9.03316 17.1004 8.91253 16.9798 8.79174 16.8593C8.74735 16.815 8.70304 16.7706 8.65881 16.7261C8.59865 16.6656 8.5382 16.6054 8.47774 16.5452C8.44393 16.5114 8.41012 16.4775 8.37529 16.4427C8.25976 16.3422 8.23485 16.3466 8.11995 16.4474Z" fill="black"/>
<path d="M5.15625 -0.000275088C7.04146 -0.00419755 8.92668 -0.00723849 10.8119 -0.00905194C11.0346 -0.0092669 11.2572 -0.00948936 11.4799 -0.00971646C11.5242 -0.00976155 11.5685 -0.00980663 11.6142 -0.00985308C12.3316 -0.0106006 13.0489 -0.0119555 13.7663 -0.0135357C14.5026 -0.0151441 15.2389 -0.0160979 15.9752 -0.0164465C16.4293 -0.0166822 16.8835 -0.0174258 17.3377 -0.0188232C17.6493 -0.019733 17.961 -0.0200061 18.2726 -0.0197831C18.4523 -0.0196733 18.6319 -0.0198395 18.8116 -0.0207635C18.9764 -0.0216047 19.1412 -0.0216391 19.3059 -0.0210546C19.3932 -0.0209485 19.4805 -0.0216855 19.5678 -0.0224609C20.1471 -0.0187073 20.611 0.143901 21.0413 0.534149C21.0741 0.570484 21.1068 0.60682 21.1406 0.644256C21.1603 0.663753 21.18 0.68325 21.2002 0.703338C22.0814 1.62842 22.0194 3.08159 22.015 4.26528C22.0144 4.45296 22.0146 4.64064 22.0147 4.82832C22.0148 5.15264 22.0144 5.47696 22.0136 5.80128C22.0126 6.27019 22.0122 6.73909 22.0121 7.20799C22.0118 7.96895 22.0109 8.72991 22.0097 9.49087C22.0085 10.2296 22.0076 10.9683 22.0071 11.7071C22.007 11.7527 22.007 11.7983 22.007 11.8453C22.0068 12.0742 22.0066 12.303 22.0065 12.5319C22.0052 14.4274 22.0029 16.323 22 18.2185C21.7731 18.2185 21.5463 18.2185 21.3125 18.2185C21.3122 18.1074 21.3122 18.1074 21.3119 17.9941C21.3076 16.2362 21.3031 14.4783 21.2983 12.7205C21.2977 12.5041 21.2971 12.2877 21.2965 12.0714C21.2964 12.0283 21.2963 11.9852 21.2961 11.9408C21.2943 11.2434 21.2925 10.5459 21.2908 9.8485C21.2891 9.13284 21.2872 8.41718 21.2851 7.70152C21.2839 7.25994 21.2827 6.81835 21.2818 6.37677C21.2811 6.07394 21.2803 5.77112 21.2793 5.46829C21.2788 5.29359 21.2783 5.11889 21.278 4.94418C21.2777 4.78411 21.2772 4.62403 21.2766 4.46396C21.2763 4.37889 21.2763 4.29383 21.2762 4.20877C21.276 4.15771 21.2757 4.10664 21.2755 4.05404C21.2754 4.01032 21.2753 3.96661 21.2751 3.92158C21.2681 3.7452 21.2461 3.5697 21.2266 3.39426C20.9004 3.72039 20.5743 4.04652 20.2383 4.38254C20.2808 4.51015 20.3234 4.63777 20.3672 4.76926C20.3874 4.83811 20.407 4.90716 20.4253 4.97655C20.4343 5.01097 20.4434 5.0454 20.4528 5.08086C20.4618 5.1154 20.4707 5.14993 20.48 5.18552C20.4893 5.22055 20.4986 5.25558 20.5082 5.29168C20.709 6.05821 20.7261 6.94117 20.4531 7.69113C20.4416 7.72369 20.4301 7.75624 20.4182 7.78978C20.1089 8.64786 19.6653 9.42434 19.1641 10.1833C19.1344 10.2283 19.1344 10.2283 19.1041 10.2741C18.8 10.7317 18.4704 11.168 18.1328 11.6013C18.0915 11.6547 18.0502 11.708 18.0089 11.7614C17.7632 12.0779 17.5093 12.3863 17.2484 12.6903C17.1858 12.7635 17.1235 12.8369 17.0613 12.9105C16.8079 13.2092 16.5484 13.5008 16.2811 13.7872C16.197 13.8774 16.1138 13.9683 16.0314 14.0601C16.0117 14.082 15.9919 14.1039 15.9716 14.1265C15.9179 14.1864 15.8644 14.2463 15.8108 14.3063C15.6955 14.4266 15.6539 14.4354 15.4849 14.4587C15.2788 14.4557 15.1789 14.3633 15.0354 14.2239C14.9349 14.1171 14.8376 14.0086 14.7428 13.8968C14.6483 13.788 14.5505 13.683 14.4518 13.578C14.2271 13.339 14.0112 13.0966 13.8061 12.8403C13.7122 12.7249 13.616 12.6122 13.5185 12.4998C13.2768 12.2212 13.0458 11.9363 12.8242 11.6413C12.7521 11.5456 12.6794 11.4502 12.6068 11.3549C11.3539 9.70495 10.1124 7.88355 10.3242 5.72414C10.4685 4.67608 10.9821 3.73598 11.6875 2.96457C11.7183 2.93023 11.7491 2.89589 11.7808 2.8605C12.2399 2.37379 12.7992 2.03128 13.4062 1.76144C13.4521 1.74073 13.4979 1.72001 13.5451 1.69867C14.6968 1.21697 16.1351 1.205 17.2922 1.67014C17.3347 1.68952 17.3772 1.70891 17.421 1.72888C17.5448 1.77908 17.5448 1.77908 17.7031 1.67551C18.0151 1.36355 18.327 1.0516 18.6484 0.730194C14.196 0.716014 9.74359 0.701834 5.15625 0.687225C5.15625 0.46035 5.15625 0.233475 5.15625 -0.000275088ZM19.5681 0.860359C19.5397 0.888748 19.5114 0.917136 19.4821 0.946385C19.4522 0.977402 19.4223 1.00842 19.3915 1.04037C19.3603 1.07185 19.3292 1.10332 19.297 1.13575C19.1976 1.2364 19.0989 1.33777 19.0002 1.43918C18.933 1.50754 18.8656 1.57585 18.7982 1.64412C18.6332 1.81158 18.4687 1.97964 18.3047 2.14816C18.4457 2.29081 18.5877 2.42132 18.7451 2.54562C19.1629 2.8857 19.4898 3.26438 19.8086 3.69504C20.0751 3.47369 20.327 3.2377 20.575 2.99606C20.6229 2.94977 20.6712 2.90386 20.7198 2.85834C20.7907 2.79183 20.8604 2.72413 20.9298 2.65607C20.9626 2.6261 20.9626 2.6261 20.996 2.59554C21.0807 2.51037 21.1387 2.441 21.1454 2.31856C21.0844 1.7837 20.7832 1.26093 20.3707 0.921035C20.1199 0.747386 19.8064 0.617462 19.5681 0.860359ZM12.5898 3.13644C12.5596 3.1596 12.5294 3.18275 12.4982 3.2066C11.7409 3.81676 11.1819 4.87616 11.0524 5.83582C10.9871 6.48337 11.0154 7.08515 11.2578 7.69113C11.2754 7.73639 11.2754 7.73639 11.2934 7.78257C11.7593 8.95785 12.5085 10.0054 13.2773 10.9997C13.2973 11.0256 13.3172 11.0515 13.3377 11.0782C13.5872 11.4019 13.8451 11.7172 14.1107 12.0278C14.2123 12.1469 14.3102 12.2686 14.408 12.3908C14.5942 12.6202 14.7945 12.8351 14.9978 13.0493C15.1469 13.2066 15.2889 13.3669 15.4258 13.5349C15.5996 13.4673 15.7053 13.3436 15.8259 13.2072C15.847 13.1839 15.868 13.1605 15.8896 13.1364C15.9501 13.0689 16.0103 13.0012 16.0703 12.9333C16.0966 12.9039 16.1228 12.8744 16.1499 12.844C16.2243 12.7597 16.2977 12.6747 16.3711 12.5896C16.4099 12.545 16.4486 12.5005 16.4874 12.456C16.7471 12.1566 16.9975 11.8518 17.2404 11.5387C17.3197 11.4365 17.4004 11.3356 17.4824 11.2355C18.3579 10.1656 19.2104 8.95034 19.6919 7.64541C19.7199 7.56956 19.7495 7.49427 19.7792 7.41905C20.1088 6.4695 19.8667 5.39914 19.4504 4.519C19.2882 4.20481 19.0828 3.92838 18.8633 3.65207C18.8284 3.60637 18.8284 3.60637 18.7928 3.55975C18.1028 2.70598 16.9821 2.22596 15.9182 2.08505C14.6836 1.96873 13.5434 2.36401 12.5898 3.13644Z" fill="black"/>
<path d="M6.10158 2.19139C6.2855 2.33622 6.45291 2.49761 6.61721 2.66405C6.59652 2.84375 6.50456 2.91142 6.36745 3.02123C6.32995 3.05208 6.29245 3.08293 6.25382 3.11472C6.14455 3.17968 6.14455 3.17968 6.05274 3.17665C5.959 3.12989 5.91141 3.07954 5.84377 2.99974C5.55061 2.69268 5.09755 2.50071 4.67505 2.47774C4.00355 2.46422 3.50282 2.61928 2.99978 3.07762C2.60631 3.4868 2.47436 4.00776 2.47649 4.55811C2.48956 5.14652 2.74522 5.61806 3.1651 6.02182C3.66465 6.41796 4.24037 6.50034 4.85549 6.4453C5.37516 6.3439 5.82233 6.04451 6.12995 5.6153C6.29374 5.35815 6.35201 5.16655 6.44533 4.85546C5.79307 4.84128 5.1408 4.8271 4.46877 4.81249C4.46877 4.58561 4.46877 4.35874 4.46877 4.12499C4.80195 4.1211 5.13511 4.11795 5.4683 4.11608C5.62302 4.11519 5.77772 4.11397 5.93243 4.11202C6.08177 4.11015 6.23109 4.10913 6.38043 4.10868C6.46507 4.10821 6.54971 4.10687 6.63435 4.10551C6.71175 4.1055 6.71175 4.1055 6.79072 4.10548C6.83614 4.10509 6.88156 4.10471 6.92835 4.10432C7.07761 4.13034 7.12787 4.17766 7.21877 4.29686C7.31785 4.94594 7.10268 5.56605 6.74611 6.10155C6.31457 6.68779 5.66457 7.10533 4.94143 7.21874C4.07548 7.2872 3.29864 7.15046 2.62255 6.57714C2.14887 6.15059 1.76257 5.5156 1.70928 4.86921C1.689 4.35877 1.67458 3.86651 1.89064 3.39452C1.92122 3.32556 1.92122 3.32556 1.95241 3.25521C2.29966 2.54569 2.87152 2.07945 3.60939 1.80468C4.44635 1.54701 5.38375 1.70259 6.10158 2.19139Z" fill="black"/>
<path d="M15.4553 4.10358C15.517 4.10395 15.517 4.10395 15.5799 4.10432C16.1377 4.11823 16.579 4.28729 17.0156 4.64069C17.0608 4.67348 17.106 4.70627 17.1526 4.74005C17.5668 5.13592 17.8661 5.71239 17.8936 6.28928C17.8946 6.36816 17.8947 6.44706 17.8938 6.52594C17.8935 6.56742 17.8931 6.6089 17.8928 6.65163C17.8855 6.96659 17.8421 7.23393 17.7031 7.51959C17.6834 7.56092 17.6637 7.60224 17.6434 7.64481C17.3115 8.29285 16.788 8.6614 16.1059 8.89913C15.477 9.04607 14.7845 8.97645 14.2258 8.64904C14.1202 8.57754 14.0209 8.50214 13.9219 8.42194C13.8767 8.38915 13.8315 8.35636 13.7849 8.32257C13.3712 7.92729 13.0746 7.35325 13.0423 6.77788C13.0409 6.70018 13.0405 6.62245 13.041 6.54474C13.0412 6.50363 13.0415 6.46252 13.0417 6.42016C13.0556 5.86233 13.2247 5.42103 13.5781 4.98444C13.6109 4.93924 13.6437 4.89404 13.6775 4.84748C14.1465 4.35664 14.7828 4.09886 15.4553 4.10358ZM14.1367 5.4571C13.8164 5.89233 13.7395 6.34325 13.793 6.87506C13.8944 7.34766 14.1796 7.71176 14.5664 7.99225C14.946 8.2239 15.3869 8.28675 15.8205 8.20709C16.2248 8.10468 16.5901 7.9003 16.8437 7.56256C17.1257 7.07131 17.2283 6.60769 17.1167 6.04792C16.9576 5.56931 16.62 5.20994 16.1811 4.97068C15.4435 4.65106 14.6611 4.86826 14.1367 5.4571Z" fill="black"/>
<path d="M10.3555 9.02344C10.5136 9.08946 10.6128 9.18592 10.7314 9.30811C10.7658 9.34322 10.8001 9.37834 10.8355 9.41452C10.8614 9.44144 10.8874 9.46836 10.9141 9.49609C10.8573 9.62209 10.7961 9.71036 10.6975 9.80695C10.6726 9.83159 10.6477 9.85624 10.622 9.88164C10.5961 9.90684 10.5702 9.93204 10.5435 9.95801C10.5172 9.98387 10.4909 10.0097 10.4639 10.0364C10.3993 10.1 10.3344 10.1633 10.2695 10.2266C10.1114 10.1605 10.0122 10.0641 9.89355 9.94189C9.85921 9.90678 9.82487 9.87166 9.78949 9.83548C9.76357 9.80856 9.73765 9.78164 9.71094 9.75391C9.76771 9.62791 9.82895 9.53964 9.92746 9.44305C9.95238 9.41841 9.97731 9.39376 10.003 9.36836C10.0289 9.34316 10.0548 9.31796 10.0815 9.29199C10.1078 9.26613 10.1341 9.24026 10.1611 9.21361C10.2257 9.15002 10.2906 9.0867 10.3555 9.02344Z" fill="black"/>
<path d="M3.78125 0C4.00813 0 4.235 0 4.46875 0C4.46875 0.226875 4.46875 0.45375 4.46875 0.6875C4.24187 0.6875 4.015 0.6875 3.78125 0.6875C3.78125 0.460625 3.78125 0.23375 3.78125 0Z" fill="black"/>
</g>
<defs>
<clipPath id="clip0_315_9">
<rect width="22" height="22" fill="white"/>
</clipPath>
</defs>
</svg>
