<svg width="22" height="22" viewBox="0 0 22 22" fill="none" xmlns="http://www.w3.org/2000/svg">
<path d="M14.1528 3.28405C12.9789 2.84839 12.4577 1.10473 11.1198 1.00447C11.0403 0.99851 10.9603 0.99851 10.8808 1.00447C9.5429 1.10474 9.0217 2.84829 7.8478 3.28405C6.60482 3.74524 4.90521 2.79988 3.85272 3.85239C2.83967 4.86542 3.73613 6.62993 3.28438 7.84747C2.82256 9.0915 0.89134 9.6061 1.0048 11.1195C1.10506 12.4574 2.84872 12.9786 3.28438 14.1525C3.73615 15.37 2.83962 17.1346 3.85272 18.1476C4.90506 19.2001 6.60478 18.2551 7.8478 18.7159C9.0214 19.1522 9.5431 20.8954 10.8808 20.9955C10.9603 21.0015 11.0403 21.0015 11.1198 20.9955C12.4575 20.8954 12.9793 19.1521 14.1528 18.7159C15.3704 18.2645 17.1351 19.1607 18.1479 18.1476C19.2352 17.0605 18.1876 15.2981 18.762 14.042C19.2929 12.8855 21.1063 12.3439 20.9958 10.8805C20.8957 9.5428 19.1525 9.021 18.7162 7.84747C18.2554 6.60445 19.2004 4.90473 18.1479 3.85239C17.0955 2.79983 15.3958 3.74527 14.1528 3.28405Z" stroke="black" stroke-width="1.5"/>
<path d="M11.2422 15V11C11.2422 10.5286 11.2422 10.2929 11.0957 10.1464C10.9493 10 10.7136 10 10.2422 10" stroke="black" stroke-width="1.5" stroke-linecap="round" stroke-linejoin="round"/>
<path d="M10.9922 7H11.0012" stroke="black" stroke-width="2" stroke-linecap="round" stroke-linejoin="round"/>
</svg>
