<svg width="18" height="20" viewBox="0 0 18 20" fill="none" xmlns="http://www.w3.org/2000/svg">
<g clip-path="url(#clip0_19_372)">
<path d="M10.3472 17.9619C9.9858 18.3071 9.5028 18.5 9.0002 18.5C8.4975 18.5 8.0145 18.3071 7.6531 17.9619C4.34389 14.7821 -0.0908682 11.2299 2.07183 6.07272C3.24118 3.28428 6.04815 1.5 9.0002 1.5C11.9522 1.5 14.7591 3.28428 15.9285 6.07272C18.0885 11.2234 13.6646 14.793 10.3472 17.9619Z" stroke="black" stroke-width="1.5"/>
<path d="M12 9C12 10.6569 10.6569 12 9 12C7.3431 12 6 10.6569 6 9C6 7.34315 7.3431 6 9 6C10.6569 6 12 7.34315 12 9Z" stroke="black" stroke-width="1.5"/>
</g>
<defs>
<clipPath id="clip0_19_372">
<rect width="18" height="20" fill="white"/>
</clipPath>
</defs>
</svg>
