<svg width="20" height="20" viewBox="0 0 20 20" fill="none" xmlns="http://www.w3.org/2000/svg">
<path d="M17.5 5H2.5C3.08771 2.64917 5.19993 1 7.62311 1H12.3769C14.8001 1 16.9123 2.64917 17.5 5Z" stroke="#141B34" stroke-width="1.5" stroke-linecap="round"/>
<path d="M16 14.5V5H18C18.5523 5 19 5.44772 19 6V14.5C19 15.3284 18.3284 16 17.5 16C16.6716 16 16 15.3284 16 14.5Z" stroke="#141B34" stroke-width="1.5" stroke-linecap="round"/>
<path d="M4 17V5H16V17C16 18.1046 15.1046 19 14 19H6C4.89543 19 4 18.1046 4 17Z" stroke="#141B34" stroke-width="1.5" stroke-linecap="round"/>
<path d="M1 14.5V6C1 5.44772 1.44772 5 2 5H4V14.5C4 15.3284 3.32843 16 2.5 16C1.67157 16 1 15.3284 1 14.5Z" stroke="#141B34" stroke-width="1.5" stroke-linecap="round"/>
</svg>
