<svg width="17" height="18" viewBox="0 0 17 18" fill="none" xmlns="http://www.w3.org/2000/svg">
<path d="M8.2 16.9999C7.54544 16.9999 6.92016 16.7402 5.66954 16.2209C2.55651 14.928 1 14.2816 1 13.1942V5.59561M8.2 16.9999C8.85456 16.9999 9.47984 16.7402 10.7305 16.2209C13.8435 14.928 15.4 14.2816 15.4 13.1942V5.59561M8.2 16.9999V9.13486M1 5.59561C1 6.0787 1.64126 6.38377 2.92378 6.99389L5.26074 8.10566C6.70304 8.79182 7.42424 9.13486 8.2 9.13486M1 5.59561C1 5.11251 1.64126 4.80745 2.92378 4.19733L4.6 3.3999M15.4 5.59561C15.4 6.0787 14.7587 6.38377 13.4762 6.99389L11.1393 8.10566C9.69696 8.79182 8.97576 9.13486 8.2 9.13486M15.4 5.59561C15.4 5.11251 14.7587 4.80745 13.4762 4.19733L11.8 3.3999M3.4 9.92134L5 10.7079" stroke="white" stroke-width="1.5" stroke-linecap="round" stroke-linejoin="round"/>
<path d="M8.20257 1V6.59996M8.20257 6.59996C8.41305 6.60281 8.62065 6.45578 8.77385 6.27627L9.79961 5.04939M8.20257 6.59996C7.99953 6.59722 7.79393 6.45094 7.63137 6.27627L6.59961 5.04939" stroke="white" stroke-width="1.5" stroke-linecap="round"/>
</svg>
