<svg width="209" height="209" viewBox="0 0 209 209" fill="none" xmlns="http://www.w3.org/2000/svg">
<path d="M192 4.00015C199.189 9.28706 205.144 15.4326 208 24.0001C209.028 34.9503 206.181 41.9146 199.336 50.2936C195.438 54.8096 191.247 59.0021 187 63.1876C186.149 64.0378 185.298 64.8879 184.422 65.7638C180.879 69.282 177.334 72.7228 173.527 75.9538C167.905 80.8449 162.769 86.2193 157.564 91.5446C154.34 94.8377 151.099 98.1137 147.861 101.393C143.764 105.544 139.672 109.7 135.598 113.875C132.284 117.271 128.954 120.648 125.611 124.014C124.349 125.292 123.094 126.575 121.845 127.865C114.776 135.16 109.135 140.513 99 143C97.4789 143.506 95.9619 144.024 94.45 144.556C90.5347 145.86 86.6139 147.147 82.6917 148.429C81.012 148.98 79.3336 149.534 77.6565 150.093C75.2047 150.909 72.7494 151.714 70.293 152.516C69.5491 152.766 68.8053 153.016 68.0389 153.273C63.9274 154.599 60.3757 155.471 56 155C54 153 54 153 53.7334 149.9C54.0327 145.521 54.9774 141.782 56.2656 137.61C56.6176 136.432 56.6176 136.432 56.9767 135.23C57.4733 133.575 57.9745 131.921 58.48 130.268C59.2427 127.774 59.9917 125.276 60.7383 122.777C61.9163 118.852 63.1291 114.939 64.3649 111.031C64.9222 109.249 65.453 107.459 65.9795 105.667C68.1654 98.7758 71.4688 94.6191 76.75 89.7501C77.7671 88.7679 77.7671 88.7679 78.8047 87.7658C81.3929 85.2858 84.0097 82.8534 86.7258 80.5133C91.3851 76.4959 95.8017 72.3191 100.115 67.935C100.777 67.2674 101.438 66.5998 102.119 65.9119C103.54 64.4769 104.961 63.0409 106.38 61.6038C108.631 59.3261 110.886 57.0529 113.143 54.7812C119.555 48.3271 125.963 41.8703 132.356 35.3974C136.279 31.4254 140.212 27.4634 144.152 23.5076C145.645 22.0047 147.135 20.498 148.62 18.9876C150.699 16.8748 152.79 14.7748 154.885 12.6771C155.489 12.0573 156.093 11.4375 156.715 10.7989C166.254 1.32622 179.565 -2.5816 192 4.00015Z" fill="#040404"/>
<path d="M21.5037 19.6593C22.5482 19.6589 23.5927 19.6584 24.6688 19.658C28.1102 19.66 31.5511 19.6834 34.9924 19.7069C37.3828 19.7125 39.7732 19.7168 42.1636 19.7198C48.447 19.7312 54.7301 19.7607 61.0134 19.7939C67.4282 19.8246 73.8431 19.8383 80.258 19.8534C92.8389 19.8855 105.42 19.9361 118 19.9999C108.144 32.2033 108.144 32.2033 102.924 33.526C100.544 33.7355 98.2408 33.7434 95.852 33.681C94.9492 33.6817 94.0463 33.6825 93.1161 33.6832C90.2133 33.6788 87.3128 33.6332 84.4104 33.5858C82.6106 33.577 80.8107 33.5709 79.0109 33.5675C72.3612 33.5361 65.712 33.4524 59.0627 33.3749C44.1921 33.2511 29.3215 33.1274 14.0002 32.9999C14.0002 86.4599 14.0002 139.92 14.0002 195C63.1702 195 112.34 195 163 195C162.605 168.134 162.605 168.134 162.099 141.27C162.054 136.046 162.054 136.046 162.046 133.593C162.031 131.897 161.996 130.202 161.944 128.507C161.515 113.496 161.515 113.496 165.223 108.593C167.694 106.053 170.025 103.919 173 102C173.66 102 174.32 102 175 102C175.116 114.674 175.205 127.348 175.259 140.022C175.285 145.907 175.321 151.792 175.377 157.677C175.432 163.357 175.462 169.037 175.475 174.717C175.484 176.883 175.502 179.05 175.529 181.216C175.565 184.252 175.57 187.287 175.568 190.323C175.595 191.665 175.595 191.665 175.622 193.034C175.588 197.198 175.369 200.115 172.777 203.48C168.259 207.58 164.568 208.249 158.555 208.267C157.253 208.276 155.95 208.284 154.608 208.293C153.172 208.292 151.736 208.292 150.299 208.29C148.781 208.296 147.263 208.303 145.745 208.311C141.627 208.328 137.51 208.333 133.392 208.334C130.818 208.336 128.245 208.34 125.671 208.345C116.691 208.364 107.71 208.372 98.7295 208.37C90.3616 208.369 81.994 208.39 73.6263 208.422C66.438 208.448 59.2498 208.459 52.0615 208.458C47.77 208.457 43.4787 208.463 39.1872 208.484C35.1512 208.503 31.1156 208.503 27.0796 208.489C25.6002 208.487 24.1208 208.492 22.6414 208.504C20.6185 208.519 18.5954 208.507 16.5725 208.494C15.4415 208.495 14.3105 208.497 13.1453 208.498C9.15247 207.866 7.08201 206.601 4.00024 204C1.09762 199.598 0.622836 196.117 0.61256 190.903C0.607174 190.212 0.601789 189.521 0.59624 188.809C0.581994 186.506 0.589055 184.203 0.596187 181.9C0.590482 180.244 0.583517 178.588 0.575389 176.932C0.557461 172.442 0.558626 167.953 0.564332 163.463C0.567424 159.713 0.561331 155.963 0.555293 152.213C0.541251 143.366 0.542806 134.519 0.554195 125.672C0.56568 116.548 0.551593 107.425 0.524799 98.3008C0.502643 90.4628 0.496003 82.6249 0.501874 74.7869C0.505245 70.1075 0.502822 65.4283 0.485624 60.749C0.470159 56.3494 0.474104 51.9502 0.492929 47.5506C0.496616 45.9373 0.493503 44.324 0.483043 42.7108C0.469838 40.5057 0.481374 38.302 0.499034 36.0969C0.499243 34.864 0.499452 33.631 0.499667 32.3607C1.10092 28.3239 2.47338 26.1689 5.00024 22.9999C10.198 19.2848 15.3644 19.5916 21.5037 19.6593Z" fill="#050505"/>
<path d="M185.562 15.5001C190.174 18.463 194.18 22.6583 195.512 28.0861C195.79 33.099 193.981 36.2334 191 40.0001C188.655 42.6077 186.186 45.0778 183.696 47.5467C182.967 48.2777 182.238 49.0086 181.487 49.7616C179.085 52.1676 176.675 54.5664 174.266 56.965C172.586 58.6432 170.907 60.3218 169.228 62.0007C165.711 65.5166 162.19 69.029 158.667 72.5389C154.165 77.0237 149.67 81.5149 145.177 86.0086C141.71 89.4757 138.24 92.9401 134.769 96.4038C133.112 98.0581 131.455 99.713 129.798 101.369C127.475 103.69 125.149 106.007 122.821 108.324C122.146 109 121.47 109.676 120.774 110.373C116.892 114.229 112.904 117.893 108.73 121.433C107.104 122.906 105.758 124.423 104.391 126.133C99.7762 130.832 92.8845 132.054 86.75 133.875C85.4448 134.28 84.1401 134.686 82.8359 135.094C73.4055 138 73.4055 138 71 138C71.4931 134.294 72.2478 130.662 73 127C73.1159 126.315 73.2317 125.631 73.3511 124.925C76.3421 108.051 85.5369 98.5043 97.5844 86.8974C100.097 84.4628 102.569 81.9884 105.047 79.5188C109.2 75.3902 113.378 71.2881 117.575 67.204C123.486 61.4523 129.346 55.6513 135.199 49.8411C139.276 45.7972 143.366 41.7654 147.457 37.7357C148.444 36.7639 149.43 35.7918 150.416 34.8193C153.65 31.6295 156.898 28.4539 160.152 25.285C161.368 24.086 161.368 24.086 162.609 22.8627C169.574 16.1212 175.699 11.3469 185.562 15.5001Z" fill="#FDFDFD"/>
</svg>
