<svg xmlns="http://www.w3.org/2000/svg" width="30" height="30" fill="none"><path fill="#058C28" d="M0 0h30v30H0z"/><path stroke="#fff" stroke-width="1.5" d="M21.219 18.969a2.031 2.031 0 1 1-4.063 0 2.031 2.031 0 0 1 4.063 0ZM13.094 18.969a2.031 2.031 0 1 1-4.063 0 2.031 2.031 0 0 1 4.063 0Z"/><path stroke="#fff" stroke-linecap="round" stroke-linejoin="round" stroke-width="1.5" d="M17.156 18.969h-4.062m4.469-1.625v-6.907c0-1.149 0-1.723-.357-2.08S16.274 8 15.125 8H9.438c-1.15 0-1.724 0-2.081.357S7 9.288 7 10.437v6.5c0 .76 0 1.14.163 1.422.107.186.261.34.446.446.283.164.663.164 1.422.164m8.938-8.938h1.463c.675 0 1.012 0 1.291.158.28.159.453.448.8 1.026l1.38 2.3c.172.287.259.431.303.591s.044.327.044.663v2.169c0 .759 0 1.139-.163 1.421-.107.186-.261.34-.446.446-.283.164-.663.164-1.422.164"/></svg>