<svg width="21" height="21" viewBox="0 0 21 21" fill="none" xmlns="http://www.w3.org/2000/svg">
<path d="M12.856 0.891274C13.0177 0.959765 13.1662 1.04718 13.317 1.13679C13.3609 1.16214 13.4048 1.18749 13.45 1.2136C13.5864 1.29257 13.7223 1.37246 13.8581 1.45246C13.939 1.49954 14.02 1.54657 14.101 1.59353C14.2595 1.68562 14.4179 1.77808 14.576 1.87084C14.8288 2.01893 15.0824 2.16549 15.3362 2.31176C15.4009 2.34906 15.4009 2.34906 15.4669 2.38712C15.6884 2.51479 15.91 2.64228 16.1317 2.7696C16.5441 3.00664 16.9562 3.24438 17.3655 3.48674C17.3991 3.50635 17.4326 3.52597 17.4672 3.54619C17.4977 3.56439 17.5282 3.5826 17.5597 3.60135C17.5862 3.61705 17.6127 3.63274 17.6401 3.64891C17.7062 3.69718 17.7062 3.69718 17.7864 3.81743C17.7968 3.92181 17.7968 3.92181 17.7974 4.04968C17.7978 4.09812 17.7982 4.14656 17.7986 4.19647C17.7986 4.25024 17.7987 4.304 17.7987 4.35777C17.799 4.41433 17.7993 4.47089 17.7997 4.52745C17.8006 4.68116 17.8009 4.83487 17.8011 4.98859C17.8013 5.08461 17.8015 5.18064 17.8018 5.27667C17.8028 5.61165 17.8033 5.94663 17.8034 6.28162C17.8036 6.59391 17.8048 6.90618 17.8065 7.21846C17.8079 7.48655 17.8085 7.75462 17.8085 8.02271C17.8085 8.18284 17.8089 8.34296 17.81 8.50308C17.8111 8.65371 17.8112 8.80431 17.8105 8.95494C17.8105 9.01019 17.8107 9.06544 17.8114 9.12068C17.816 9.54863 17.816 9.54863 17.6929 9.71882C17.5632 9.80517 17.4336 9.8888 17.2979 9.96537C17.2687 9.98218 17.2395 9.99898 17.2095 10.0163C17.144 10.054 17.0785 10.0915 17.013 10.1289C16.8966 10.1954 16.7806 10.2623 16.6647 10.3294C16.4427 10.4578 16.2206 10.5858 15.9984 10.7137C15.736 10.8649 15.4737 11.0163 15.2114 11.1677C14.9923 11.2941 14.7732 11.4204 14.554 11.5465C14.5101 11.5718 14.4662 11.597 14.421 11.6231C14.3338 11.6733 14.2465 11.7234 14.1592 11.7736C13.9468 11.8958 13.7357 12.0196 13.5263 12.1468C13.4664 12.1831 13.4664 12.1831 13.4053 12.22C13.3303 12.2654 13.2557 12.3113 13.1813 12.3575C12.8311 12.5695 12.8311 12.5695 12.6155 12.5558C12.4603 12.489 12.3189 12.4027 12.1746 12.3153C12.0953 12.271 12.0159 12.2269 11.9363 12.1832C11.5403 11.9622 11.145 11.7405 10.7549 11.5092C10.5019 11.3592 10.2473 11.212 9.99249 11.0652C9.94837 11.0398 9.90425 11.0143 9.85879 10.9881C9.72216 10.9094 9.58551 10.8307 9.44885 10.752C9.14037 10.5744 8.83201 10.3966 8.52389 10.2184C8.41414 10.1551 8.30412 10.0923 8.19402 10.0296C8.13211 9.99398 8.07021 9.95838 8.00832 9.92278C7.98082 9.90731 7.95333 9.89184 7.92501 9.87591C7.78588 9.79533 7.6873 9.72822 7.60497 9.58958C7.58961 9.48026 7.58961 9.48026 7.58916 9.35251C7.5887 9.30401 7.58825 9.25551 7.58778 9.20554C7.58789 9.15193 7.588 9.09831 7.58814 9.04469C7.58784 8.98812 7.5875 8.93156 7.58711 8.87499C7.58622 8.72144 7.5861 8.5679 7.58617 8.41435C7.58618 8.28615 7.58584 8.15795 7.5855 8.02974C7.58473 7.72728 7.58462 7.42482 7.58489 7.12236C7.58515 6.81037 7.58424 6.4984 7.58275 6.18641C7.58152 5.91849 7.58106 5.65058 7.58122 5.38266C7.5813 5.22267 7.58108 5.06269 7.5801 4.9027C7.57921 4.75223 7.57928 4.6018 7.5801 4.45133C7.58024 4.39615 7.58003 4.34097 7.57946 4.28579C7.57492 3.8166 7.57492 3.8166 7.70035 3.68712C7.73501 3.66398 7.76968 3.64085 7.80539 3.61701C7.83901 3.59444 7.87263 3.57186 7.90727 3.5486C7.94325 3.52829 7.97923 3.50798 8.0163 3.48705C8.0573 3.46367 8.0983 3.44029 8.14055 3.4162C8.18455 3.39152 8.22854 3.36685 8.27388 3.34143C8.32048 3.31498 8.36706 3.28849 8.41362 3.26197C8.51025 3.20696 8.60697 3.15211 8.70374 3.09736C8.9262 2.97135 9.14737 2.84311 9.36868 2.71511C9.45552 2.665 9.54237 2.61489 9.62923 2.5648C9.67222 2.53999 9.71521 2.51519 9.7595 2.48964C9.88977 2.41448 10.02 2.33932 10.1503 2.26416C10.1934 2.23934 10.2364 2.21451 10.2807 2.18894C10.3672 2.13906 10.4536 2.08918 10.5401 2.03931C10.8092 1.88405 11.0783 1.72875 11.3474 1.57334C11.4367 1.52181 11.5261 1.47036 11.6156 1.41902C11.7959 1.31547 11.9758 1.2118 12.153 1.10297C12.1785 1.08757 12.2039 1.07217 12.2302 1.0563C12.2931 1.01814 12.3555 0.979252 12.4179 0.940284C12.5717 0.876115 12.6943 0.857059 12.856 0.891274ZM12.4373 1.73555C12.3726 1.77353 12.3726 1.77353 12.3066 1.81227C12.2614 1.83904 12.2162 1.86581 12.1696 1.89338C12.124 1.92015 12.0785 1.94691 12.0316 1.97449C11.9188 2.04083 11.8062 2.10733 11.6936 2.17397C11.811 2.26567 11.9317 2.34232 12.0609 2.41636C12.102 2.44 12.1432 2.46364 12.1855 2.48799C12.2299 2.51334 12.2742 2.53868 12.3199 2.5648C12.3667 2.59164 12.4134 2.61849 12.4602 2.64536C12.5573 2.70114 12.6544 2.75688 12.7516 2.81258C12.9737 2.93997 13.1954 3.06809 13.4172 3.19612C13.5037 3.24602 13.5902 3.29592 13.6766 3.34581C13.7196 3.37059 13.7625 3.39537 13.8068 3.42089C13.9408 3.49818 14.0747 3.57544 14.2087 3.65271C14.2532 3.67841 14.2977 3.7041 14.3435 3.73058C14.4316 3.7813 14.5198 3.83177 14.6082 3.88197C14.8091 3.99654 15.0062 4.1132 15.1983 4.24223C15.5122 4.46827 15.5122 4.46827 15.8774 4.5236C16.0078 4.46143 16.1095 4.38771 16.2231 4.29844C16.2951 4.25273 16.3682 4.20928 16.4416 4.16587C16.5438 4.10522 16.6439 4.04148 16.7442 3.97777C16.6442 3.86571 16.5337 3.80009 16.4033 3.72662C16.3584 3.70116 16.3136 3.67571 16.2673 3.64949C16.2434 3.63605 16.2195 3.62261 16.1949 3.60877C16.0933 3.55168 15.992 3.49415 15.8906 3.43667C15.8382 3.40695 15.7858 3.37725 15.7333 3.34757C15.4799 3.20414 15.2276 3.05879 14.9755 2.91303C14.8898 2.86355 14.8042 2.81407 14.7185 2.76459C14.6761 2.74007 14.6337 2.71555 14.59 2.69029C14.4555 2.61266 14.321 2.53516 14.1865 2.4577C14.0962 2.40571 14.006 2.35373 13.9157 2.30174C13.8725 2.27686 13.8293 2.25197 13.7847 2.22633C13.5903 2.11419 13.3961 2.00156 13.2032 1.88681C13.1712 1.86783 13.1393 1.84886 13.1064 1.82931C13.0482 1.7946 12.99 1.75974 12.932 1.7247C12.7066 1.59017 12.6605 1.60401 12.4373 1.73555ZM10.6439 2.77023C10.6182 2.78485 10.5924 2.79947 10.566 2.81454C10.4246 2.89089 10.4246 2.89089 10.3307 3.01574C10.3575 3.03064 10.3843 3.04555 10.4119 3.0609C11.3172 3.56491 11.3172 3.56491 11.7503 3.82184C12.0918 4.02433 12.4363 4.22183 12.7804 4.41995C12.9444 4.51438 13.1083 4.609 13.272 4.70398C13.3431 4.74523 13.4142 4.78645 13.4853 4.82765C13.5745 4.87935 13.6637 4.93111 13.7528 4.98296C13.8324 5.02905 13.9123 5.07465 13.9926 5.11964C14.0588 5.15751 14.124 5.19722 14.1874 5.23954C14.2752 5.29856 14.2752 5.29856 14.4193 5.34064C14.5505 5.30129 14.6503 5.23066 14.76 5.15024C14.7892 5.13039 14.8183 5.11055 14.8483 5.09011C14.9199 5.04114 14.9904 4.99061 15.0607 4.93979C14.9432 4.8481 14.8226 4.77145 14.6933 4.69741C14.6316 4.66195 14.6316 4.66195 14.5687 4.62577C14.5243 4.60043 14.48 4.57508 14.4343 4.54897C14.3876 4.52213 14.3408 4.49527 14.294 4.46841C14.1969 4.41262 14.0998 4.35689 14.0026 4.30118C13.7805 4.17379 13.5588 4.04568 13.337 3.91764C13.0723 3.76487 12.8076 3.61217 12.5427 3.45965C12.4978 3.43376 12.4529 3.40788 12.4066 3.38121C12.3181 3.33025 12.2296 3.27933 12.1411 3.22845C11.9473 3.11681 11.754 3.0045 11.5625 2.88891C11.5309 2.86994 11.4994 2.85097 11.4669 2.83142C11.4096 2.79686 11.3525 2.76201 11.2956 2.72681C11.0318 2.56772 10.8939 2.62233 10.6439 2.77023ZM9.49357 3.41437C9.45453 3.43851 9.41548 3.46265 9.37525 3.48752C9.31131 3.52608 9.31131 3.52608 9.24608 3.56542C9.18027 3.60708 9.18027 3.60708 9.11314 3.64958C9.04594 3.69054 9.04594 3.69054 8.97739 3.73233C8.86675 3.79994 8.75675 3.8684 8.64716 3.93768C8.74771 4.05064 8.85958 4.11635 8.99085 4.19025C9.03615 4.2159 9.08144 4.24156 9.12811 4.268C9.16423 4.28828 9.16423 4.28828 9.20107 4.30897C9.32903 4.38085 9.45663 4.45338 9.58429 4.5258C9.6102 4.54047 9.63612 4.55515 9.66282 4.57027C9.90165 4.70564 10.1389 4.84361 10.3758 4.98238C10.7553 5.20446 11.1355 5.42539 11.517 5.64401C11.7201 5.76054 11.9222 5.87818 12.122 6.00046C12.1743 6.03211 12.1743 6.03211 12.2278 6.06439C12.2923 6.1035 12.3565 6.14318 12.4202 6.18353C12.4486 6.20057 12.4769 6.21762 12.5061 6.23517C12.5303 6.25024 12.5545 6.2653 12.5795 6.28083C12.7196 6.32102 12.8291 6.23632 12.9524 6.17291C12.9849 6.15486 13.0174 6.13681 13.051 6.11821C13.0865 6.09857 13.122 6.07894 13.1586 6.05871C13.1952 6.03835 13.2317 6.01799 13.2694 5.99702C13.3067 5.97635 13.3441 5.95568 13.3825 5.93439C13.4743 5.88355 13.566 5.83261 13.6577 5.78156C13.5997 5.6077 13.4686 5.56937 13.3145 5.48845C13.248 5.45253 13.1815 5.41651 13.1152 5.38041C13.0795 5.36107 13.0439 5.34173 13.0073 5.32181C12.8145 5.21546 12.6249 5.10383 12.4351 4.9924C11.9669 4.71816 11.4972 4.44675 11.027 4.17594C10.9098 4.10834 10.7926 4.0406 10.6756 3.97277C10.5802 3.91754 10.4849 3.86236 10.3895 3.80718C10.3224 3.76835 10.2554 3.72944 10.1884 3.69053C10.1475 3.66689 10.1066 3.64325 10.0645 3.61889C10.0287 3.59816 9.99298 3.57742 9.95613 3.55606C9.921 3.53649 9.88588 3.51692 9.84969 3.49676C9.8104 3.47211 9.77111 3.44746 9.73063 3.42206C9.61074 3.36265 9.61074 3.36265 9.49357 3.41437ZM8.2864 4.57903C8.26384 5.18072 8.24692 5.78238 8.23656 6.38441C8.23161 6.66403 8.22489 6.94339 8.21383 7.22284C8.20314 7.49291 8.19761 7.76266 8.19513 8.03296C8.19336 8.13569 8.1899 8.23841 8.18469 8.34102C8.15761 8.81732 8.15761 8.81732 8.2864 9.2689C8.5215 9.51308 8.82705 9.64985 9.13503 9.7807C9.28254 9.84494 9.41633 9.92252 9.55407 10.0055C9.63923 10.0539 9.72441 10.1024 9.80961 10.1508C10.3646 10.4668 10.9163 10.7883 11.4672 11.1114C11.5582 11.1648 11.6491 11.2181 11.7401 11.2714C11.8262 11.3218 11.9122 11.3723 11.9982 11.4228C12.0365 11.4452 12.0748 11.4677 12.1143 11.4908C12.1483 11.5107 12.1822 11.5306 12.2172 11.5512C12.2859 11.597 12.2859 11.597 12.3349 11.5938C12.3434 10.9865 12.3497 10.3792 12.3536 9.7718C12.3555 9.48978 12.358 9.2078 12.3621 8.9258C12.3661 8.65367 12.3682 8.38159 12.3691 8.10944C12.3698 8.00559 12.3711 7.90174 12.3731 7.7979C12.3757 7.65247 12.376 7.50719 12.3759 7.36174C12.3778 7.29726 12.3778 7.29726 12.3798 7.23147C12.3789 7.00512 12.3789 7.00512 12.256 6.82474C12.1644 6.76283 12.0735 6.7118 11.9742 6.66342C11.9353 6.64035 11.8965 6.61728 11.8565 6.59351C11.8225 6.57483 11.7885 6.55615 11.7535 6.5369C11.7145 6.51526 11.6754 6.49361 11.6351 6.47131C11.594 6.44872 11.553 6.42614 11.5107 6.40287C11.1295 6.19132 10.7514 5.97533 10.3753 5.75484C10.0292 5.55194 9.68168 5.35164 9.33385 5.15172C9.06514 4.99695 8.79783 4.84022 8.53434 4.67669C8.41894 4.60139 8.41894 4.60139 8.2864 4.57903ZM16.8763 4.66108C16.8322 4.68712 16.8322 4.68712 16.7873 4.71369C16.7565 4.73209 16.7258 4.75048 16.6941 4.76943C16.664 4.78721 16.6338 4.80498 16.6028 4.8233C16.5159 4.87487 16.4292 4.92657 16.3434 4.97988C16.3007 4.99888 16.258 5.01789 16.2141 5.03747C16.0859 5.15588 16.0851 5.17987 16.075 5.34658C16.0748 5.43265 16.0757 5.51873 16.0776 5.60479C16.0776 5.65035 16.0775 5.69591 16.0774 5.74285C16.0772 5.88857 16.0786 6.0342 16.0803 6.1799C16.0818 6.32545 16.0829 6.47096 16.0828 6.61652C16.0827 6.70709 16.0835 6.79766 16.0854 6.88821C16.0853 7.1929 16.0853 7.1929 15.9774 7.34445C15.8555 7.42979 15.7342 7.50787 15.6043 7.58066C15.5681 7.60116 15.5681 7.60116 15.5311 7.62208C15.4546 7.66526 15.3779 7.70799 15.3012 7.75071C15.2497 7.77964 15.1982 7.80861 15.1468 7.83761C15.0521 7.89094 14.9574 7.94406 14.8626 7.99703C14.7839 8.04151 14.706 8.08726 14.629 8.13456C14.4841 8.21892 14.3844 8.20264 14.2189 8.18662C14.1347 8.12501 14.1032 8.08937 14.0826 7.98647C14.0822 7.95612 14.0818 7.92577 14.0813 7.8945C14.0805 7.86 14.0797 7.8255 14.0789 7.78995C14.0786 7.75287 14.0784 7.71579 14.0781 7.67758C14.0774 7.6395 14.0767 7.60141 14.0759 7.56217C14.0738 7.44046 14.0724 7.31876 14.0711 7.19704C14.0697 7.11455 14.0684 7.03206 14.0669 6.94957C14.0635 6.7473 14.0608 6.54503 14.0585 6.34274C13.9229 6.39423 13.7987 6.45288 13.6734 6.52579C13.6398 6.54524 13.6063 6.56469 13.5717 6.58474C13.52 6.615 13.52 6.615 13.4673 6.64588C13.4322 6.66621 13.3971 6.68655 13.361 6.7075C13.1996 6.7933 13.1996 6.7933 13.0564 6.90392C13.0526 6.96478 13.0516 7.02581 13.0516 7.08679C13.0516 7.12631 13.0515 7.16582 13.0514 7.20654C13.0516 7.25025 13.0517 7.29396 13.0519 7.33899C13.0519 7.38474 13.0519 7.43049 13.0519 7.47762C13.0519 7.62967 13.0522 7.78171 13.0525 7.93375C13.0526 8.03884 13.0527 8.14393 13.0527 8.24902C13.0528 8.49788 13.0531 8.74674 13.0536 8.9956C13.054 9.27885 13.0542 9.5621 13.0544 9.84535C13.0548 10.4282 13.0555 11.011 13.0564 11.5938C13.1255 11.5562 13.1946 11.5185 13.2637 11.4809C13.3214 11.4495 13.3214 11.4495 13.3803 11.4174C13.563 11.3173 13.7445 11.2153 13.9258 11.1128C13.9654 11.0904 14.0049 11.068 14.0457 11.045C14.3694 10.8615 14.6911 10.6747 15.0122 10.4867C15.3545 10.2863 15.698 10.0879 16.042 9.89023C16.1215 9.84447 16.2004 9.79769 16.2787 9.74982C16.3816 9.68944 16.4837 9.64582 16.5957 9.60476C16.7934 9.52445 16.9688 9.43747 17.105 9.2689C17.2295 8.93558 17.184 8.55274 17.1715 8.20385C17.1702 8.09928 17.1693 7.9947 17.1686 7.89012C17.1665 7.64373 17.1609 7.39755 17.154 7.15125C17.1464 6.87063 17.1427 6.59001 17.1392 6.30932C17.1321 5.73245 17.1202 5.15575 17.105 4.57903C17.0045 4.57903 16.9625 4.60998 16.8763 4.66108ZM15.2371 5.61997C15.2112 5.63462 15.1852 5.64927 15.1585 5.66436C15.1088 5.69262 15.1088 5.69262 15.0581 5.72144C14.9532 5.78096 14.8482 5.84049 14.74 5.90182C14.74 6.35156 14.74 6.80131 14.74 7.26468C14.8061 7.23823 14.8723 7.21177 14.9404 7.18452C14.9812 7.16979 15.0221 7.15506 15.0641 7.13988C15.2092 7.07502 15.3094 7.01741 15.4214 6.90392C15.4822 6.66871 15.4672 6.44554 15.4515 6.20495C15.4491 6.14058 15.4469 6.0762 15.4449 6.01181C15.4396 5.85468 15.4313 5.69796 15.4214 5.54106C15.3515 5.54106 15.2969 5.58609 15.2371 5.61997Z" fill="white"/>
<path d="M8.11979 12.1995C8.16339 12.2127 8.16339 12.2127 8.20788 12.2262C8.52709 12.3248 8.84089 12.4386 9.15503 12.5521C9.82001 12.7915 10.4841 12.9964 11.1702 13.1666C11.2926 13.1972 11.4147 13.2285 11.5367 13.2608C11.5882 13.2744 11.5882 13.2744 11.6408 13.2883C11.7821 13.3327 11.8906 13.3961 12.0144 13.4778C12.0483 13.4993 12.0822 13.5208 12.1171 13.543C12.3492 13.7691 12.5166 14.0817 12.5475 14.4057C12.5477 14.4484 12.5479 14.4911 12.548 14.535C12.5487 14.5775 12.5494 14.62 12.55 14.6638C12.532 14.8335 12.4803 14.9637 12.4152 15.1213C12.8622 14.9132 13.2845 14.6695 13.7073 14.4164C14.0617 14.2042 14.4189 13.9975 14.7781 13.7935C15.0698 13.6278 15.3604 13.4602 15.6494 13.2897C17.3736 12.2739 17.3736 12.2739 18.3242 12.4831C18.6284 12.5791 18.8991 12.7649 19.0692 13.0369C19.2753 13.4597 19.3294 13.8674 19.1895 14.3196C18.9925 14.8243 18.5248 15.0781 18.0796 15.3442C17.9971 15.3941 17.9145 15.4439 17.8319 15.4938C17.7906 15.5187 17.7493 15.5436 17.7067 15.5693C17.528 15.6776 17.3503 15.7876 17.1727 15.8979C16.8608 16.0914 16.5485 16.2843 16.2358 16.4766C16.192 16.5035 16.1483 16.5305 16.1032 16.5582C16.014 16.613 15.9248 16.6679 15.8357 16.7227C15.6174 16.8569 15.3992 16.9912 15.1811 17.1255C15.0942 17.1789 15.0074 17.2324 14.9205 17.2858C14.8775 17.3123 14.8345 17.3387 14.7902 17.366C14.66 17.4462 14.5297 17.5263 14.3994 17.6065C14.3564 17.633 14.3133 17.6595 14.269 17.6868C14.1826 17.7399 14.0962 17.793 14.0098 17.8461C13.8089 17.9696 13.6082 18.0933 13.408 18.218C13.3379 18.2617 13.2677 18.3053 13.1975 18.3488C13.11 18.4032 13.0226 18.4576 12.9354 18.5123C12.0502 19.061 11.3154 19.2377 10.2908 19.0095C9.9998 18.9394 9.71127 18.8599 9.42253 18.7813C9.34054 18.7592 9.25855 18.7371 9.17656 18.715C8.96264 18.6573 8.74881 18.5994 8.53499 18.5413C8.31718 18.4823 8.09928 18.4235 7.8814 18.3647C7.56316 18.2788 7.24494 18.1928 6.9268 18.1065C6.89396 18.0976 6.86112 18.0887 6.82728 18.0796C6.79645 18.0712 6.76563 18.0628 6.73387 18.0542C6.69036 18.0424 6.69036 18.0424 6.64598 18.0304C6.56649 18.0083 6.48762 17.9846 6.40865 17.9608C6.23203 17.9138 6.08971 17.9232 5.92455 18.0059C5.85626 18.0457 5.78866 18.0866 5.72115 18.1276C5.69469 18.1276 5.66824 18.1276 5.64098 18.1276C5.66366 18.1697 5.68635 18.2118 5.70972 18.2552C6.06521 18.929 6.06521 18.929 5.95915 19.3151C5.82563 19.7275 5.44501 19.8982 5.08982 20.0867C5.03943 20.114 4.98906 20.1414 4.93872 20.1688C4.57127 20.3682 4.28962 20.4964 3.8602 20.3878C3.47977 20.2201 3.30233 19.7749 3.11567 19.4303C3.06254 19.3332 3.0092 19.2362 2.9558 19.1393C2.94237 19.1149 2.92895 19.0904 2.91511 19.0653C2.78321 18.8263 2.64554 18.5908 2.50689 18.3556C2.30754 18.0168 2.11587 17.6747 1.92899 17.3289C1.73686 16.9739 1.53625 16.6241 1.33522 16.2741C1.21996 16.0731 1.1055 15.8715 0.991197 15.6699C0.96955 15.6319 0.947903 15.5939 0.9256 15.5547C0.866667 15.4506 0.808475 15.3462 0.750691 15.2415C0.734234 15.2123 0.717777 15.183 0.700821 15.1529C0.565911 14.9019 0.555273 14.6826 0.590354 14.3998C0.710463 14.0032 1.15783 13.7944 1.49225 13.6081C1.53261 13.585 1.57296 13.5619 1.61454 13.5381C1.96793 13.3394 2.22776 13.2372 2.63465 13.3175C2.95429 13.4281 3.12839 13.7094 3.276 13.9989C3.276 14.0254 3.276 14.0518 3.276 14.0791C3.74577 13.8154 4.21417 13.5497 4.67896 13.2774C5.00289 13.0879 5.32741 12.8995 5.65351 12.7137C5.69006 12.6927 5.72662 12.6717 5.76429 12.6501C6.49946 12.2331 7.28116 11.9376 8.11979 12.1995ZM5.55611 13.5619C5.31879 13.7037 5.07894 13.8411 4.83929 13.9789C4.43709 14.2104 4.03614 14.444 3.63676 14.6803C3.84522 15.0843 4.07025 15.4771 4.30085 15.8688C4.46499 16.1487 4.62277 16.4315 4.77666 16.7171C4.93353 17.0083 5.09418 17.2926 5.28022 17.5664C5.30926 17.5505 5.3383 17.5345 5.36822 17.518C5.44806 17.4743 5.52802 17.4308 5.6081 17.3875C5.68981 17.343 5.77084 17.2972 5.85142 17.2508C6.07807 17.158 6.29728 17.211 6.52653 17.2729C6.55352 17.2801 6.5805 17.2872 6.6083 17.2946C6.69734 17.3184 6.78623 17.3427 6.87514 17.3669C6.93858 17.384 7.00203 17.401 7.06548 17.418C7.2333 17.463 7.401 17.5084 7.56868 17.5539C7.73347 17.5986 7.89837 17.6428 8.06326 17.6871C8.56355 17.8217 9.0637 17.9567 9.56341 18.0934C9.69999 18.1307 9.8366 18.1679 9.97322 18.2051C10.0688 18.2312 10.1644 18.2575 10.26 18.2838C10.3184 18.2997 10.3769 18.3157 10.4353 18.3316C10.486 18.3454 10.5366 18.3593 10.5887 18.3736C11.2343 18.5298 11.759 18.4108 12.3191 18.0755C12.3779 18.0395 12.4367 18.0034 12.4954 17.9673C12.5264 17.9483 12.5574 17.9294 12.5893 17.9099C12.8003 17.7808 13.0103 17.6501 13.2201 17.5191C13.4281 17.3895 13.637 17.2613 13.8457 17.133C13.9344 17.0785 14.0231 17.0239 14.1118 16.9694C14.156 16.9422 14.2003 16.915 14.2459 16.8869C14.4641 16.7527 14.6823 16.6184 14.9005 16.4841C14.9873 16.4307 15.0742 16.3773 15.161 16.3238C15.204 16.2974 15.247 16.2709 15.2913 16.2436C15.6821 16.0031 15.6821 16.0031 15.8124 15.9229C15.8991 15.8696 15.9858 15.8162 16.0725 15.7629C16.3366 15.6003 16.6008 15.4378 16.865 15.2754C16.9524 15.2216 17.0399 15.1677 17.1273 15.1138C17.3353 14.9855 17.5436 14.8578 17.7529 14.7317C17.7916 14.7082 17.8303 14.6847 17.8702 14.6605C17.9424 14.6167 18.0148 14.5731 18.0874 14.5299C18.2918 14.4053 18.4541 14.2956 18.5455 14.0647C18.5985 13.8133 18.5891 13.6273 18.468 13.3977C18.3299 13.2174 18.2085 13.1591 17.987 13.1171C17.2456 13.0444 16.5028 13.5737 15.8994 13.9369C15.6527 14.0854 15.4033 14.229 15.1535 14.3722C14.8071 14.5712 14.4623 14.7727 14.1189 14.9768C14.0494 15.0181 13.9799 15.0594 13.9103 15.1006C13.6764 15.2392 13.6764 15.2392 13.4429 15.3783C12.5616 15.9053 11.6795 15.9601 10.6885 15.7125C10.6498 15.7026 10.6112 15.6927 10.5714 15.6825C10.5249 15.6706 10.4784 15.6588 10.4306 15.6466C10.0756 15.5554 9.72203 15.4596 9.36882 15.3618C9.32997 15.3512 9.29112 15.3405 9.25109 15.3296C9.15492 15.3032 9.05891 15.2763 8.96297 15.249C8.91243 15.2347 8.8619 15.2204 8.80983 15.2057C8.69226 15.1631 8.61415 15.1305 8.52705 15.0411C8.49687 14.9186 8.50519 14.8041 8.52705 14.6803C8.58467 14.5952 8.58467 14.5952 8.68739 14.5601C8.93989 14.5665 9.18004 14.6286 9.42143 14.6977C9.45566 14.7073 9.48988 14.7168 9.52514 14.7266C9.63345 14.7569 9.74164 14.7875 9.84983 14.8181C9.95804 14.8486 10.0663 14.8789 10.1745 14.9092C10.2415 14.928 10.3085 14.9468 10.3754 14.9658C10.9727 15.1557 10.9727 15.1557 11.5684 15.0586C11.7589 14.9101 11.8399 14.7792 11.8741 14.5401C11.8401 14.3021 11.7524 14.1698 11.5752 14.0169C11.3878 13.8882 11.1872 13.858 10.9672 13.816C10.5103 13.7196 10.0701 13.5908 9.62687 13.4453C9.57947 13.4297 9.57947 13.4297 9.53112 13.4138C9.00794 13.2414 8.48841 13.0593 7.97236 12.8665C7.11188 12.5683 6.26826 13.1359 5.55611 13.5619ZM2.08052 14.0763C2.01375 14.1142 2.01375 14.1142 1.94563 14.1528C1.89889 14.18 1.85215 14.2072 1.80541 14.2344C1.75823 14.2613 1.71102 14.2882 1.66378 14.315C1.45622 14.4215 1.45622 14.4215 1.27179 14.5601C1.28725 14.7629 1.33358 14.904 1.43635 15.0784C1.47522 15.1452 1.47522 15.1452 1.51488 15.2134C1.54324 15.2612 1.57161 15.309 1.59998 15.3568C1.62929 15.4069 1.65854 15.4571 1.68774 15.5073C1.73253 15.5843 1.77734 15.6613 1.82232 15.7382C1.96276 15.9784 2.09866 16.2209 2.23381 16.4641C2.44527 16.8432 2.65978 17.2206 2.8757 17.5972C3.0462 17.8946 3.21521 18.1929 3.3821 18.4924C3.47301 18.6555 3.56442 18.8183 3.65598 18.9811C3.69512 19.0508 3.7341 19.1206 3.77287 19.1905C3.82123 19.2775 3.87039 19.364 3.91986 19.4504C3.93324 19.4749 3.94662 19.4994 3.9604 19.5247C4.01984 19.6265 4.05659 19.6835 4.16981 19.7234C4.30647 19.733 4.36769 19.6995 4.48636 19.6325C4.52496 19.611 4.56356 19.5895 4.60333 19.5674C4.64317 19.5445 4.68301 19.5216 4.72405 19.498C4.7642 19.4755 4.80435 19.4531 4.84571 19.43C4.99356 19.3469 5.13909 19.2639 5.28022 19.1698C5.32724 18.9296 5.19924 18.7608 5.0798 18.5635C5.03541 18.4881 4.99105 18.4126 4.94671 18.3371C4.92282 18.2968 4.89894 18.2565 4.87433 18.215C4.75569 18.0137 4.63995 17.8107 4.5242 17.6076C4.48319 17.5357 4.44212 17.4639 4.40103 17.3921C4.20155 17.0431 4.0048 16.6926 3.80888 16.3416C3.60483 15.9765 3.39811 15.6129 3.18969 15.2503C3.06261 15.0291 2.93651 14.8075 2.81347 14.5841C2.79162 14.5447 2.76977 14.5054 2.74725 14.4649C2.70668 14.3917 2.6665 14.3183 2.62681 14.2446C2.60893 14.2126 2.59106 14.1805 2.57265 14.1475C2.55742 14.1196 2.54219 14.0917 2.5265 14.0629C2.47809 13.9948 2.47809 13.9948 2.40259 13.9622C2.27063 13.9572 2.19427 14.011 2.08052 14.0763Z" fill="white"/>
<path d="M19.7905 2.37418C19.9103 2.47077 19.9113 2.53851 19.9333 2.69235C19.9385 2.77111 19.9385 2.77111 19.9108 2.85519C19.7044 3.06192 19.4442 3.20093 19.1943 3.34873C19.1521 3.37459 19.11 3.40046 19.0666 3.4271C18.8296 3.5673 18.6648 3.65923 18.3876 3.6168C18.2647 3.5349 18.2344 3.47888 18.1896 3.33871C18.1866 3.18823 18.2202 3.1366 18.3074 3.01553C18.3969 2.94749 18.3969 2.94749 18.5008 2.88761C18.5387 2.86547 18.5767 2.84332 18.6158 2.82051C18.6554 2.79806 18.695 2.77561 18.7358 2.75248C18.7746 2.72987 18.8135 2.70727 18.8535 2.68398C19.5305 2.2926 19.5305 2.2926 19.7905 2.37418Z" fill="white"/>
<path d="M6.12723 2.43188C6.16866 2.4561 6.21009 2.48031 6.25277 2.50526C6.29834 2.53172 6.34392 2.55817 6.39087 2.58543C6.41416 2.59926 6.43745 2.6131 6.46145 2.62735C6.53284 2.66973 6.60461 2.7114 6.67647 2.75297C7.07745 2.98771 7.07745 2.98771 7.16406 3.09557C7.20524 3.25441 7.22041 3.34053 7.15154 3.4914C7.05946 3.60734 7.01956 3.61418 6.87157 3.63733C6.62517 3.63399 6.42757 3.49251 6.22239 3.36858C6.15193 3.32605 6.08093 3.28456 6.00976 3.24322C5.61914 3.01252 5.61914 3.01252 5.48052 2.85506C5.44329 2.70499 5.46033 2.57188 5.53313 2.43668C5.71024 2.27268 5.92751 2.33992 6.12723 2.43188Z" fill="white"/>
<path d="M19.1095 5.18026C19.2825 5.21862 19.4527 5.26479 19.6231 5.31304C19.6674 5.3249 19.7117 5.33676 19.7574 5.34898C20.1782 5.4667 20.1782 5.4667 20.3121 5.62119C20.3492 5.74525 20.3397 5.85606 20.3121 5.98195C20.2369 6.08717 20.2369 6.08717 20.1117 6.14229C19.7993 6.14718 19.4949 6.05368 19.1972 5.96942C19.1529 5.95757 19.1086 5.94571 19.063 5.93349C18.6537 5.81899 18.6537 5.81899 18.5083 5.66128C18.4587 5.51565 18.4544 5.45116 18.5183 5.31054C18.6921 5.08704 18.8572 5.13725 19.1095 5.18026Z" fill="white"/>
<path d="M6.79597 5.20751C6.89469 5.31187 6.92026 5.3581 6.92374 5.50062C6.88096 5.66398 6.82386 5.73185 6.68323 5.8213C6.56214 5.86439 6.56214 5.86439 6.42175 5.90319C6.3709 5.91727 6.32006 5.93135 6.26767 5.94586C6.22809 5.95651 6.22809 5.95651 6.1877 5.96738C6.10742 5.98904 6.02737 6.0114 5.94731 6.03385C5.49288 6.15806 5.49288 6.15806 5.28028 6.14197C5.15668 6.06781 5.09433 6.01925 5.04228 5.88393C5.03925 5.75949 5.05976 5.6897 5.11994 5.58079C5.24826 5.46424 5.37612 5.42443 5.54177 5.37865C5.61804 5.35753 5.61804 5.35753 5.69584 5.33598C5.72224 5.32888 5.74863 5.32178 5.77582 5.31446C5.85609 5.29279 5.93615 5.27043 6.01621 5.24798C6.59827 5.08889 6.59827 5.08889 6.79597 5.20751Z" fill="white"/>
<path d="M8.44665 0.4502C8.58316 0.565104 8.63528 0.660302 8.68262 0.831001C8.69458 0.873165 8.70654 0.915329 8.71886 0.95877C8.73072 1.00259 8.74258 1.0464 8.7548 1.09155C8.77328 1.15728 8.77328 1.15728 8.79214 1.22433C8.9623 1.83197 8.9623 1.83197 8.92766 2.09366C8.85042 2.20809 8.79837 2.24285 8.66962 2.28907C8.54281 2.29525 8.47648 2.27759 8.36648 2.21391C8.21638 1.99677 8.16562 1.75437 8.09842 1.50241C8.08558 1.45663 8.07274 1.41085 8.05951 1.36368C7.98981 1.10509 7.94461 0.878449 7.96564 0.610537C8.07228 0.428364 8.24976 0.397902 8.44665 0.4502Z" fill="white"/>
<path d="M17.2653 0.450413C17.3655 0.508034 17.3655 0.508034 17.4257 0.61075C17.4505 0.926633 17.3778 1.19978 17.2929 1.50263C17.2805 1.54903 17.2681 1.59543 17.2554 1.64323C17.1448 2.04629 17.1448 2.04629 17.0248 2.21412C16.858 2.28967 16.7823 2.30838 16.6089 2.24419C16.5037 2.17404 16.5037 2.17404 16.4636 2.09387C16.4387 1.78395 16.508 1.5134 16.5918 1.21585C16.6141 1.13637 16.6352 1.05664 16.6562 0.976833C16.6702 0.926402 16.6841 0.87597 16.6985 0.824011C16.7111 0.778237 16.7237 0.732463 16.7367 0.685301C16.8385 0.440282 17.0232 0.407739 17.2653 0.450413Z" fill="white"/>
<path d="M2.39409 14.56C2.51685 14.6351 2.51685 14.6351 2.59451 14.7604C2.62964 14.9252 2.64196 15.0836 2.55145 15.2317C2.44385 15.3349 2.33592 15.3751 2.19116 15.3842C2.01885 15.3596 1.95264 15.3247 1.83291 15.2013C1.76874 15.073 1.77282 14.9397 1.79283 14.8005C1.95073 14.5531 2.11329 14.5193 2.39409 14.56Z" fill="white"/>
</svg>
