<svg width="21" height="15" viewBox="0 0 21 15" fill="none" xmlns="http://www.w3.org/2000/svg">
<g clip-path="url(#clip0_319_40)">
<path d="M19.5765 6.61321C19.8588 7.00906 19.9999 7.20704 19.9999 7.5C19.9999 7.79296 19.8588 7.99094 19.5765 8.38679C18.3079 10.1656 15.0684 14 10.7142 14C6.35991 14 3.12042 10.1656 1.85193 8.38679C1.56962 7.99094 1.42847 7.79296 1.42847 7.5C1.42847 7.20704 1.56962 7.00906 1.85193 6.61321C3.12042 4.83448 6.35991 1 10.7142 1C15.0684 1 18.3079 4.83448 19.5765 6.61321Z" stroke="black" stroke-width="1.3"/>
<path d="M13.4999 7.49959C13.4999 5.96104 12.2527 4.71387 10.7142 4.71387C9.17563 4.71387 7.92847 5.96104 7.92847 7.49959C7.92847 9.03814 9.17563 10.2853 10.7142 10.2853C12.2527 10.2853 13.4999 9.03814 13.4999 7.49959Z" stroke="black" stroke-width="1.3"/>
</g>
<defs>
<clipPath id="clip0_319_40">
<rect width="21" height="15" fill="white"/>
</clipPath>
</defs>
</svg>
