<svg width="19" height="19" viewBox="0 0 19 19" fill="none" xmlns="http://www.w3.org/2000/svg">
<path d="M15.9246 12.4696C16.7231 11.677 17.3397 10.8892 17.7426 10.3243C18.0051 9.95616 18.1364 9.77203 18.1364 9.49956C18.1364 9.22708 18.0051 9.04295 17.7426 8.67478C16.5627 7.02044 13.5498 3.4541 9.50001 3.4541C8.716 3.4541 7.97086 3.58776 7.27034 3.81533M4.96369 4.96324C3.22239 6.13759 1.93641 7.72276 1.2575 8.67478C0.994929 9.04295 0.863647 9.22708 0.863647 9.49956C0.863647 9.77203 0.994929 9.95616 1.2575 10.3243C2.43728 11.9787 5.45023 15.545 9.50001 15.545C11.2193 15.545 12.7517 14.9022 14.0363 14.0359" stroke="black" stroke-width="1.29545" stroke-linecap="round" stroke-linejoin="round"/>
<path d="M7.65 7.77246C7.19224 8.23019 6.90912 8.86263 6.90912 9.56114C6.90912 10.9582 8.0416 12.0906 9.43862 12.0906C10.1371 12.0906 10.7696 11.8075 11.2273 11.3497" stroke="black" stroke-width="1.29545" stroke-linecap="round"/>
<path d="M1.72729 1.72754L17.2727 17.273" stroke="black" stroke-width="1.29545" stroke-linecap="round" stroke-linejoin="round"/>
</svg>
