<svg width="21" height="19" viewBox="0 0 21 19" fill="none" xmlns="http://www.w3.org/2000/svg">
<path d="M13.0877 4.7421C13.1309 4.76315 13.1742 4.7842 13.2187 4.80589C13.7375 5.07246 14.1755 5.42016 14.5934 5.82311C14.6234 5.85073 14.6535 5.87835 14.6845 5.90681C15.4679 6.64717 15.964 7.70886 16.1859 8.75004C16.1922 8.77953 16.1985 8.80902 16.205 8.8394C16.5027 10.3106 16.1577 11.824 15.3655 13.0813C15.1619 13.3874 14.9228 13.6639 14.6706 13.9307C14.6418 13.962 14.613 13.9933 14.5833 14.0255C13.8237 14.8228 12.7726 15.3343 11.7051 15.5619C11.6608 15.5713 11.6608 15.5713 11.6157 15.5809C10.1495 15.8776 8.62544 15.5377 7.37378 14.7414C7.07016 14.5326 6.79202 14.2995 6.52442 14.0465C6.49311 14.0177 6.46181 13.9889 6.42956 13.9592C5.63227 13.1996 5.12084 12.1485 4.89325 11.081C4.8838 11.0367 4.8838 11.0367 4.87416 10.9916C4.6269 9.76936 4.82303 8.48192 5.36619 7.36741C5.38724 7.32416 5.4083 7.28092 5.42998 7.23636C5.69655 6.71765 6.04425 6.2796 6.4472 5.86172C6.47482 5.83166 6.50244 5.8016 6.5309 5.77063C8.1783 4.02741 10.9905 3.72003 13.0877 4.7421ZM7.64403 6.40222C7.61218 6.42955 7.58033 6.45687 7.54752 6.48502C6.66354 7.25445 6.07165 8.35106 5.98391 9.52943C5.92363 10.6551 6.19443 11.855 6.94955 12.7266C6.97488 12.7545 7.00022 12.7824 7.02631 12.8111C7.05364 12.8429 7.08096 12.8748 7.10911 12.9076C7.87855 13.7916 8.97516 14.3835 10.1535 14.4712C11.4597 14.5411 12.6523 14.1424 13.6306 13.2647C14.5077 12.4531 15.0555 11.3172 15.1037 10.1208C15.1324 9.0114 14.812 7.85516 14.0529 7.01994C14.0256 6.98809 13.9982 6.95624 13.9701 6.92343C13.2007 6.03945 12.104 5.44756 10.9257 5.35982C9.75429 5.29709 8.53061 5.59639 7.64403 6.40222Z" fill="white"/>
<path d="M10.8997 6.58532C11.0099 6.67754 11.066 6.73202 11.1193 6.86523C11.1282 6.98177 11.1262 7.09609 11.1193 7.21269C11.1687 7.21829 11.1687 7.21829 11.2192 7.224C11.3667 7.25455 11.4748 7.30702 11.6067 7.37919C11.6708 7.4136 11.6708 7.4136 11.7361 7.44871C11.8769 7.53654 11.9799 7.60846 12.0433 7.76466C12.0905 7.99421 12.0983 8.16841 11.9687 8.37092C11.8305 8.52185 11.697 8.59256 11.4933 8.61945C11.2372 8.6185 10.9996 8.47538 10.7719 8.37092C10.562 8.30096 10.3488 8.29291 10.1493 8.39263C10.0668 8.48509 10.0668 8.48509 10.0528 8.61945C10.0833 8.79313 10.1376 8.83628 10.27 8.95003C10.3895 9.01534 10.3895 9.01534 10.5209 9.06585C10.5444 9.07556 10.568 9.08527 10.5922 9.09527C10.7496 9.15959 10.909 9.21759 11.0687 9.27578C11.6284 9.4892 11.9708 9.79696 12.2242 10.3319C12.3961 10.7308 12.3705 11.2678 12.2127 11.6678C12.0073 12.0732 11.6544 12.4056 11.2352 12.5791C11.1969 12.5791 11.1587 12.5791 11.1193 12.5791C11.1211 12.6043 11.1229 12.6295 11.1248 12.6554C11.1342 12.8833 11.1245 13.02 10.9649 13.1969C10.8154 13.3172 10.6532 13.3569 10.463 13.3513C10.3023 13.3186 10.1862 13.2633 10.0624 13.1558C9.97435 12.9966 9.94887 12.8351 9.9225 12.6564C9.89488 12.6483 9.86725 12.6403 9.8388 12.6321C9.46043 12.5151 9.03493 12.3776 8.80288 12.0386C8.74692 11.8708 8.74432 11.7122 8.76427 11.5367C8.86516 11.3386 8.97813 11.2209 9.18895 11.1507C9.476 11.1188 9.64016 11.1906 9.89233 11.3256C10.1374 11.455 10.3824 11.4941 10.656 11.4595C10.8162 11.4095 10.9305 11.3438 11.0421 11.2182C11.0928 11.0789 11.1139 10.9477 11.0807 10.8032C10.9766 10.6069 10.8831 10.5333 10.6778 10.4533C10.6541 10.4438 10.6305 10.4344 10.6061 10.4246C10.533 10.3955 10.4595 10.3675 10.3858 10.3399C9.78302 10.1134 9.27037 9.88744 8.96334 9.28498C8.79995 8.90686 8.77141 8.46091 8.8994 8.06447C9.06925 7.67447 9.34852 7.39889 9.72946 7.21269C9.8388 7.1863 9.8388 7.1863 9.9225 7.17409C9.92628 7.14846 9.93006 7.12282 9.93396 7.09642C9.99555 6.7327 9.99555 6.7327 10.1541 6.59497C10.4106 6.44965 10.6363 6.44614 10.8997 6.58532Z" fill="white"/>
<path d="M18.8041 12.1262C18.9448 12.2427 19.0518 12.3527 19.0851 12.5384C19.0916 12.8074 19.0059 13.024 18.9028 13.2694C18.8853 13.3118 18.8678 13.3542 18.8498 13.3978C18.3986 14.4724 17.7537 15.4085 16.9483 16.247C16.9152 16.2816 16.8822 16.3163 16.8481 16.352C16.523 16.6853 16.1587 16.9677 15.79 17.2508C15.8063 17.269 15.8226 17.2871 15.8393 17.3058C15.8605 17.3299 15.8817 17.3539 15.9034 17.3787C15.9245 17.4024 15.9455 17.4262 15.9672 17.4506C16.0893 17.6086 16.0782 17.7941 16.0603 17.9843C15.995 18.1665 15.9112 18.2625 15.7514 18.3704C15.485 18.4592 15.2205 18.4049 14.957 18.33C14.9121 18.3177 14.9121 18.3177 14.8663 18.3051C14.8037 18.2878 14.7412 18.2703 14.6787 18.2526C14.5834 18.2256 14.4879 18.1996 14.3923 18.1738C14.3312 18.1567 14.27 18.1396 14.2089 18.1225C14.1806 18.1148 14.1523 18.1072 14.1231 18.0993C13.9533 18.0502 13.8325 17.9919 13.7052 17.8685C13.5404 17.5672 13.5825 17.3116 13.6684 16.9959C13.6766 16.9651 13.6848 16.9342 13.6933 16.9024C13.7106 16.8375 13.7282 16.7727 13.7459 16.7079C13.7727 16.6091 13.7987 16.5101 13.8247 16.4111C13.8417 16.3478 13.8588 16.2846 13.8759 16.2214C13.8836 16.192 13.8912 16.1626 13.8991 16.1323C13.9472 15.9595 14.0016 15.8377 14.1299 15.7065C14.3151 15.6051 14.4601 15.5677 14.6704 15.5907C14.869 15.6621 14.9742 15.7668 15.0951 15.9381C15.1224 16.0148 15.1484 16.092 15.1723 16.1698C15.353 16.0159 15.5331 15.8615 15.7128 15.7065C15.7486 15.6757 15.7843 15.645 15.8211 15.6133C16.3997 15.1049 16.8796 14.4852 17.2571 13.8147C17.2721 13.7881 17.2872 13.7615 17.3026 13.7341C17.5137 13.3561 17.6975 12.9769 17.8381 12.5667C17.9181 12.3477 18.0202 12.2003 18.2223 12.0774C18.4183 12.0164 18.6256 12.0171 18.8041 12.1262Z" fill="white"/>
<path d="M6.12279 1.5008C6.15269 1.509 6.18259 1.5172 6.21339 1.52565C6.276 1.54296 6.33855 1.56049 6.40103 1.57824C6.49632 1.60519 6.59184 1.63115 6.68742 1.65704C6.74857 1.67407 6.8097 1.69116 6.87081 1.70831C6.89912 1.71596 6.92744 1.72361 6.95661 1.73149C7.12647 1.7806 7.24726 1.83891 7.37451 1.96228C7.53907 2.26302 7.49727 2.51927 7.41267 2.83487C7.4005 2.88117 7.4005 2.88117 7.38809 2.9284C7.3709 2.99327 7.35353 3.0581 7.33599 3.12288C7.30942 3.22164 7.28392 3.32065 7.25847 3.41971C7.24156 3.48297 7.2246 3.54621 7.20757 3.60943C7.20012 3.63883 7.19267 3.66823 7.185 3.69853C7.11924 3.93473 7.0103 4.06183 6.80023 4.19427C6.61411 4.265 6.47576 4.26404 6.28868 4.19669C6.07466 4.05711 5.98089 3.90043 5.90743 3.66101C4.72287 4.64878 3.78651 5.76275 3.25732 7.23272C3.16919 7.46439 3.07291 7.62272 2.85744 7.7534C2.68043 7.81397 2.5205 7.80777 2.34347 7.75099C2.19908 7.64689 2.08864 7.52847 2.00807 7.36733C1.9817 7.0625 2.05962 6.84056 2.17698 6.5614C2.19445 6.51902 2.21193 6.47664 2.22993 6.43297C2.68138 5.35783 3.32665 4.42335 4.13148 3.58379C4.16602 3.54721 4.20056 3.51063 4.23615 3.47295C4.44677 3.25522 4.66781 3.063 4.90912 2.88077C5.0473 2.77613 5.1698 2.66669 5.28971 2.54139C5.24432 2.49839 5.24432 2.49839 5.19802 2.45452C5.06577 2.31598 5.0084 2.21726 5.00739 2.02501C5.01167 1.86201 5.04257 1.75227 5.13528 1.61481C5.43069 1.34155 5.76183 1.39819 6.12279 1.5008Z" fill="white"/>
<path d="M17.0646 3.81528C17.9743 4.22371 18.6178 5.80938 18.9544 6.6782C19.1865 7.30637 19.3512 7.94228 19.4583 8.60262C19.467 8.65365 19.4757 8.70467 19.4845 8.75569C19.5021 8.85901 19.5192 8.96237 19.5355 9.06591C19.5634 9.05311 19.5913 9.04032 19.6201 9.02715C19.7904 8.96676 19.941 8.98396 20.1146 9.0273C20.2629 9.10855 20.3607 9.21787 20.4235 9.37477C20.4364 9.4746 20.4364 9.4746 20.4379 9.58228C20.439 9.61762 20.4401 9.65295 20.4413 9.68936C20.4014 9.93607 20.2008 10.1108 20.03 10.2804C20.0074 10.3031 19.9847 10.3258 19.9614 10.3492C19.9138 10.3968 19.8661 10.4444 19.8184 10.4918C19.7452 10.5645 19.6725 10.6377 19.5998 10.7109C19.5534 10.7572 19.507 10.8035 19.4605 10.8498C19.4388 10.8717 19.4171 10.8936 19.3947 10.9161C19.2335 11.0754 19.1295 11.1183 18.9057 11.1242C18.8522 11.1263 18.8522 11.1263 18.7976 11.1285C18.5549 11.0927 18.382 10.8971 18.215 10.7298C18.1823 10.6974 18.1823 10.6974 18.149 10.6643C18.1034 10.6189 18.0578 10.5734 18.0124 10.5278C17.9429 10.4582 17.873 10.3891 17.803 10.3201C17.7585 10.2757 17.7141 10.2313 17.6697 10.1869C17.6384 10.1562 17.6384 10.1562 17.6065 10.1248C17.4421 9.9584 17.3798 9.84082 17.3614 9.60882C17.3682 9.39536 17.4457 9.26705 17.5906 9.11175C17.7344 9.00024 17.8902 8.98435 18.0684 8.98869C18.133 9.00014 18.1975 9.01268 18.2614 9.0273C18.0646 7.53224 17.5008 6.1715 16.5498 4.99872C16.3555 4.75854 16.2694 4.61425 16.279 4.30391C16.305 4.10552 16.405 4.00763 16.5482 3.87802C16.7255 3.79268 16.8713 3.78544 17.0646 3.81528Z" fill="white"/>
<path d="M2.17413 8.70652C2.20981 8.70508 2.2455 8.70364 2.28226 8.70215C2.52494 8.73794 2.69787 8.93363 2.86484 9.10089C2.8975 9.1333 2.8975 9.1333 2.93081 9.16636C2.97646 9.21178 3.02201 9.25731 3.06746 9.30293C3.13691 9.3725 3.20686 9.44155 3.27686 9.51057C3.32133 9.55495 3.36577 9.59936 3.41017 9.64381C3.43101 9.66429 3.45184 9.68476 3.4733 9.70586C3.63769 9.87229 3.70002 9.98987 3.71843 10.2219C3.71161 10.4353 3.63414 10.5636 3.4892 10.7189C3.34542 10.8305 3.18968 10.8463 3.01143 10.842C2.94682 10.8305 2.88237 10.818 2.81839 10.8034C3.01496 12.2966 3.58052 13.6611 4.53 14.8319C4.72434 15.0722 4.81039 15.2164 4.8008 15.5268C4.77483 15.7252 4.67485 15.8231 4.5316 15.9527C4.35435 16.038 4.20857 16.0452 4.01523 16.0154C3.07 15.591 2.43073 13.9383 2.08879 13.0426C1.8708 12.4495 1.72478 11.8506 1.62156 11.2281C1.61279 11.1769 1.604 11.1257 1.59517 11.0745C1.57765 10.9714 1.56061 10.8682 1.54435 10.7648C1.51603 10.7776 1.48771 10.7905 1.45854 10.8037C1.29862 10.8608 1.16693 10.8431 1.00384 10.8034C0.835577 10.7161 0.724802 10.6346 0.656374 10.4559C0.622032 10.1786 0.644162 10.0279 0.810804 9.7996C0.887183 9.71309 0.96796 9.63159 1.04984 9.55031C1.07248 9.52759 1.09513 9.50487 1.11846 9.48146C1.16603 9.43384 1.2137 9.38631 1.26145 9.33888C1.3346 9.26615 1.40733 9.19301 1.48003 9.11982C1.52643 9.07347 1.57285 9.02714 1.6193 8.98085C1.64102 8.95897 1.66274 8.9371 1.68511 8.91456C1.84634 8.75526 1.95038 8.7124 2.17413 8.70652Z" fill="white"/>
<path d="M7.46622 16.0056C7.60425 16.1239 7.67274 16.1996 7.6956 16.3842C7.70561 16.6226 7.68652 16.7611 7.52895 16.9419C7.50347 16.9673 7.47799 16.9928 7.45174 17.0191C8.75394 17.698 10.3941 17.8198 11.8228 17.5771C12.0409 17.5415 12.2631 17.5178 12.4659 17.6199C12.6301 17.748 12.7199 17.8618 12.7556 18.0695C12.7667 18.2805 12.7272 18.4421 12.5865 18.602C12.3769 18.7447 12.1536 18.7902 11.9061 18.8216C11.872 18.8262 11.8378 18.8308 11.8027 18.8356C10.1456 19.0543 8.48831 18.828 6.94984 18.1773C6.88555 18.1514 6.82123 18.1256 6.7568 18.1001C6.75999 18.1335 6.76317 18.167 6.76645 18.2014C6.75107 18.4091 6.65263 18.5168 6.50344 18.6551C6.31429 18.7445 6.1516 18.751 5.94604 18.7178C5.80105 18.6648 5.70806 18.5867 5.63632 18.449C5.5316 18.1823 5.44995 17.9103 5.37563 17.6338C5.35482 17.557 5.3331 17.4804 5.31136 17.4039C5.22268 17.082 5.15558 16.8109 5.32109 16.5027C5.47979 16.3122 5.63953 16.2524 5.87531 16.1884C5.90598 16.1799 5.93664 16.1714 5.96824 16.1627C6.03306 16.1448 6.09793 16.1272 6.16284 16.1097C6.26133 16.0831 6.35949 16.0554 6.45767 16.0276C6.52092 16.0104 6.58418 15.9932 6.64746 15.9761C6.67643 15.9678 6.7054 15.9595 6.73525 15.951C6.99372 15.8832 7.2258 15.881 7.46622 16.0056Z" fill="white"/>
<path d="M14.3237 1.73049C14.3224 1.69476 14.3211 1.65903 14.3198 1.62221C14.325 1.45914 14.375 1.39206 14.4781 1.2672C14.6195 1.13622 14.7316 1.10059 14.9197 1.09106C15.0911 1.09874 15.2157 1.12174 15.3453 1.23787C15.5616 1.48531 15.6214 1.88622 15.7049 2.19677C15.7257 2.2736 15.7474 2.35014 15.7691 2.42671C15.8578 2.74862 15.9249 3.0197 15.7594 3.32788C15.6007 3.51833 15.441 3.57818 15.2052 3.64217C15.1745 3.65067 15.1439 3.65916 15.1123 3.66792C15.0475 3.68574 14.9826 3.70338 14.9177 3.72085C14.8192 3.74752 14.721 3.77519 14.6228 3.80293C14.5596 3.82019 14.4963 3.83738 14.433 3.85451C14.4041 3.86279 14.3751 3.87107 14.3453 3.8796C14.0868 3.94735 13.8547 3.94961 13.6143 3.82495C13.4763 3.70664 13.4078 3.63094 13.3849 3.44642C13.3749 3.20802 13.394 3.06945 13.5516 2.88872C13.5898 2.8505 13.5898 2.8505 13.6288 2.8115C12.3079 2.12522 10.598 1.97944 9.1503 2.271C8.88565 2.29695 8.70663 2.28244 8.49397 2.11657C8.35446 1.95677 8.31362 1.79397 8.32506 1.58406C8.34968 1.43918 8.39706 1.33871 8.49397 1.2286C8.70366 1.08588 8.92692 1.04035 9.17443 1.00902C9.20855 1.00437 9.24268 0.999729 9.27784 0.994944C11.0267 0.764191 12.7058 1.05234 14.3237 1.73049Z" fill="white"/>
</svg>
