<svg width="39" height="43" viewBox="0 0 39 43" fill="none" xmlns="http://www.w3.org/2000/svg">
<path d="M33.5 19.5002C33.5 17.8652 33.5 16.3614 33.1956 15.6263C32.891 14.8913 32.313 14.3132 31.1568 13.1571L21.6838 3.68399C20.686 2.68623 20.1872 2.18733 19.569 1.89173C19.4404 1.83023 19.3088 1.77567 19.1744 1.72825C18.5282 1.50023 17.8228 1.50023 16.4116 1.50023C9.92164 1.50023 6.67662 1.50023 4.47866 3.27237C4.03462 3.63039 3.63016 4.03485 3.27214 4.47889C1.5 6.67685 1.5 9.92187 1.5 16.4119V25.5002C1.5 33.0426 1.5 36.814 3.84314 39.157C6.1863 41.5002 9.95752 41.5002 17.5 41.5002H33.5M19.5 2.50023V3.50023C19.5 9.15708 19.5 11.9855 21.2574 13.7429C23.0148 15.5002 25.8432 15.5002 31.5 15.5002H32.5" stroke="black" stroke-width="3" stroke-linecap="round" stroke-linejoin="round"/>
<path d="M37.5 25.5002H33.5C32.3954 25.5002 31.5 26.3956 31.5 27.5002V30.5002M31.5 30.5002V35.5002M31.5 30.5002H36.5M9.5 35.5002V31.5002M9.5 31.5002V25.5002H12.5C14.1569 25.5002 15.5 26.8434 15.5 28.5002C15.5 30.157 14.1569 31.5002 12.5 31.5002H9.5ZM20.5 25.5002H23.0714C24.965 25.5002 26.5 26.9926 26.5 28.8336V32.1668C26.5 34.0078 24.965 35.5002 23.0714 35.5002H20.5V25.5002Z" stroke="black" stroke-width="3" stroke-linecap="round" stroke-linejoin="round"/>
</svg>
