<svg width="25" height="25" viewBox="0 0 25 25" fill="none" xmlns="http://www.w3.org/2000/svg">
<path d="M16.1858 2.08005C16.3437 2.2085 16.4947 2.34318 16.645 2.48035C16.6836 2.51492 16.7222 2.54948 16.762 2.58509C17.7124 3.47998 18.3695 4.85404 18.441 6.1566C18.4682 7.62607 18.2479 8.85799 17.4179 10.0999C17.402 10.1158 17.386 10.1317 17.3696 10.1481C17.4187 10.1482 17.4678 10.1482 17.5184 10.1483C17.9811 10.1491 18.4439 10.1512 18.9066 10.1545C19.1445 10.1561 19.3824 10.1573 19.6203 10.1575C19.8499 10.1577 20.0795 10.1591 20.3091 10.1613C20.3967 10.1619 20.4843 10.1621 20.5719 10.1619C20.6946 10.1617 20.8173 10.1629 20.94 10.1645C20.9762 10.1641 21.0123 10.1637 21.0496 10.1633C21.2362 10.1674 21.3213 10.1884 21.4679 10.3071C21.5521 10.412 21.6331 10.5141 21.7064 10.6267C21.73 10.6626 21.7535 10.6984 21.7778 10.7353C21.8027 10.7739 21.8277 10.8125 21.8534 10.8523C21.8939 10.914 21.8939 10.914 21.9352 10.977C21.9934 11.066 22.0516 11.1551 22.1097 11.2442C22.2652 11.483 22.4216 11.7211 22.5781 11.9592C22.6104 12.0084 22.6427 12.0576 22.6759 12.1083C23.0865 12.7327 23.5064 13.351 23.9262 13.9693C23.9545 14.0111 23.9829 14.0528 24.012 14.0958C24.0644 14.1731 24.1169 14.2502 24.1694 14.3273C24.2383 14.4289 24.3066 14.5308 24.3746 14.633C24.3977 14.6675 24.4209 14.7019 24.4447 14.7374C24.4667 14.771 24.4886 14.8046 24.5112 14.8392C24.5308 14.8688 24.5504 14.8985 24.5705 14.9291C24.6558 15.0968 24.6439 15.2196 24.6161 15.4046C24.5143 15.5396 24.458 15.5914 24.2896 15.6207C24.213 15.6201 24.213 15.6201 24.1349 15.6194C24.0769 15.6194 24.0188 15.6194 23.9591 15.6194C23.8967 15.6184 23.8343 15.6174 23.77 15.6164C23.7052 15.616 23.6405 15.6157 23.5758 15.6155C23.4059 15.6148 23.2359 15.6129 23.0659 15.6108C22.8924 15.6088 22.7188 15.6079 22.5452 15.6069C22.2049 15.6049 21.8646 15.6016 21.5243 15.5975C21.5245 15.6441 21.5246 15.6906 21.5248 15.7386C21.5291 16.8703 21.5323 18.0021 21.5343 19.1338C21.5353 19.6811 21.5367 20.2284 21.5389 20.7757C21.5408 21.2527 21.542 21.7296 21.5425 22.2065C21.5427 22.4591 21.5433 22.7118 21.5447 22.9644C21.546 23.202 21.5464 23.4397 21.5461 23.6773C21.5462 23.7646 21.5466 23.852 21.5473 23.9393C21.5483 24.0584 21.5481 24.1774 21.5475 24.2964C21.5481 24.3311 21.5487 24.3658 21.5492 24.4016C21.5474 24.5546 21.5382 24.6455 21.4446 24.7691C21.2991 24.8813 21.219 24.8809 21.0362 24.881C20.9754 24.8815 20.9145 24.882 20.8518 24.8825C20.7842 24.8821 20.7165 24.8816 20.6489 24.8812C20.5771 24.8814 20.5053 24.8817 20.4336 24.8821C20.2361 24.8829 20.0386 24.8825 19.8411 24.8819C19.6282 24.8815 19.4154 24.8822 19.2025 24.8827C18.7854 24.8835 18.3683 24.8834 17.9511 24.8828C17.6122 24.8824 17.2733 24.8823 16.9344 24.8825C16.8862 24.8825 16.838 24.8826 16.7884 24.8826C16.6905 24.8827 16.5926 24.8827 16.4947 24.8828C15.5763 24.8833 14.6579 24.8827 13.7394 24.8817C12.9509 24.8808 12.1624 24.881 11.3739 24.8818C10.4588 24.8829 9.54371 24.8833 8.62863 24.8827C8.5311 24.8826 8.43358 24.8826 8.33605 24.8825C8.28806 24.8825 8.24007 24.8825 8.19063 24.8824C7.85201 24.8823 7.51339 24.8825 7.17477 24.883C6.76225 24.8835 6.34975 24.8834 5.93723 24.8824C5.72665 24.8819 5.51608 24.8817 5.3055 24.8823C5.11287 24.8829 4.92027 24.8826 4.72764 24.8815C4.65781 24.8813 4.58798 24.8814 4.51816 24.8819C4.42351 24.8825 4.32886 24.8818 4.23422 24.881C4.15524 24.8809 4.15524 24.8809 4.07467 24.8809C3.90574 24.8507 3.84858 24.7992 3.74613 24.6638C3.72755 24.5346 3.7208 24.4254 3.72289 24.2964C3.72273 24.2592 3.72256 24.222 3.72239 24.1837C3.72208 24.059 3.72314 23.9344 3.72419 23.8096C3.72425 23.7203 3.72422 23.6309 3.72411 23.5416C3.72405 23.2989 3.72519 23.0562 3.72654 22.8135C3.72774 22.5599 3.72786 22.3063 3.72809 22.0527C3.72869 21.5725 3.73028 21.0922 3.73221 20.6119C3.73437 20.0652 3.73544 19.5185 3.73641 18.9717C3.73843 17.847 3.74183 16.7223 3.74613 15.5975C3.71025 15.5981 3.67436 15.5986 3.63739 15.5991C3.29905 15.604 2.96072 15.6076 2.62235 15.61C2.44839 15.6113 2.27446 15.613 2.10052 15.6157C1.93262 15.6183 1.76475 15.6198 1.59683 15.6204C1.50166 15.6211 1.4065 15.6229 1.31135 15.6248C1.22433 15.6249 1.22433 15.6249 1.13554 15.6249C1.08448 15.6254 1.03341 15.626 0.9808 15.6265C0.847519 15.5975 0.847518 15.5975 0.734656 15.4851C0.625516 15.3104 0.622465 15.2225 0.654278 15.0188C0.725231 14.8671 0.816677 14.7324 0.911492 14.5946C0.938804 14.5536 0.966116 14.5126 0.994256 14.4703C1.08451 14.3351 1.17585 14.2008 1.26721 14.0664C1.33038 13.9723 1.39349 13.8781 1.45653 13.7839C1.62177 13.5374 1.78796 13.2916 1.95443 13.0459C2.11894 12.8029 2.28275 12.5594 2.44666 12.316C2.71052 11.9244 2.9749 11.5332 3.24027 11.1426C3.35397 10.9751 3.46719 10.8073 3.57825 10.6381C3.61291 10.5853 3.64758 10.5325 3.68329 10.4782C3.71229 10.4335 3.74129 10.3888 3.77117 10.3428C3.84275 10.2446 3.84275 10.2446 3.93937 10.1963C4.06463 10.1904 4.18867 10.1874 4.31399 10.1864C4.35264 10.186 4.39129 10.1855 4.43112 10.185C4.5592 10.1835 4.68729 10.1823 4.81537 10.1811C4.90405 10.1801 4.99273 10.1791 5.08141 10.178C5.31506 10.1754 5.54872 10.173 5.78238 10.1707C6.02071 10.1682 6.25903 10.1656 6.49736 10.1629C6.96517 10.1577 7.43299 10.1528 7.90081 10.1481C7.87754 10.1118 7.85427 10.0756 7.8303 10.0382C7.7998 9.99053 7.7693 9.94286 7.73788 9.89375C7.70764 9.84654 7.67739 9.79932 7.64623 9.75068C7.34565 9.27231 7.13585 8.76156 6.98292 8.21912C6.95966 8.13762 6.95966 8.13762 6.93593 8.05447C6.71619 7.11792 6.73896 6.0011 7.03123 5.0845C7.04637 5.03373 7.04637 5.03373 7.06182 4.98193C7.48112 3.58862 8.4555 2.34887 9.73943 1.6464C9.92858 1.54754 10.1213 1.45791 10.3163 1.37118C10.3673 1.34793 10.4182 1.32468 10.4707 1.30073C12.306 0.527624 14.6245 0.85166 16.1858 2.08005ZM9.44674 2.91438C9.41274 2.94036 9.37873 2.96635 9.3437 2.99312C8.47923 3.68837 7.85435 4.88957 7.71797 5.98309C7.59211 7.36402 7.8564 8.71092 8.74152 9.80997C8.84495 9.92593 8.95073 10.0379 9.06026 10.1481C9.10011 10.1899 9.13997 10.2317 9.18103 10.2747C9.22089 10.3125 9.26074 10.3503 9.30181 10.3892C9.3459 10.432 9.3459 10.432 9.39088 10.4757C10.0811 11.121 11.0167 11.5556 11.9558 11.6732C12.1531 11.7132 12.2246 11.8104 12.3393 11.9716C12.3911 12.0541 12.4414 12.1375 12.4903 12.2218C12.5173 12.2667 12.5443 12.3117 12.5722 12.358C12.593 12.3926 12.6138 12.4272 12.6352 12.4629C12.7642 12.3151 12.85 12.1753 12.9311 11.9987C13.0259 11.8262 13.0918 11.7571 13.2814 11.7004C13.3716 11.6798 13.4623 11.6608 13.5531 11.6431C14.3475 11.4666 15.0989 11.157 15.7271 10.6304C15.7685 10.5956 15.81 10.5609 15.8527 10.5251C16.8776 9.63334 17.471 8.45812 17.6112 7.10994C17.6856 5.7746 17.2916 4.47071 16.4005 3.45963C16.3375 3.38996 16.2739 3.32093 16.2102 3.25195C16.1821 3.22 16.154 3.18805 16.1251 3.15513C15.2614 2.22137 13.9475 1.77566 12.707 1.71182C11.4931 1.68087 10.375 2.16377 9.44674 2.91438ZM4.90558 10.9679C5.0697 11.2748 5.25032 11.5649 5.44661 11.8522C5.48927 11.9151 5.48927 11.9151 5.53279 11.9793C5.62449 12.1145 5.71643 12.2495 5.80837 12.3845C5.93469 12.5706 6.0609 12.7568 6.18712 12.9429C6.21818 12.9887 6.24925 13.0344 6.28125 13.0816C6.58179 13.5246 6.87919 13.9697 7.17534 14.4157C7.20725 14.4637 7.23915 14.5116 7.27202 14.5611C7.29928 14.6022 7.32654 14.6433 7.35463 14.6856C7.41096 14.7739 7.41096 14.7739 7.46602 14.8259C7.59829 14.8318 7.72938 14.8346 7.86171 14.8353C7.9037 14.8357 7.94568 14.8361 7.98894 14.8366C8.13076 14.8379 8.27258 14.8389 8.4144 14.8398C8.51564 14.8407 8.61687 14.8415 8.71811 14.8424C9.64333 14.8501 10.5686 14.8542 11.4938 14.8574C12.1781 14.8598 12.8623 14.8639 13.5465 14.8703C14.0272 14.8747 14.5079 14.877 14.9886 14.8778C15.2759 14.8784 15.5631 14.8798 15.8504 14.8835C16.1208 14.8869 16.3911 14.8878 16.6616 14.8868C16.7607 14.8869 16.8599 14.8879 16.959 14.8898C17.4853 14.9177 17.4853 14.9177 17.9456 14.7121C18.0457 14.5769 18.1187 14.4469 18.1909 14.2955C18.2431 14.2158 18.2964 14.1368 18.3511 14.0588C18.4035 13.9794 18.4558 13.8998 18.5079 13.8202C18.5364 13.7769 18.5649 13.7336 18.5943 13.689C18.6854 13.5507 18.7763 13.4122 18.8672 13.2737C18.9922 13.0838 19.1172 12.8939 19.2422 12.704C19.2726 12.6579 19.303 12.6117 19.3343 12.5641C19.5071 12.3017 19.6806 12.0397 19.8555 11.7787C19.8742 11.7508 19.8929 11.7229 19.9122 11.6941C19.995 11.5707 20.078 11.4474 20.1611 11.3242C20.1888 11.283 20.2165 11.2419 20.245 11.1995C20.2685 11.1647 20.2919 11.13 20.3161 11.0942C20.3691 11.0247 20.3691 11.0247 20.3648 10.9679C19.8852 10.9556 19.4057 10.9462 18.926 10.9404C18.7031 10.9377 18.4804 10.934 18.2576 10.9279C18.0421 10.9221 17.8267 10.919 17.6111 10.9176C17.5294 10.9166 17.4477 10.9147 17.366 10.9118C16.8067 10.8929 16.485 10.9786 16.0709 11.3636C16.0466 11.3863 16.0223 11.409 15.9974 11.4325C15.7752 11.6226 15.5024 11.7503 15.244 11.8842C15.2005 11.9069 15.157 11.9296 15.1122 11.953C14.8137 12.0984 14.5055 12.193 14.186 12.2803C14.1192 12.2987 14.0526 12.3179 13.9863 12.3379C13.8974 12.3646 13.8076 12.3886 13.7178 12.4124C13.4642 12.5644 13.3624 12.7927 13.224 13.0476C13.1695 13.1453 13.1149 13.2429 13.06 13.3404C13.0363 13.3836 13.0127 13.4269 12.9883 13.4715C12.9251 13.5721 12.9251 13.5721 12.8285 13.6203C12.481 13.6483 12.481 13.6483 12.3474 13.5525C12.2571 13.438 12.2036 13.3404 12.1421 13.2094C11.8874 12.6694 11.8874 12.6694 11.4127 12.338C11.1765 12.2643 10.9354 12.212 10.6937 12.1593C10.1515 12.0237 9.39808 11.6617 9.04042 11.2217C8.88778 11.0492 8.77004 10.9758 8.53996 10.9382C8.30978 10.9244 8.07987 10.9299 7.84948 10.935C7.76447 10.9356 7.67945 10.9361 7.59444 10.9364C7.37171 10.9377 7.14906 10.941 6.92636 10.9448C6.6987 10.9482 6.47103 10.9498 6.24335 10.9515C5.7974 10.9551 5.35149 10.9608 4.90558 10.9679ZM3.69782 11.9324C3.6538 11.9922 3.61214 12.0537 3.5714 12.1157C3.54491 12.1559 3.51843 12.196 3.49114 12.2374C3.46226 12.2815 3.43338 12.3257 3.40362 12.3712C3.37374 12.4165 3.34385 12.4619 3.31307 12.5087C3.21672 12.6551 3.1206 12.8016 3.0245 12.9482C2.93015 13.0917 2.83576 13.2352 2.74135 13.3787C2.67988 13.4722 2.61844 13.5657 2.55703 13.6592C2.35615 13.965 2.15383 14.2698 1.94845 14.5726C1.85444 14.6896 1.85444 14.6896 1.81372 14.8259C2.45142 14.8259 3.08911 14.8259 3.74613 14.8259C3.74613 13.8711 3.74613 12.9162 3.74613 11.9324C3.73019 11.9324 3.71425 11.9324 3.69782 11.9324ZM4.5191 11.9324C4.5191 15.9428 4.5191 19.9532 4.5191 24.0851C9.87573 24.0851 15.2324 24.0851 20.7513 24.0851C20.7513 20.0747 20.7513 16.0643 20.7513 11.9324C20.6339 12.0789 20.5247 12.2173 20.4206 12.3714C20.3952 12.4089 20.3698 12.4464 20.3436 12.485C20.3165 12.5251 20.2895 12.5653 20.2616 12.6066C20.233 12.649 20.2043 12.6913 20.1748 12.735C20.0821 12.8723 19.9894 13.0097 19.8968 13.1471C19.8333 13.2412 19.7698 13.3352 19.7063 13.4293C19.3204 14.0013 18.9377 14.5753 18.5653 15.1562C18.5209 15.2249 18.5209 15.2249 18.4757 15.295C18.4382 15.3536 18.4382 15.3536 18.3999 15.4134C18.3358 15.5011 18.3358 15.5011 18.2392 15.5493C18.0936 15.5544 17.949 15.5564 17.8034 15.5564C17.7577 15.5566 17.7119 15.5568 17.6648 15.5569C17.5107 15.5575 17.3566 15.5577 17.2024 15.5578C17.0923 15.5581 16.9822 15.5585 16.8721 15.5588C16.5722 15.5596 16.2724 15.5601 15.9725 15.5605C15.7854 15.5608 15.5983 15.5611 15.4111 15.5614C14.8932 15.5622 14.3752 15.5629 13.8573 15.5633C13.7228 15.5633 13.5884 15.5634 13.454 15.5635C13.4038 15.5636 13.4038 15.5636 13.3527 15.5636C12.8111 15.564 12.2696 15.5652 11.728 15.5668C11.1723 15.5684 10.6165 15.5692 10.0608 15.5694C9.74865 15.5695 9.43652 15.57 9.12437 15.5712C8.83087 15.5723 8.53737 15.5725 8.24386 15.572C8.13597 15.572 8.02807 15.5723 7.92018 15.5729C7.77321 15.5738 7.62629 15.5735 7.47931 15.5728C7.43633 15.5733 7.39335 15.5739 7.34907 15.5744C7.06009 15.5714 7.06009 15.5714 6.91101 15.4573C6.88691 15.424 6.86281 15.3907 6.83799 15.3564C6.80305 15.3094 6.80305 15.3094 6.76741 15.2614C6.74558 15.2281 6.72374 15.1947 6.70124 15.1604C6.67598 15.1221 6.65073 15.0838 6.62471 15.0443C6.59782 15.003 6.57092 14.9617 6.54322 14.9192C6.50046 14.8541 6.50046 14.8541 6.45683 14.7878C6.39584 14.6949 6.33494 14.602 6.27414 14.5091C6.17954 14.3644 6.08465 14.22 5.98968 14.0756C5.86383 13.8842 5.73806 13.6928 5.61235 13.5013C5.40017 13.1783 5.18723 12.8558 4.97303 12.5341C4.93619 12.4787 4.89942 12.4233 4.86272 12.3678C4.813 12.2927 4.76305 12.2177 4.71309 12.1427C4.68583 12.1016 4.65857 12.0606 4.63048 12.0183C4.60967 11.99 4.58885 11.9616 4.56741 11.9324C4.55146 11.9324 4.53552 11.9324 4.5191 11.9324ZM21.5243 11.9324C21.5243 12.8873 21.5243 13.8421 21.5243 14.8259C22.162 14.8259 22.7997 14.8259 23.4567 14.8259C23.2689 14.4842 23.2689 14.4842 23.063 14.1584C23.0221 14.098 23.0221 14.098 22.9804 14.0365C22.9517 13.9946 22.9231 13.9526 22.8936 13.9095C22.8634 13.865 22.8332 13.8205 22.8021 13.7746C22.7065 13.6336 22.6106 13.4928 22.5146 13.3521C22.4188 13.2111 22.3229 13.07 22.2272 12.929C22.1678 12.8416 22.1084 12.7542 22.0489 12.667C21.8999 12.4478 21.7555 12.2272 21.6189 12.0001C21.6036 11.9778 21.5883 11.9554 21.5726 11.9324C21.5567 11.9324 21.5407 11.9324 21.5243 11.9324Z" fill="black"/>
<path d="M13.4862 18.6593C13.5415 18.6587 13.5968 18.6582 13.6537 18.6576C13.7444 18.6582 13.7444 18.6582 13.8368 18.6588C13.9013 18.6585 13.9657 18.6582 14.0302 18.6578C14.2051 18.6569 14.3799 18.6572 14.5548 18.6579C14.7378 18.6583 14.9208 18.6579 15.1039 18.6576C15.4112 18.6572 15.7185 18.6577 16.0259 18.6586C16.3812 18.6597 16.7365 18.6593 17.0919 18.6583C17.3969 18.6574 17.702 18.6573 18.0071 18.6578C18.1893 18.6581 18.3715 18.6581 18.5537 18.6575C18.7251 18.6569 18.8963 18.6573 19.0676 18.6584C19.1605 18.6588 19.2533 18.6582 19.3462 18.6576C19.4291 18.6584 19.4291 18.6584 19.5137 18.6593C19.5617 18.6593 19.6097 18.6594 19.6592 18.6595C19.8217 18.6908 19.8789 18.7465 19.9783 18.8767C19.9973 19.0188 20.0047 19.143 20.0033 19.2851C20.0036 19.3262 20.004 19.3673 20.0043 19.4097C20.0052 19.5455 20.0046 19.6812 20.0039 19.8171C20.0041 19.9115 20.0043 20.0059 20.0045 20.1003C20.0048 20.2981 20.0044 20.4959 20.0035 20.6938C20.0024 20.9474 20.003 21.201 20.0042 21.4546C20.0049 21.6496 20.0046 21.8445 20.0041 22.0395C20.004 22.133 20.0042 22.2265 20.0046 22.32C20.0051 22.4507 20.0044 22.5814 20.0033 22.7121C20.0037 22.7507 20.0041 22.7894 20.0045 22.8293C20.002 22.9915 19.9972 23.0957 19.8971 23.2268C19.7583 23.334 19.6877 23.3376 19.5137 23.3379C19.4584 23.3384 19.4031 23.3389 19.3462 23.3395C19.2858 23.3391 19.2253 23.3387 19.163 23.3383C19.0986 23.3386 19.0342 23.3389 18.9697 23.3393C18.7948 23.3402 18.62 23.3399 18.4451 23.3393C18.2621 23.3388 18.0791 23.3392 17.896 23.3395C17.5887 23.3399 17.2813 23.3394 16.974 23.3385C16.6187 23.3375 16.2634 23.3378 15.908 23.3389C15.6029 23.3397 15.2979 23.3399 14.9928 23.3394C14.8106 23.3391 14.6284 23.339 14.4461 23.3397C14.2748 23.3402 14.1036 23.3398 13.9322 23.3387C13.8394 23.3383 13.7465 23.3389 13.6537 23.3395C13.5708 23.3387 13.5708 23.3387 13.4862 23.3379C13.4382 23.3378 13.3902 23.3377 13.3407 23.3376C13.1782 23.3063 13.121 23.2506 13.0216 23.1205C13.0025 22.9783 12.9952 22.8542 12.9966 22.7121C12.9963 22.6709 12.9959 22.6298 12.9956 22.5875C12.9947 22.4517 12.9953 22.3159 12.9959 22.1801C12.9958 22.0857 12.9956 21.9913 12.9954 21.8968C12.9951 21.699 12.9955 21.5012 12.9964 21.3034C12.9975 21.0497 12.9969 20.7961 12.9957 20.5425C12.995 20.3475 12.9952 20.1526 12.9958 19.9577C12.9959 19.8641 12.9957 19.7706 12.9953 19.6771C12.9948 19.5464 12.9955 19.4158 12.9966 19.2851C12.9962 19.2464 12.9958 19.2077 12.9954 19.1678C12.9979 19.0056 13.0027 18.9015 13.1028 18.7703C13.2416 18.6631 13.3122 18.6595 13.4862 18.6593ZM13.7946 19.4554C13.7946 20.4739 13.7946 21.4924 13.7946 22.5418C15.5801 22.5418 17.3657 22.5418 19.2053 22.5418C19.2053 21.5233 19.2053 20.5047 19.2053 19.4554C17.4198 19.4554 15.6342 19.4554 13.7946 19.4554Z" fill="black"/>
<path d="M10.8118 5.15614C10.8731 5.15553 10.9344 5.15492 10.9975 5.1543C11.0642 5.15464 11.1309 5.15504 11.1976 5.15548C11.2662 5.15535 11.3347 5.15516 11.4033 5.15492C11.5469 5.15464 11.6905 5.15505 11.8341 5.15595C12.018 5.15705 12.2019 5.15642 12.3858 5.15526C12.5273 5.15456 12.6689 5.15479 12.8105 5.15529C12.8783 5.15542 12.9461 5.15526 13.0139 5.15481C13.1087 5.15432 13.2035 5.1552 13.2983 5.15614C13.3522 5.15629 13.4061 5.15645 13.4617 5.1566C13.601 5.1811 13.601 5.1811 13.7152 5.26114C13.8157 5.40463 13.8177 5.48721 13.8162 5.66151C13.8162 5.71943 13.8162 5.77734 13.8161 5.83701C13.8151 5.89931 13.8141 5.9616 13.8131 6.02579C13.8128 6.09039 13.8125 6.15498 13.8123 6.21958C13.8116 6.38925 13.8097 6.5589 13.8075 6.72856C13.8055 6.90182 13.8047 7.07509 13.8037 7.24836C13.8016 7.58809 13.7983 7.92779 13.7942 8.26749C13.8225 8.26648 13.8508 8.26547 13.8799 8.26443C14.0083 8.26041 14.1368 8.25791 14.2653 8.25544C14.332 8.25301 14.332 8.25301 14.4 8.25054C14.7216 8.24589 14.7216 8.24589 14.8864 8.33757C14.9872 8.52157 14.9813 8.68771 14.9794 8.89442C14.9796 8.95754 14.9796 8.95754 14.9799 9.02195C14.98 9.1108 14.9797 9.19965 14.9789 9.2885C14.9779 9.42443 14.9789 9.56023 14.9801 9.69615C14.98 9.78256 14.9797 9.86896 14.9794 9.95536C14.9797 9.99596 14.9801 10.0366 14.9805 10.0784C14.9799 10.1164 14.9793 10.1543 14.9787 10.1935C14.9785 10.2267 14.9784 10.26 14.9782 10.2943C14.9402 10.4419 14.8847 10.4939 14.7605 10.5823C14.618 10.6013 14.4937 10.6087 14.3513 10.6072C14.3101 10.6076 14.269 10.6079 14.2265 10.6083C14.0905 10.6091 13.9545 10.6086 13.8184 10.6079C13.7238 10.608 13.6293 10.6082 13.5347 10.6085C13.3365 10.6088 13.1383 10.6083 12.9401 10.6074C12.6861 10.6063 12.432 10.607 12.1779 10.6081C11.9826 10.6088 11.7874 10.6086 11.5921 10.6081C11.4984 10.608 11.4047 10.6081 11.311 10.6086C11.1801 10.6091 11.0492 10.6083 10.9183 10.6072C10.8601 10.6078 10.8601 10.6078 10.8008 10.6084C10.6311 10.6058 10.5285 10.596 10.3885 10.4965C10.311 10.3822 10.2915 10.3296 10.2909 10.1935C10.29 10.1365 10.29 10.1365 10.2891 10.0784C10.2895 10.0378 10.2898 9.99719 10.2902 9.95536C10.2901 9.91328 10.2899 9.87119 10.2897 9.82783C10.2896 9.73898 10.2899 9.65012 10.2907 9.56128C10.2918 9.42535 10.2907 9.28955 10.2895 9.15362C10.2896 9.06722 10.2899 8.98082 10.2902 8.89442C10.2899 8.85382 10.2895 8.81323 10.2891 8.7714C10.292 8.59008 10.2954 8.49039 10.3997 8.33799C10.526 8.25661 10.5903 8.24484 10.7394 8.24865C10.7824 8.24928 10.8253 8.2499 10.8696 8.25054C10.9363 8.25296 10.9363 8.25296 11.0043 8.25544C11.0722 8.25674 11.0722 8.25674 11.1413 8.25807C11.2527 8.26034 11.364 8.2638 11.4754 8.26749C11.4754 8.01287 11.4754 7.75824 11.4754 7.49589C11.3741 7.49925 11.3741 7.49925 11.2708 7.50268C11.182 7.50449 11.0932 7.50624 11.0043 7.50795C10.9376 7.51037 10.9376 7.51037 10.8696 7.51285C10.8266 7.51347 10.7837 7.51409 10.7394 7.51473C10.6802 7.51625 10.6802 7.51625 10.6198 7.51779C10.4585 7.48586 10.4089 7.43874 10.3159 7.30299C10.2877 7.15823 10.2888 7.01609 10.2902 6.86897C10.2901 6.82689 10.2899 6.7848 10.2897 6.74144C10.2896 6.65259 10.2899 6.56373 10.2907 6.47488C10.2918 6.33896 10.2907 6.20315 10.2895 6.06723C10.2896 5.98083 10.2899 5.89443 10.2902 5.80802C10.2899 5.76743 10.2895 5.72684 10.2891 5.68501C10.2897 5.64703 10.2903 5.60905 10.2909 5.56991C10.2911 5.53665 10.2912 5.5034 10.2914 5.46913C10.362 5.19531 10.5577 5.15686 10.8118 5.15614ZM11.0889 5.9527C11.0889 6.20733 11.0889 6.46195 11.0889 6.7243C11.1569 6.7261 11.225 6.7279 11.2951 6.72976C11.3844 6.73293 11.4737 6.73613 11.5629 6.73937C11.6078 6.74045 11.6527 6.74154 11.6989 6.74266C11.742 6.74437 11.7851 6.74608 11.8296 6.74784C11.8891 6.74974 11.8891 6.74974 11.9499 6.75167C12.0802 6.7775 12.1174 6.81497 12.2 6.9172C12.2144 7.06422 12.2203 7.20117 12.2193 7.34821C12.2194 7.39047 12.2195 7.43274 12.2197 7.47629C12.2198 7.56563 12.2195 7.65498 12.2189 7.74432C12.2181 7.88118 12.2189 8.01798 12.2198 8.15484C12.2197 8.24162 12.2195 8.3284 12.2193 8.41518C12.2197 8.47667 12.2197 8.47667 12.2201 8.53941C12.2167 8.82551 12.2167 8.82551 12.1329 8.92918C12.0294 9.01121 11.9608 9.01137 11.8296 9.01554C11.7864 9.01725 11.7433 9.01896 11.6989 9.02072C11.654 9.02181 11.6091 9.0229 11.5629 9.02402C11.5175 9.02567 11.4721 9.02732 11.4253 9.02901C11.3131 9.03299 11.201 9.03612 11.0889 9.03909C11.0889 9.29372 11.0889 9.54835 11.0889 9.81069C12.1092 9.81069 13.1295 9.81069 14.1807 9.81069C14.1807 9.55606 14.1807 9.30143 14.1807 9.03909C14.1127 9.03729 14.0446 9.03549 13.9745 9.03363C13.8852 9.03046 13.7959 9.02726 13.7067 9.02402C13.6618 9.02293 13.6169 9.02184 13.5707 9.02072C13.5276 9.01901 13.4845 9.0173 13.44 9.01554C13.3805 9.01365 13.3805 9.01365 13.3197 9.01172C13.1868 8.98538 13.151 8.95365 13.0696 8.84619C13.0503 8.71895 13.0503 8.71895 13.0487 8.56415C13.0478 8.50623 13.0468 8.44832 13.0458 8.38864C13.0455 8.3261 13.0452 8.26355 13.0449 8.19911C13.0441 8.13444 13.0432 8.06978 13.0422 8.00511C13.04 7.83506 13.0385 7.66501 13.0372 7.49494C13.0358 7.32135 13.0336 7.14777 13.0314 6.97418C13.0271 6.63369 13.0243 6.29322 13.0213 5.9527C12.3836 5.9527 11.7459 5.9527 11.0889 5.9527Z" fill="black"/>
<path d="M13.1875 2.55268C13.4689 2.72243 13.6969 2.98621 13.7944 3.30017C13.8333 3.67806 13.8487 4.0534 13.6011 4.36111C13.369 4.60442 13.1585 4.77612 12.8151 4.81134C12.4037 4.81587 12.1192 4.80082 11.8154 4.51201C11.507 4.17907 11.4523 3.91736 11.4608 3.46632C11.4944 3.08717 11.671 2.88786 11.9539 2.64649C12.2952 2.41176 12.8085 2.38505 13.1875 2.55268ZM12.3753 3.37853C12.2732 3.5274 12.2672 3.60535 12.2968 3.78242C12.3692 3.90298 12.3692 3.90298 12.49 3.97532C12.6674 4.00483 12.7455 3.9988 12.8946 3.89695C12.9966 3.74809 13.0027 3.67013 12.9731 3.49307C12.9006 3.3725 12.9006 3.3725 12.7799 3.30017C12.6025 3.27066 12.5244 3.27668 12.3753 3.37853Z" fill="black"/>
<path d="M17.6592 20.2271C17.9143 20.2271 18.1693 20.2271 18.4321 20.2271C18.4321 20.7363 18.4321 21.2456 18.4321 21.7702C18.1771 21.7702 17.922 21.7702 17.6592 21.7702C17.6592 21.261 17.6592 20.7517 17.6592 20.2271Z" fill="black"/>
<path d="M16.1133 20.2271C16.3684 20.2271 16.6234 20.2271 16.8862 20.2271C16.8862 20.7363 16.8862 21.2456 16.8862 21.7702C16.6312 21.7702 16.3761 21.7702 16.1133 21.7702C16.1133 21.261 16.1133 20.7517 16.1133 20.2271Z" fill="black"/>
<path d="M14.5674 20.2271C14.8225 20.2271 15.0775 20.2271 15.3403 20.2271C15.3403 20.7363 15.3403 21.2456 15.3403 21.7702C15.0853 21.7702 14.8302 21.7702 14.5674 21.7702C14.5674 21.261 14.5674 20.7517 14.5674 20.2271Z" fill="black"/>
</svg>
