<svg width="40" height="40" viewBox="0 0 40 40" fill="none" xmlns="http://www.w3.org/2000/svg">
<path fill-rule="evenodd" clip-rule="evenodd" d="M6.61976 9.97268C5.2546 10.1556 4.53167 10.4902 4.01677 11.0034C3.50186 11.5166 3.16614 12.2371 2.9826 13.5977C2.79366 14.9984 2.7907 16.8547 2.7907 19.5164C2.7907 22.178 2.79366 24.0343 2.9826 25.4349C3.16614 26.7955 3.50186 27.5161 4.01678 28.0293C4.78067 28.7906 5.96825 29.1324 8.87923 29.2198L8.79519 32C5.92591 31.9138 3.66578 31.613 2.04344 29.996C0.923611 28.8799 0.441936 27.4746 0.216789 25.8055C-6.8292e-05 24.198 -3.73094e-05 22.154 1.01502e-06 19.6181V19.4146C-3.73094e-05 16.8787 -6.8292e-05 14.8347 0.216789 13.2271C0.441936 11.5581 0.923599 10.1528 2.04344 9.03664C3.16329 7.92053 4.57329 7.44047 6.24791 7.21607C7.86087 6.99993 9.9117 6.99996 12.4561 7H27.5439C30.0883 6.99996 32.1391 6.99993 33.752 7.21607C35.4267 7.44047 36.8367 7.92053 37.9565 9.03663C39.0764 10.1528 39.5581 11.5581 39.7832 13.2271C40.0001 14.8347 40 16.8787 40 19.4146V19.6181C40 22.154 40.0001 24.198 39.7832 25.8055C39.5581 27.4746 39.0764 28.8799 37.9565 29.996C36.3342 31.613 34.0742 31.9138 31.2048 32L31.1208 29.2198C34.0318 29.1324 35.2193 28.7906 35.9832 28.0293C36.4981 27.5161 36.8339 26.7955 37.0174 25.4349C37.2063 24.0343 37.2093 22.178 37.2093 19.5164C37.2093 16.8547 37.2063 14.9984 37.0174 13.5977C36.8339 12.2371 36.4981 11.5166 35.9832 11.0034C35.4683 10.4902 34.7453 10.1556 33.3802 9.97268C31.9749 9.78437 30.1124 9.78141 27.4419 9.78141H12.5581C9.8876 9.78141 8.02506 9.78437 6.61976 9.97268Z" fill="#1C274C"/>
<path fill-rule="evenodd" clip-rule="evenodd" d="M7 16C7 15.4477 7.67157 15 8.5 15H14.5C15.3284 15 16 15.4477 16 16C16 16.5523 15.3284 17 14.5 17H8.5C7.67157 17 7 16.5523 7 16Z" fill="#1C274C"/>
<path fill-rule="evenodd" clip-rule="evenodd" d="M5 23.5C5 22.6716 5.62825 22 6.40323 22H32.5968C33.3718 22 34 22.6716 34 23.5C34 24.3284 33.3718 25 32.5968 25H6.40323C5.62825 25 5 24.3284 5 23.5Z" fill="#1C274C"/>
<path d="M32 23.7209C32 22.9503 31.3781 22.3256 30.6111 22.3256C29.8441 22.3256 29.2222 22.9503 29.2222 23.7209H32ZM9.77778 23.7209C9.77778 22.9503 9.15595 22.3256 8.38889 22.3256C7.62183 22.3256 7 22.9503 7 23.7209H9.77778ZM29.2222 27.4419C29.2222 30.1124 29.2193 31.9749 29.0313 33.3803C28.8485 34.7455 28.5144 35.4683 28.0019 35.9832L29.9661 37.9566C31.0807 36.8367 31.5602 35.4268 31.7843 33.7522C32.003 32.1176 32 30.0335 32 27.4419H29.2222ZM19.5 40C22.0796 40 24.1541 40.003 25.7811 39.7832C27.448 39.5581 28.8513 39.0765 29.9661 37.9566L28.0019 35.9832C27.4893 36.4982 26.7698 36.8339 25.4109 37.0175C24.012 37.2063 22.1581 37.2093 19.5 37.2093V40ZM19.5 2.7907C22.1581 2.7907 24.012 2.79366 25.4109 2.98261C26.7698 3.16614 27.4893 3.50186 28.0019 4.01676L29.9661 2.04344C28.8513 0.923592 27.448 0.441937 25.7811 0.216783C24.1541 -0.00295602 22.0796 2.0332e-06 19.5 2.0332e-06V2.7907ZM19.5 2.0332e-06C16.9204 2.0332e-06 14.8459 -0.00295602 13.219 0.216783C11.5521 0.441937 10.1486 0.923592 9.03398 2.04344L10.9982 4.01676C11.5107 3.50186 12.2303 3.16614 13.5891 2.98261C14.9879 2.79366 16.8419 2.7907 19.5 2.7907V2.0332e-06ZM7 27.4419C7 30.0335 6.99706 32.1176 7.21578 33.7522C7.43989 35.4268 7.91932 36.8367 9.03398 37.9566L10.9982 35.9832C10.4856 35.4683 10.1515 34.7455 9.9688 33.3803C9.78072 31.9749 9.77778 30.1124 9.77778 27.4419H7ZM19.5 37.2093C16.8419 37.2093 14.9879 37.2063 13.5891 37.0175C12.2303 36.8339 11.5107 36.4982 10.9982 35.9832L9.03398 37.9566C10.1486 39.0765 11.5521 39.5581 13.219 39.7832C14.8459 40.003 16.9204 40 19.5 40V37.2093ZM31.9672 8.79518C31.8813 5.92597 31.5809 3.66581 29.9661 2.04344L28.0019 4.01676C28.7622 4.78065 29.1035 5.96819 29.1907 8.87924L31.9672 8.79518ZM9.80922 8.87924C9.89654 5.96819 10.2378 4.78065 10.9982 4.01676L9.03398 2.04344C7.41913 3.66581 7.11876 5.92597 7.03271 8.79518L9.80922 8.87924ZM32 27.4419V23.7209H29.2222V27.4419H32ZM9.77778 27.4419V23.7209H7V27.4419H9.77778Z" fill="#1C274C"/>
<path d="M29 18C30.1046 18 31 17.1046 31 16C31 14.8954 30.1046 14 29 14C27.8954 14 27 14.8954 27 16C27 17.1046 27.8954 18 29 18Z" fill="#1C274C"/>
<path fill-rule="evenodd" clip-rule="evenodd" d="M13 28.5C13 27.6716 13.6268 27 14.4 27H25.6C26.3732 27 27 27.6716 27 28.5C27 29.3284 26.3732 30 25.6 30H14.4C13.6268 30 13 29.3284 13 28.5Z" fill="#1C274C"/>
<path fill-rule="evenodd" clip-rule="evenodd" d="M13 33C13 32.4477 13.6105 32 14.3636 32H21.6364C22.3895 32 23 32.4477 23 33C23 33.5523 22.3895 34 21.6364 34H14.3636C13.6105 34 13 33.5523 13 33Z" fill="#1C274C"/>
</svg>
