<svg width="14" height="14" viewBox="0 0 14 14" fill="none" xmlns="http://www.w3.org/2000/svg">
<path d="M4.21238 10.6001C2.93851 10.6001 2.30157 10.6001 1.8481 10.3282C1.55172 10.1505 1.31295 9.89636 1.15885 9.59462C0.923075 9.13292 0.986453 8.52248 1.11321 7.3016C1.21902 6.28244 1.27193 5.77283 1.53211 5.39858C1.70292 5.15287 1.93396 4.95148 2.20478 4.81222C2.61729 4.6001 3.14899 4.6001 4.21238 4.6001H9.7876C10.851 4.6001 11.3827 4.6001 11.7952 4.81222C12.066 4.95148 12.2971 5.15287 12.4679 5.39858C12.7281 5.77283 12.781 6.28244 12.8868 7.3016C13.0136 8.52248 13.0769 9.13292 12.8411 9.59462C12.687 9.89636 12.4483 10.1505 12.1519 10.3282C11.6984 10.6001 11.0615 10.6001 9.7876 10.6001" stroke="#1E293B" stroke-width="0.9"/>
<path d="M10 4.6V3.4C10 2.26863 10 1.70294 9.64852 1.35147C9.29704 1 8.73136 1 7.6 1H6.4C5.26863 1 4.70294 1 4.35147 1.35147C4 1.70294 4 2.26863 4 3.4V4.6" stroke="#1E293B" stroke-width="0.9" stroke-linejoin="round"/>
<path d="M8.19322 9.3999H5.80678C5.39561 9.3999 5.19002 9.3999 5.0151 9.46524C4.78187 9.5523 4.58216 9.7215 4.44772 9.94584C4.34689 10.1141 4.29703 10.3306 4.19731 10.7633C4.04148 11.4396 3.96357 11.7777 4.01656 12.0488C4.08721 12.4103 4.30742 12.7163 4.61351 12.8783C4.84308 12.9999 5.16431 12.9999 5.80678 12.9999H8.19322C8.8357 12.9999 9.15694 12.9999 9.3865 12.8783C9.69256 12.7163 9.91282 12.4103 9.98344 12.0488C10.0364 11.7777 9.95854 11.4396 9.80272 10.7633C9.703 10.3306 9.65308 10.1141 9.55228 9.94584C9.41782 9.7215 9.21814 9.5523 8.98492 9.46524C8.80996 9.3999 8.6044 9.3999 8.19322 9.3999Z" stroke="#1E293B" stroke-width="0.9" stroke-linejoin="round"/>
<path d="M10.6 7H10.6063" stroke="#1E293B" stroke-width="1.2" stroke-linecap="round" stroke-linejoin="round"/>
</svg>
