<svg width="18" height="18" viewBox="0 0 18 18" fill="none" xmlns="http://www.w3.org/2000/svg">
<path d="M4.48131 11.9012C3.30234 12.6032 0.211136 14.0366 2.09389 15.8304C3.01359 16.7065 4.03791 17.3332 5.32573 17.3332H12.6743C13.9621 17.3332 14.9864 16.7065 15.9061 15.8304C17.7888 14.0366 14.6977 12.6032 13.5187 11.9012C10.754 10.255 7.24599 10.255 4.48131 11.9012Z" stroke="white" stroke-width="1.25" stroke-linecap="round" stroke-linejoin="round"/>
<path d="M12.75 4.4165C12.75 6.48756 11.0711 8.1665 9 8.1665C6.92893 8.1665 5.25 6.48756 5.25 4.4165C5.25 2.34543 6.92893 0.666504 9 0.666504C11.0711 0.666504 12.75 2.34543 12.75 4.4165Z" stroke="white" stroke-width="1.25"/>
</svg>
