<svg width="22" height="22" viewBox="0 0 22 22" fill="none" xmlns="http://www.w3.org/2000/svg">
<path d="M14.2087 11C14.2087 12.7719 12.7722 14.2083 11.0003 14.2083C9.22841 14.2083 7.79199 12.7719 7.79199 11C7.79199 9.22804 9.22841 7.79163 11.0003 7.79163C12.7722 7.79163 14.2087 9.22804 14.2087 11Z" stroke="black" stroke-width="1.375"/>
<path d="M20.1663 12.803V9.19706C17.5477 9.19706 15.8449 6.35284 17.1707 4.09463L13.9953 2.29172C12.6532 4.57784 9.34766 4.57775 8.0055 2.29163L4.83008 4.09454C6.15588 6.35278 4.45168 9.19706 1.83301 9.19706V12.803C4.45163 12.803 6.1544 15.6472 4.82863 17.9054L8.00405 19.7083C9.34683 17.421 12.6539 17.4209 13.9967 19.7082L17.1721 17.9053C15.8465 15.6471 17.5478 12.803 20.1663 12.803Z" stroke="black" stroke-width="1.375" stroke-linecap="round" stroke-linejoin="round"/>
</svg>
