<svg width="18" height="19" viewBox="0 0 18 19" fill="none" xmlns="http://www.w3.org/2000/svg">
<path d="M16.8375 5.27798L16.4262 4.56415C16.1151 4.02429 15.9596 3.75436 15.695 3.64672C15.4303 3.53909 15.131 3.62402 14.5324 3.79389L13.5155 4.08031C13.1334 4.16844 12.7324 4.11844 12.3835 3.93915L12.1027 3.77717C11.8035 3.58551 11.5733 3.30293 11.4459 2.97077L11.1676 2.13962C10.9846 1.58961 10.8931 1.3146 10.6753 1.1573C10.4575 1 10.1682 1 9.58946 1H8.66051C8.08192 1 7.79259 1 7.57475 1.1573C7.35696 1.3146 7.26547 1.58961 7.0825 2.13962L6.8042 2.97077C6.6768 3.30293 6.44663 3.58551 6.1474 3.77717L5.86666 3.93915C5.5177 4.11844 5.11675 4.16844 4.73457 4.08031L3.71771 3.79389C3.1191 3.62402 2.8198 3.53909 2.55515 3.64672C2.2905 3.75436 2.13496 4.02429 1.82388 4.56415L1.41256 5.27798C1.12097 5.78402 0.975165 6.03705 1.00347 6.3064C1.03176 6.57575 1.22695 6.79281 1.61731 7.22692L2.47651 8.18749C2.6865 8.45332 2.8356 8.91666 2.8356 9.33328C2.8356 9.74998 2.68656 10.2132 2.47653 10.4791L1.61731 11.4397C1.22695 11.8738 1.03177 12.0908 1.00347 12.3603C0.975165 12.6296 1.12097 12.8826 1.41256 13.3886L1.82387 14.1024C2.13495 14.6423 2.2905 14.9123 2.55515 15.0198C2.8198 15.1275 3.1191 15.0426 3.71773 14.8727L4.73454 14.5863C5.11678 14.4981 5.51781 14.5482 5.86681 14.7275L6.1475 14.8895C6.44668 15.0812 6.67679 15.3637 6.80417 15.6958L7.0825 16.5271C7.26547 17.0771 7.35696 17.3521 7.57475 17.5094C7.79259 17.6667 8.08192 17.6667 8.66051 17.6667H9.58946C10.1682 17.6667 10.4575 17.6667 10.6753 17.5094C10.8931 17.3521 10.9846 17.0771 11.1676 16.5271L11.446 15.6958C11.5733 15.3637 11.8034 15.0812 12.1026 14.8895L12.3833 14.7275C12.7323 14.5482 13.1333 14.4981 13.5155 14.5863L14.5324 14.8727C15.131 15.0426 15.4303 15.1275 15.695 15.0198C15.9596 14.9123 16.1151 14.6423 16.4262 14.1024L16.8375 13.3886C17.1291 12.8826 17.2749 12.6296 17.2466 12.3603C17.2183 12.0908 17.0231 11.8738 16.6328 11.4397L15.7735 10.4791C15.5635 10.2132 15.4145 9.74998 15.4145 9.33328C15.4145 8.91666 15.5636 8.45332 15.7735 8.18749L16.6328 7.22692C17.0231 6.79281 17.2183 6.57575 17.2466 6.3064C17.2749 6.03705 17.1291 5.78402 16.8375 5.27798Z" stroke="white" stroke-width="1.25" stroke-linecap="round"/>
<path d="M12.0061 9.32679C12.0061 10.9377 10.7003 12.2435 9.08954 12.2435C7.47866 12.2435 6.17285 10.9377 6.17285 9.32679C6.17285 7.716 7.47866 6.41016 9.08954 6.41016C10.7003 6.41016 12.0061 7.716 12.0061 9.32679Z" stroke="white" stroke-width="1.25"/>
</svg>
