<svg width="24" height="24" viewBox="0 0 24 24" fill="none" xmlns="http://www.w3.org/2000/svg">
<g clip-path="url(#clip0_19_450)">
<mask id="mask0_19_450" style="mask-type:luminance" maskUnits="userSpaceOnUse" x="0" y="0" width="24" height="24">
<path d="M24 0H0V24H24V0Z" fill="white"/>
</mask>
<g mask="url(#mask0_19_450)">
<path d="M16.5707 -0.01755C16.6057 -0.0175401 16.6408 -0.0175302 16.6769 -0.01752C17.2455 -0.0159187 17.7801 0.0279646 18.3285 0.187528C18.3767 0.201068 18.3767 0.201068 18.4259 0.21488C19.5179 0.528276 19.5179 0.528276 19.7347 0.890654C19.7596 1.06088 19.7583 1.13842 19.6585 1.2803C19.5172 1.38081 19.4403 1.39788 19.266 1.40628C19.1209 1.36228 18.9869 1.29789 18.85 1.23342C17.4599 0.619349 15.9101 0.61503 14.4889 1.14444C13.4575 1.56419 12.6778 2.26564 12.2238 3.28302C11.9533 3.97535 12.0256 4.70985 12.306 5.38589C12.6007 6.00345 13.0109 6.42111 13.5467 6.82876C13.6878 6.93753 13.6878 6.93753 13.7817 7.03128C13.821 7.35657 13.7404 7.51065 13.5443 7.7637C13.3625 7.98938 13.3625 7.98938 13.3131 8.26577C13.3511 8.40471 13.3511 8.40471 13.5004 8.4844C14.3352 8.55656 15.192 8.41502 15.8809 7.90706C16.1517 7.71314 16.3758 7.70502 16.7026 7.70804C18.0359 7.6847 19.3081 7.24664 20.2504 6.28128C20.2815 6.25113 20.3127 6.22097 20.3447 6.1899C20.8791 5.63626 21.1211 4.89569 21.1169 4.1406C21.0928 3.42712 20.8023 2.83841 20.3562 2.29031C20.2704 2.16356 20.2716 2.0671 20.278 1.91769C20.2973 1.82816 20.2973 1.82816 20.3939 1.70804C20.5317 1.64066 20.5317 1.64066 20.6869 1.626C21.1237 1.78146 21.3677 2.2791 21.5681 2.67578C21.9555 3.51168 22.0429 4.51652 21.738 5.39394C21.552 5.88143 21.3089 6.31857 20.9535 6.70316C20.9125 6.74835 20.8717 6.79355 20.8295 6.84011C19.9245 7.80968 18.6072 8.36022 17.2973 8.4844C17.2223 8.4867 17.1473 8.48804 17.0722 8.48843C16.5711 8.49137 16.2555 8.57045 15.8351 8.84878C15.6567 8.95316 15.6567 8.95316 15.1878 9.09378C15.1878 9.80534 15.1878 10.5169 15.1878 11.25C15.4216 11.2484 15.6553 11.2468 15.8962 11.2451C16.0452 11.2444 16.1944 11.2437 16.3434 11.2432C16.5796 11.2423 16.8156 11.2413 17.0517 11.2394C17.2422 11.2379 17.4328 11.237 17.6233 11.2367C17.6956 11.2364 17.7679 11.2359 17.8402 11.2352C18.6183 11.2273 19.2147 11.3511 19.8054 11.8731C20.0715 12.1621 20.2516 12.4983 20.4126 12.8538C20.4311 12.8939 20.4496 12.934 20.4687 12.9753C20.5271 13.1022 20.5851 13.2293 20.6429 13.3565C20.6814 13.44 20.7198 13.5235 20.7583 13.6071C20.7772 13.6482 20.796 13.6894 20.8156 13.7317C20.8535 13.8143 20.8917 13.8967 20.9301 13.9792C21.0225 14.1791 21.1086 14.3785 21.1839 14.5858C21.3238 14.9867 21.3238 14.9867 21.6094 15.2839C21.772 15.3442 21.9253 15.3805 22.0961 15.4102C22.206 15.4337 22.3157 15.4578 22.4253 15.4827C22.4778 15.4945 22.5303 15.5063 22.5844 15.5185C23.0583 15.6573 23.4827 16.0021 23.7229 16.4321C23.8966 16.7641 24.0054 17.0302 24.0087 17.4058C24.0093 17.4659 24.0099 17.526 24.0105 17.5879C24.0109 17.6535 24.0112 17.7191 24.0115 17.7847C24.0118 17.818 24.0119 17.8512 24.0121 17.8854C24.0131 18.0618 24.0138 18.2381 24.0142 18.4144C24.0148 18.5951 24.0163 18.7758 24.0183 18.9565C24.0195 19.0967 24.0198 19.2367 24.0199 19.3769C24.0202 19.4434 24.0208 19.51 24.0216 19.5765C24.0299 20.244 23.8969 20.7815 23.4379 21.2813C23.0944 21.5827 22.7183 21.8095 22.266 21.8907C22.2455 21.9645 22.2455 21.9645 22.2246 22.0398C22.1148 22.4217 22.0045 22.75 21.7504 23.0626C21.7264 23.0945 21.7024 23.1265 21.6777 23.1595C21.3281 23.5985 20.7953 23.881 20.2504 24C19.3921 24.0694 18.6917 23.9309 18.0221 23.3621C17.6093 22.9701 17.3761 22.4431 17.2973 21.8907C14.0333 21.8907 10.7695 21.8907 7.40663 21.8907C7.37569 22.0453 7.34476 22.2 7.31289 22.3594C7.05189 23.0125 6.67821 23.4792 6.03609 23.7929C5.44902 24.0417 4.75937 24.1189 4.14004 23.9238C3.48897 23.6599 3.01194 23.2577 2.67226 22.6407C2.56661 22.3899 2.48476 22.164 2.48476 21.8907C2.43606 21.8922 2.38735 21.8939 2.33718 21.8956C1.66746 21.9114 1.10549 21.7829 0.595294 21.3177C-0.0206435 20.6705 -0.0281088 19.963 -0.0245179 19.1191C-0.0246444 19.0143 -0.0248266 18.9094 -0.0250615 18.8045C-0.0253367 18.5857 -0.02494 18.367 -0.0240601 18.1482C-0.022987 17.8678 -0.0236106 17.5873 -0.0247296 17.3069C-0.0254063 17.0908 -0.0251916 16.8747 -0.0247054 16.6585C-0.0245803 16.5551 -0.0247337 16.4517 -0.0251703 16.3482C-0.0256456 16.204 -0.0249227 16.0599 -0.023877 15.9157C-0.0242566 15.873 -0.0246361 15.8303 -0.0250272 15.7863C-0.0211635 15.4992 -0.0211635 15.4992 0.0853968 15.3485C0.236476 15.2494 0.33949 15.2561 0.516009 15.2813C0.982148 15.7474 0.703509 16.5909 0.703509 17.25C5.23585 17.25 9.76819 17.25 14.4378 17.25C14.4378 14.6203 14.4378 11.9907 14.4378 9.28128C14.0976 9.28128 13.7573 9.28128 13.4067 9.28128C12.8007 9.03888 12.8007 9.03888 12.6084 8.67429C12.4735 8.35773 12.4788 8.08971 12.601 7.77249C12.6694 7.61016 12.7513 7.46223 12.8441 7.31253C12.8035 7.2764 12.7629 7.24026 12.7211 7.20303C12.6683 7.15556 12.6156 7.10807 12.5628 7.06058C12.5361 7.03677 12.5092 7.01296 12.4816 6.98843C12.4132 6.92651 12.3472 6.86187 12.2817 6.7969C12.2817 6.76596 12.2817 6.73503 12.2817 6.70316C10.972 6.7049 9.66241 6.7077 8.35279 6.71177C7.74469 6.71363 7.13658 6.71516 6.52847 6.71585C5.99829 6.71646 5.46811 6.71774 4.93793 6.71978C4.65735 6.72083 4.37676 6.72158 4.09618 6.72153C3.83173 6.72149 3.56731 6.72233 3.30287 6.72383C3.20615 6.72423 3.10943 6.72431 3.0127 6.72405C2.32195 6.72242 1.6987 6.72896 1.17684 7.24149C0.941613 7.52357 0.791781 7.84706 0.790789 8.21546C0.790533 8.26659 0.790279 8.31771 0.790015 8.37039C0.789942 8.45454 0.789942 8.45454 0.789866 8.54042C0.789501 8.6311 0.789135 8.72178 0.788762 8.81248C0.788401 8.90999 0.788149 9.0075 0.787921 9.10502C0.787421 9.30831 0.786471 9.51159 0.785431 9.71487C0.782528 10.2929 0.779996 10.871 0.778446 11.449C0.777585 11.7683 0.776228 12.0875 0.77432 12.4068C0.773333 12.5757 0.772609 12.7446 0.772502 12.9135C0.772382 13.102 0.771188 13.2904 0.769908 13.4788C0.770049 13.5347 0.77019 13.5906 0.770335 13.6482C0.769814 13.6996 0.769296 13.7509 0.768759 13.804C0.768604 13.8485 0.768448 13.893 0.768289 13.9389C0.74485 14.1007 0.679236 14.2275 0.562885 14.3437C0.222664 14.3717 0.222664 14.3717 0.0894537 14.2649C-0.0197416 14.1317 -0.0231599 14.0693 -0.023425 13.899C-0.0239537 13.8467 -0.0244824 13.7945 -0.0250272 13.7406C-0.0246477 13.6834 -0.0242681 13.6263 -0.023877 13.5673C-0.0242056 13.507 -0.0245341 13.4465 -0.0248727 13.3843C-0.0257277 13.2186 -0.0253954 13.053 -0.0248011 12.8874C-0.0243258 12.7137 -0.0247674 12.5399 -0.0250615 12.366C-0.0254028 12.0738 -0.0249531 11.7816 -0.0240601 11.4894C-0.0230433 11.1527 -0.023367 10.8161 -0.024402 10.4794C-0.0252568 10.1897 -0.0253714 9.89993 -0.0248827 9.61019C-0.0245921 9.43746 -0.0245461 9.26476 -0.0251703 9.09203C-0.0258195 8.89884 -0.0249168 8.70569 -0.023877 8.51252C-0.0242566 8.45609 -0.0246361 8.39968 -0.0250272 8.34155C-0.0183091 7.66362 0.222435 7.09802 0.680072 6.60062C1.34506 5.96466 2.12969 5.93913 2.99821 5.9382C3.09295 5.93777 3.18769 5.93729 3.28243 5.93678C3.53856 5.9355 3.79469 5.9348 4.05083 5.93418C4.3189 5.93345 4.58697 5.93219 4.85503 5.93099C5.36219 5.92881 5.86933 5.92708 6.37649 5.92552C6.95407 5.92373 7.53165 5.92142 8.10922 5.91905C9.29691 5.91422 10.4846 5.91003 11.6723 5.90628C11.656 5.8708 11.6396 5.83533 11.6228 5.79878C11.6015 5.75228 11.5803 5.70578 11.5583 5.65786C11.5372 5.61174 11.516 5.56564 11.4942 5.51813C11.1527 4.74558 11.1793 3.78768 11.4705 3.0024C12.0055 1.75137 12.9781 0.894876 14.2341 0.390158C14.9946 0.0978868 15.7596 -0.0196709 16.5707 -0.01755ZM15.1878 12C15.1878 15.0165 15.1878 18.0328 15.1878 21.1407C15.8839 21.1407 16.5801 21.1407 17.2973 21.1407C17.3591 20.955 17.421 20.7694 17.4847 20.5781C17.7498 19.957 18.1722 19.524 18.7942 19.2525C19.4633 18.9982 20.1689 19.0002 20.8279 19.2863C21.5094 19.6271 21.8937 20.1307 22.1365 20.8431C22.1542 20.8975 22.1542 20.8975 22.1723 20.9531C22.1878 20.9995 22.2031 21.046 22.2191 21.0937C22.6714 20.9701 22.8941 20.7863 23.1427 20.3946C23.2975 20.0263 23.3115 19.6252 23.3097 19.2305C23.3099 19.1616 23.3099 19.1616 23.31 19.0914C23.31 18.9951 23.3099 18.8988 23.3094 18.8026C23.3089 18.6567 23.3094 18.5107 23.31 18.3648C23.31 18.2705 23.3099 18.1763 23.3097 18.0821C23.31 18.0178 23.31 18.0178 23.3103 17.9521C23.3061 17.3591 23.2113 16.9189 22.7875 16.4913C22.5402 16.2817 22.2628 16.1925 21.9531 16.1093C21.8725 16.0863 21.7929 16.0601 21.7138 16.0324C21.2626 15.8832 20.8492 15.8649 20.3777 15.8679C20.2456 15.8687 20.1136 15.8683 19.9816 15.8676C19.702 15.8665 19.4225 15.8668 19.1429 15.8673C18.8171 15.8677 18.4913 15.8677 18.1655 15.8661C18.0355 15.8657 17.9056 15.8665 17.7756 15.8674C17.6963 15.8671 17.617 15.8668 17.5375 15.8664C17.4835 15.8671 17.4835 15.8671 17.4285 15.868C17.2691 15.8662 17.1731 15.8551 17.0406 15.7635C16.9563 15.6371 16.9455 15.5695 16.9449 15.4185C16.9443 15.3713 16.9437 15.324 16.9431 15.2753C16.9434 15.2247 16.9438 15.1739 16.9443 15.1216C16.944 15.0693 16.9439 15.0169 16.9437 14.9629C16.9435 14.8523 16.9439 14.7417 16.9447 14.631C16.9457 14.4616 16.9447 14.2923 16.9435 14.1228C16.9437 14.0153 16.9439 13.9078 16.9443 13.8003C16.9439 13.7496 16.9434 13.6989 16.9431 13.6465C16.9437 13.5994 16.9443 13.5521 16.9449 13.5034C16.9451 13.4412 16.9451 13.4412 16.9453 13.3777C16.9776 13.2255 17.0328 13.1706 17.1567 13.0781C17.2735 13.0539 17.2735 13.0539 17.406 13.0525C17.4557 13.0516 17.5054 13.0507 17.5566 13.0498C17.6367 13.0497 17.6367 13.0497 17.7184 13.0495C17.7732 13.0488 17.8282 13.048 17.8847 13.0473C18.06 13.045 18.2352 13.0439 18.4105 13.0429C18.5293 13.0416 18.6483 13.0403 18.7671 13.0387C19.0584 13.0353 19.3497 13.0329 19.641 13.0313C19.6054 12.9568 19.5695 12.8825 19.5334 12.8082C19.5133 12.7668 19.4934 12.7254 19.4728 12.6828C19.2871 12.3453 19.0145 12.1699 18.6567 12.0469C17.5348 11.7664 16.3443 12 15.1878 12ZM17.6723 13.7813C17.6723 14.2299 17.6723 14.6784 17.6723 15.1407C18.6313 15.1407 19.5904 15.1407 20.5785 15.1407C20.5162 14.9538 20.4553 14.7853 20.3747 14.608C20.3437 14.5398 20.3437 14.5398 20.3122 14.4703C20.2908 14.4238 20.2695 14.3771 20.2475 14.3291C20.2259 14.2816 20.2044 14.2341 20.1822 14.1851C20.0977 13.969 20.0977 13.969 19.9691 13.7813C19.8972 13.7769 19.8251 13.7758 19.753 13.7759C19.707 13.7759 19.6611 13.7759 19.6137 13.776C19.5636 13.7763 19.5136 13.7765 19.4621 13.7767C19.4112 13.7767 19.3603 13.7769 19.3078 13.7769C19.1445 13.7771 18.9811 13.7777 18.8178 13.7783C18.7073 13.7785 18.5969 13.7788 18.4864 13.779C18.2151 13.7795 17.9436 13.7803 17.6723 13.7813ZM0.703509 18C0.590874 19.4263 0.590875 19.4263 1.07851 20.7187C1.40539 21.0389 1.72848 21.1481 2.18008 21.1494C2.28166 21.1471 2.38323 21.1445 2.48476 21.1407C2.49787 21.0959 2.51099 21.0511 2.52449 21.0049C2.73859 20.3031 3.06695 19.7476 3.71797 19.3758C4.36018 19.0534 5.01665 18.9874 5.71474 19.1704C6.37423 19.3902 6.84467 19.8337 7.17226 20.4376C7.28827 20.7856 7.28827 20.7856 7.40663 21.1407C9.72695 21.1407 12.0473 21.1407 14.4378 21.1407C14.4378 20.1042 14.4378 19.0678 14.4378 18C9.90555 18 5.37319 18 0.703509 18ZM3.5032 20.5108C3.23268 20.8926 3.1435 21.3461 3.2007 21.8062C3.28387 22.2558 3.53355 22.6883 3.90951 22.9545C4.37781 23.2452 4.81099 23.3533 5.35457 23.2405C5.89318 23.086 6.228 22.783 6.51601 22.3126C6.7371 21.8863 6.74688 21.4077 6.60976 20.9531C6.41681 20.476 6.0933 20.1199 5.62007 19.9098C4.80677 19.5899 4.05355 19.8617 3.5032 20.5108ZM18.4342 20.385C18.0629 20.8432 17.9928 21.3178 18.0473 21.8907C18.1409 22.3861 18.459 22.7377 18.8529 23.0362C19.2499 23.2789 19.7146 23.3418 20.1652 23.2434C20.6817 23.0859 21.051 22.8136 21.3149 22.3427C21.5661 21.8277 21.567 21.4025 21.3875 20.8632C21.1974 20.3974 20.8109 20.055 20.3524 19.8622C19.6426 19.6252 18.9351 19.846 18.4342 20.385Z" fill="black"/>
<path d="M10.8031 8.63175C11.6336 9.41433 12.1595 10.5449 12.1994 11.6859C12.2252 13.0761 11.849 14.2159 10.8756 15.2343C10.8334 15.2819 10.8334 15.2819 10.7903 15.3303C10.0977 16.0799 9.00682 16.5409 7.99644 16.6004C6.59597 16.6508 5.38037 16.271 4.3368 15.3026C3.49257 14.4851 3.00983 13.3513 2.98176 12.1849C2.96878 10.8102 3.35374 9.7239 4.31314 8.71873C4.33785 8.6905 4.36257 8.66228 4.38803 8.63322C5.05861 7.89745 6.17631 7.43991 7.15768 7.36356C8.56631 7.30892 9.74712 7.70858 10.8031 8.63175ZM4.82877 9.28122C4.79595 9.31342 4.76314 9.34563 4.72933 9.37881C3.96787 10.1789 3.71818 11.1966 3.73636 12.2695C3.76636 13.0956 4.10022 13.8627 4.64127 14.4843C4.67172 14.5248 4.67172 14.5248 4.70279 14.5661C5.26797 15.296 6.23205 15.7261 7.12564 15.8437C8.33075 15.9255 9.33037 15.5954 10.2465 14.8015C10.9933 14.1005 11.4264 13.1232 11.4604 12.1022C11.4708 10.9744 11.0662 10.0292 10.3014 9.20212C9.52133 8.46346 8.50354 8.08713 7.43581 8.09946C6.42108 8.15864 5.55279 8.56929 4.82877 9.28122Z" fill="black"/>
<path d="M8.07768 11.6953C8.38196 11.8745 8.58029 12.1306 8.6724 12.4687C8.68688 12.6091 8.68886 12.7488 8.6898 12.8899C8.69044 12.95 8.69044 12.95 8.69108 13.0115C8.69176 13.0961 8.69218 13.1807 8.69234 13.2653C8.69291 13.3936 8.69521 13.5216 8.69758 13.6498C8.70205 14.1287 8.69839 14.5319 8.35492 14.9021C8.1302 15.1166 7.90832 15.1904 7.60014 15.2022C7.22611 15.192 6.99269 15.0806 6.72911 14.8176C6.52418 14.5375 6.49426 14.2814 6.49418 13.9444C6.49382 13.9022 6.49346 13.8601 6.4931 13.8168C6.4926 13.728 6.49246 13.6392 6.49267 13.5505C6.49272 13.4159 6.49076 13.2815 6.48869 13.1468C6.48292 12.2831 6.48292 12.2831 6.75053 11.9531C6.86076 11.8475 6.86076 11.8475 6.96732 11.7861C7.02043 11.7541 7.02043 11.7541 7.07462 11.7215C7.37272 11.5702 7.77068 11.5587 8.07768 11.6953ZM7.26616 12.5624C7.24693 12.6956 7.23872 12.8102 7.2396 12.9433C7.23931 12.9802 7.23902 13.0169 7.23872 13.0547C7.23839 13.1322 7.23853 13.2098 7.23913 13.2874C7.23978 13.4059 7.23818 13.5242 7.2364 13.6428C7.23635 13.7183 7.23644 13.7938 7.23667 13.8691C7.23605 13.9045 7.23542 13.9398 7.23479 13.9763C7.23797 14.1559 7.2515 14.2343 7.37603 14.3676C7.49801 14.4494 7.49801 14.4494 7.64701 14.4374C7.80724 14.3818 7.84061 14.3497 7.9224 14.2031C7.93667 14.0797 7.94324 13.9678 7.94273 13.8444C7.9431 13.7926 7.9431 13.7926 7.94347 13.7398C7.94377 13.6668 7.94371 13.5938 7.94332 13.5209C7.94291 13.4096 7.94426 13.2985 7.94575 13.1874C7.94582 13.1164 7.9458 13.0453 7.94566 12.9743C7.94618 12.9413 7.94671 12.9082 7.94725 12.8741C7.94491 12.7073 7.92514 12.6138 7.83599 12.471C7.74046 12.3629 7.74046 12.3629 7.59427 12.3486C7.41817 12.3816 7.373 12.4195 7.26616 12.5624Z" fill="black"/>
<path d="M14.1767 4.91558C14.2203 4.91538 14.264 4.91519 14.309 4.91497C14.357 4.915 14.405 4.91502 14.4544 4.91504C14.5049 4.91489 14.5553 4.91473 14.6074 4.91456C14.7749 4.91412 14.9425 4.91402 15.1099 4.91398C15.226 4.91383 15.3421 4.91366 15.4581 4.91351C15.7017 4.91322 15.9453 4.91314 16.1889 4.91316C16.5015 4.9132 16.814 4.91254 17.1266 4.91172C17.3663 4.9112 17.6062 4.91111 17.846 4.91113C17.9613 4.91107 18.0765 4.91087 18.1917 4.91051C18.3527 4.91005 18.5138 4.91018 18.6748 4.91046C18.7227 4.9102 18.7706 4.90993 18.8198 4.90967C18.8857 4.90996 18.8857 4.90996 18.9529 4.91027C18.9909 4.91023 19.0289 4.91021 19.0682 4.91018C19.1869 4.92349 19.2602 4.94981 19.3598 5.0156C19.4456 5.20961 19.4695 5.30078 19.3949 5.50193C19.3129 5.62498 19.3129 5.62498 19.2191 5.67185C19.1495 5.67647 19.0797 5.67818 19.0099 5.67844C18.9658 5.6787 18.9218 5.67898 18.8764 5.67924C18.8279 5.6793 18.7795 5.67935 18.7295 5.67941C18.6787 5.67964 18.6278 5.67988 18.5752 5.6801C18.4063 5.6808 18.2372 5.68111 18.0682 5.68138C17.9511 5.68164 17.834 5.68192 17.7167 5.68218C17.5024 5.68261 17.2881 5.68291 17.0737 5.68304C16.7582 5.68326 16.4426 5.68409 16.127 5.68544C15.8537 5.68657 15.5805 5.68693 15.3073 5.68702C15.191 5.68716 15.0747 5.68754 14.9584 5.68816C14.7959 5.68895 14.6335 5.68886 14.4709 5.68856C14.3985 5.68921 14.3985 5.68921 14.3246 5.68987C14.2803 5.68961 14.236 5.68934 14.1904 5.68908C14.152 5.68915 14.1135 5.68921 14.074 5.68928C13.9417 5.66728 13.8781 5.6235 13.7817 5.53123C13.73 5.34497 13.7153 5.24575 13.7963 5.06833C13.9154 4.91842 13.9934 4.91597 14.1767 4.91558Z" fill="black"/>
<path d="M14.1899 2.79432C14.234 2.79385 14.2782 2.79338 14.3237 2.7929C14.3718 2.79312 14.4199 2.79333 14.4695 2.79355C14.5459 2.79306 14.5459 2.79306 14.6238 2.79257C14.7924 2.79171 14.9609 2.79189 15.1294 2.79216C15.2464 2.79194 15.3634 2.7917 15.4804 2.79141C15.7256 2.79099 15.9709 2.7911 16.2161 2.79158C16.4995 2.79212 16.783 2.79145 17.0664 2.7902C17.3392 2.78904 17.6119 2.78892 17.8848 2.78922C18.0008 2.78923 18.1169 2.78894 18.2328 2.78837C18.3949 2.78767 18.5569 2.78816 18.719 2.78897C18.7672 2.78851 18.8153 2.78807 18.8648 2.7876C19.1894 2.79098 19.1894 2.79098 19.3415 2.90057C19.4194 3.0192 19.4501 3.09188 19.4536 3.23436C19.3776 3.39779 19.324 3.46137 19.1724 3.56249C19.0751 3.57428 19.0751 3.57428 18.961 3.57439C18.896 3.57479 18.896 3.57479 18.8297 3.57519C18.7823 3.575 18.7349 3.57481 18.686 3.57462C18.636 3.57479 18.586 3.57494 18.5345 3.57511C18.3688 3.57553 18.203 3.57525 18.0373 3.57494C17.9224 3.575 17.8074 3.57509 17.6924 3.57521C17.4514 3.57535 17.2102 3.57515 16.9691 3.57471C16.6597 3.57417 16.3504 3.57449 16.0411 3.57504C15.8036 3.57539 15.5662 3.57528 15.3287 3.57503C15.2147 3.57497 15.1006 3.57505 14.9866 3.57527C14.8272 3.57551 14.6678 3.57513 14.5085 3.57462C14.4376 3.57491 14.4376 3.57491 14.3651 3.57519C14.3216 3.57493 14.2782 3.57467 14.2334 3.57439C14.1958 3.57435 14.1581 3.57432 14.1193 3.57428C14.0032 3.561 13.9282 3.52927 13.8286 3.46873C13.731 3.34328 13.7351 3.27572 13.7407 3.11424C13.7818 2.95311 13.7818 2.95311 13.8642 2.87387C13.9844 2.80363 14.0516 2.79473 14.1899 2.79432Z" fill="black"/>
<path d="M5.53163 20.5781C5.75205 20.7467 5.8934 20.9306 6.00038 21.1875C6.04227 21.5129 6.04955 21.8524 5.8755 22.14C5.70373 22.356 5.51455 22.5088 5.25038 22.5938C4.89278 22.6331 4.55906 22.6324 4.26601 22.4063C4.03278 22.2008 3.89634 21.9635 3.84413 21.6563C3.83268 21.3489 3.89247 21.0616 4.07851 20.8125C4.48557 20.4143 5.01924 20.3211 5.53163 20.5781ZM4.68788 21.2813C4.61328 21.4114 4.61328 21.4114 4.59413 21.5625C4.64641 21.6746 4.69442 21.7565 4.78163 21.8438C4.94864 21.8624 5.03365 21.8638 5.17421 21.7676C5.25971 21.6587 5.25971 21.6587 5.27675 21.5157C5.26224 21.3666 5.26224 21.3666 5.14199 21.2637C4.96709 21.158 4.85238 21.1646 4.68788 21.2813Z" fill="black"/>
<path d="M8.21013 8.93615C8.44661 9.10988 8.61366 9.36986 8.67211 9.65629C8.70836 10.0089 8.64137 10.2865 8.44652 10.5821C8.18282 10.8533 7.9185 10.9429 7.54711 10.9688C7.22383 10.9532 6.978 10.8205 6.75024 10.5938C6.52261 10.2833 6.48069 9.98471 6.51587 9.60942C6.59597 9.29912 6.75563 9.07107 7.03148 8.90629C7.43394 8.72439 7.8203 8.72216 8.21013 8.93615ZM7.31274 9.65629C7.25421 9.81592 7.25421 9.81591 7.26587 9.98442C7.33227 10.1055 7.33227 10.1055 7.45337 10.1719C7.60213 10.1932 7.69039 10.1994 7.81957 10.1192C7.89957 9.99288 7.91906 9.89939 7.92211 9.75005C7.83927 9.63651 7.7697 9.57953 7.64379 9.5186C7.4925 9.51402 7.42622 9.55816 7.31274 9.65629Z" fill="black"/>
<path d="M20.497 20.6807C20.7299 20.9189 20.842 21.192 20.8749 21.5215C20.8475 21.8605 20.7426 22.1285 20.4882 22.3594C20.2104 22.5892 19.9577 22.615 19.6053 22.6082C19.2669 22.5758 19.0679 22.4222 18.8553 22.1662C18.6647 21.8743 18.672 21.5724 18.704 21.2344C18.7851 20.9219 19.0049 20.7091 19.2665 20.5313C19.7136 20.3476 20.1076 20.4186 20.497 20.6807ZM19.5566 21.2608C19.4428 21.3676 19.4428 21.3676 19.4277 21.5156C19.4447 21.6587 19.4447 21.6587 19.5302 21.7675C19.6391 21.8531 19.6391 21.8531 19.7822 21.8701C19.9301 21.855 19.9301 21.855 20.037 21.7412C20.1208 21.6166 20.1208 21.6166 20.1074 21.4864C20.0596 21.3654 20.0283 21.3097 19.9228 21.2344C19.7607 21.1704 19.7109 21.1751 19.5566 21.2608Z" fill="black"/>
</g>
</g>
<defs>
<clipPath id="clip0_19_450">
<rect width="24" height="24" fill="white"/>
</clipPath>
</defs>
</svg>
