<svg width="24" height="20" viewBox="0 0 24 20" fill="none" xmlns="http://www.w3.org/2000/svg">
<g clip-path="url(#clip0_19_403)">
<path d="M15.8233 0.472134C15.9635 0.54152 16.0979 0.61716 16.2329 0.696298C16.2822 0.724188 16.3316 0.752077 16.3825 0.780811C16.4822 0.837118 16.5816 0.893823 16.6808 0.950943C16.8288 1.03606 16.9778 1.11901 17.1274 1.20142C17.2268 1.25631 17.3262 1.31162 17.4254 1.36701C17.723 1.53287 18.0212 1.69769 18.3194 1.86237C18.3631 1.88644 18.3631 1.88644 18.4075 1.911C18.8533 2.15703 19.3004 2.40044 19.7485 2.6424C20.0821 2.82276 20.414 3.00597 20.7454 3.19065C21.043 3.3565 21.3412 3.52128 21.6395 3.68601C21.6684 3.70199 21.6973 3.71798 21.7271 3.73445C22.0362 3.90524 22.3457 4.07512 22.6568 4.2422C22.7071 4.26923 22.7575 4.29628 22.8094 4.32414C22.9028 4.37427 22.9964 4.42422 23.0902 4.47395C23.8147 4.86234 23.8147 4.86234 23.9716 5.09757C23.984 5.24246 23.984 5.24246 23.9851 5.42313C23.9855 5.45607 23.9858 5.48901 23.9861 5.52294C23.987 5.63188 23.9872 5.7408 23.9873 5.84974C23.9876 5.92551 23.9879 6.00129 23.9882 6.07706C23.9888 6.23594 23.989 6.39482 23.989 6.5537C23.989 6.75712 23.9902 6.96051 23.9918 7.16392C23.9928 7.32045 23.993 7.47696 23.9929 7.6335C23.993 7.70848 23.9935 7.78347 23.9942 7.85844C23.9952 7.96344 23.9948 8.06837 23.9944 8.17337C23.9945 8.23307 23.9946 8.29277 23.9947 8.35427C23.9676 8.53787 23.914 8.61443 23.7846 8.74484C23.6348 8.81969 23.4794 8.81494 23.317 8.7916C23.1856 8.70772 23.1061 8.65043 23.0364 8.51104C23.0309 8.43609 23.0281 8.36093 23.0268 8.2858C23.0258 8.239 23.0249 8.1922 23.0239 8.14397C23.0228 8.06799 23.0228 8.06799 23.0216 7.99047C23.0207 7.9387 23.0196 7.88694 23.0186 7.83362C23.0156 7.66781 23.0129 7.50201 23.0101 7.33619C23.0081 7.22398 23.006 7.11177 23.004 6.99956C22.999 6.72406 22.9942 6.44855 22.9896 6.17304C22.8085 6.27268 22.6273 6.37238 22.4462 6.47214C22.3849 6.50589 22.3236 6.53962 22.2624 6.57333C22.1729 6.6225 22.0835 6.67174 21.9942 6.72101C21.9646 6.73733 21.9349 6.75364 21.9044 6.77045C21.7507 6.85539 21.5978 6.94148 21.4459 7.02952C21.4158 7.0469 21.3858 7.06427 21.3548 7.08218C21.2718 7.1304 21.1889 7.17891 21.106 7.22742C20.979 7.29528 20.979 7.29528 20.8854 7.29528C20.8859 7.34267 20.8859 7.34267 20.8864 7.39103C20.8895 7.72024 20.8916 8.04944 20.8932 8.37866C20.8938 8.50148 20.8948 8.6243 20.8961 8.74712C20.8978 8.92378 20.8985 9.10042 20.8991 9.2771C20.8999 9.3319 20.9006 9.38671 20.9014 9.44318C20.9015 9.92545 20.9015 9.92544 20.7451 10.1476C20.6293 10.2338 20.6293 10.2338 20.4821 10.3113C20.4239 10.3425 20.3656 10.3737 20.3074 10.405C20.2739 10.4227 20.2405 10.4404 20.2061 10.4587C20.0698 10.533 19.9361 10.6111 19.8022 10.6896C19.6986 10.7495 19.5949 10.8095 19.4914 10.8695C19.4418 10.8988 19.3922 10.9282 19.3411 10.9584C19.0534 11.1229 18.8345 11.2218 18.5006 11.2231C18.36 11.1662 18.2934 11.1265 18.215 10.9971C18.1693 10.886 18.1606 10.8055 18.1584 10.6857C18.1576 10.6445 18.1566 10.6033 18.1556 10.5609C18.1548 10.4949 18.1548 10.4949 18.154 10.4275C18.1526 10.3594 18.1526 10.3594 18.1513 10.2899C18.1484 10.145 18.1463 10.0002 18.1441 9.85538C18.1423 9.75711 18.1405 9.65884 18.1387 9.56057C18.1342 9.31984 18.1302 9.07911 18.1266 8.83835C18.0994 8.85383 18.0722 8.8693 18.0442 8.88525C17.523 9.18159 17.0009 9.47612 16.4754 9.76479C16.4314 9.78915 16.3873 9.81352 16.342 9.83862C16.3013 9.86085 16.2606 9.88307 16.2187 9.90598C16.183 9.92561 16.1472 9.94526 16.1104 9.96549C16.0224 10.0073 16.0224 10.0073 15.9289 10.0073C15.9443 12.538 15.9598 15.0686 15.9756 17.6759C16.9943 17.1311 16.9943 17.1311 18.0058 16.5743C18.2658 16.4294 18.5264 16.2855 18.7871 16.1416C18.8309 16.1175 18.8309 16.1175 18.8754 16.0929C19.2696 15.8752 19.6649 15.6597 20.0612 15.4461C20.4204 15.2525 20.7766 15.0548 21.1309 14.8528C21.7439 14.5035 22.3666 14.1724 22.9896 13.8417C22.9903 13.7522 22.9903 13.7522 22.9909 13.6607C22.9928 13.439 22.9958 13.2172 22.9993 12.9955C23.0006 12.8996 23.0016 12.8036 23.0023 12.7077C23.0033 12.5696 23.0054 12.4317 23.0078 12.2937C23.008 12.2509 23.008 12.2081 23.0081 12.164C23.0126 11.9669 23.0195 11.8583 23.1253 11.6875C23.2636 11.5602 23.3602 11.5546 23.542 11.5438C23.6864 11.5531 23.7685 11.5978 23.8781 11.6907C23.9812 11.8453 23.9839 11.8949 23.986 12.075C23.9867 12.1248 23.9874 12.1746 23.9882 12.2259C23.9885 12.2796 23.9887 12.3334 23.989 12.3888C23.9893 12.4441 23.9898 12.4994 23.9903 12.5564C23.9909 12.6734 23.9914 12.7905 23.9915 12.9075C23.9921 13.0867 23.9944 13.2657 23.9968 13.4447C23.9971 13.5584 23.9975 13.6721 23.9977 13.7858C23.9987 13.8393 23.9995 13.8929 24.0005 13.9481C23.9983 14.3199 23.9983 14.3199 23.863 14.5024C23.801 14.5456 23.801 14.5456 23.7378 14.5898C23.7107 14.6089 23.6834 14.6278 23.6555 14.6474C23.63 14.6611 23.6047 14.6746 23.5786 14.6887C23.5483 14.7051 23.5181 14.7215 23.487 14.7386C23.454 14.756 23.421 14.7735 23.387 14.7915C23.3117 14.8324 23.2363 14.8732 23.161 14.9143C23.0982 14.948 23.0982 14.948 23.0342 14.9825C22.8538 15.0803 22.6742 15.1798 22.4946 15.2793C22.4665 15.2949 22.4383 15.3105 22.4094 15.3266C22.3808 15.3423 22.3523 15.3581 22.323 15.3743C21.8705 15.6249 21.4168 15.8729 20.9615 16.1182C20.6023 16.3118 20.2462 16.5095 19.8918 16.7115C19.4663 16.954 19.036 17.1868 18.6036 17.4167C18.2311 17.615 17.8618 17.8175 17.4954 18.0267C17.3162 18.1282 17.137 18.2295 16.9576 18.3305C16.9306 18.3458 16.9036 18.361 16.8758 18.3767C16.6998 18.476 16.5234 18.5741 16.3463 18.6712C16.2889 18.7029 16.2316 18.7348 16.1746 18.7671C16.0945 18.8121 16.014 18.856 15.9335 18.8999C15.8874 18.9255 15.8413 18.9509 15.7939 18.9772C15.5466 19.0702 15.3572 19.0642 15.1164 18.9707C15.0649 18.9424 15.0134 18.914 14.9604 18.8848C14.9322 18.8695 14.9039 18.8541 14.8747 18.8384C14.7834 18.7887 14.6928 18.7379 14.6021 18.6872C14.5385 18.6523 14.4749 18.6175 14.4112 18.5827C14.2572 18.4984 14.1038 18.4133 13.9506 18.3279C13.8473 18.2703 13.7437 18.2133 13.64 18.1563C13.5109 18.0851 13.3822 18.0135 13.2535 17.9414C12.9595 17.7766 12.6644 17.6138 12.3694 17.4509C12.3257 17.4268 12.3257 17.4268 12.2812 17.4022C11.8354 17.1562 11.3883 16.9129 10.9403 16.6709C10.6067 16.4906 10.2747 16.3073 9.94346 16.1227C9.6751 15.9731 9.40626 15.8245 9.13733 15.6759C9.07885 15.6436 9.02037 15.6112 8.9619 15.5789C8.65061 15.4069 8.33885 15.2359 8.02539 15.0679C7.97423 15.0404 7.92306 15.0129 7.87033 14.9846C7.77442 14.9332 7.67839 14.8821 7.58225 14.8311C7.04464 14.5432 7.04464 14.5432 6.95101 14.356C6.94704 14.2678 6.946 14.1795 6.94644 14.0912C6.94667 14.0125 6.94667 14.0125 6.9469 13.9323C6.94749 13.8497 6.94749 13.8497 6.94809 13.7656C6.9483 13.7103 6.94851 13.655 6.94873 13.598C6.94929 13.4609 6.95005 13.324 6.95101 13.187C6.87462 13.1878 6.87462 13.1878 6.79668 13.1885C6.31647 13.1933 5.83625 13.1968 5.35601 13.1991C5.10912 13.2003 4.86225 13.202 4.61537 13.2046C4.37706 13.2071 4.13878 13.2086 3.90046 13.2092C3.80959 13.2097 3.71873 13.2105 3.62787 13.2117C3.50046 13.2134 3.37314 13.2136 3.24573 13.2135C3.20826 13.2143 3.17079 13.2152 3.13218 13.2161C2.94191 13.2143 2.82378 13.1962 2.6725 13.0757C2.55558 12.9532 2.55558 12.9532 2.51997 12.8363C2.52625 12.6248 2.53215 12.5175 2.6608 12.3424C2.88406 12.1851 3.09642 12.1985 3.36251 12.1998C3.42071 12.1997 3.4207 12.1997 3.48007 12.1997C3.60809 12.1998 3.73611 12.2001 3.86413 12.2005C3.95297 12.2006 4.04182 12.2006 4.13067 12.2007C4.36435 12.2009 4.59804 12.2013 4.83173 12.2019C5.11221 12.2024 5.39267 12.2026 5.67315 12.2029C6.0991 12.2034 6.52505 12.2043 6.95101 12.2051C6.95101 11.4181 6.95101 10.6311 6.95101 9.82031C6.74445 9.82303 6.53788 9.82574 6.32505 9.82853C6.16008 9.83003 5.99513 9.8313 5.83015 9.83241C5.65615 9.83364 5.48217 9.83529 5.30818 9.83795C5.14051 9.8405 4.97287 9.84189 4.80519 9.84249C4.7413 9.84292 4.67741 9.84377 4.61352 9.84503C4.11371 9.85452 4.11371 9.85452 3.96101 9.77C3.83766 9.65045 3.77589 9.53293 3.75673 9.36441C3.77532 9.17103 3.83406 9.07972 3.95838 8.93187C4.13344 8.84262 4.27695 8.8269 4.47197 8.82773C4.55479 8.82774 4.55479 8.82774 4.6393 8.82776C4.728 8.82849 4.728 8.82849 4.81851 8.82922C4.90986 8.82942 4.90986 8.82942 5.00307 8.82963C5.16442 8.82998 5.32577 8.8309 5.48712 8.83193C5.652 8.83289 5.81687 8.83332 5.98175 8.83379C6.30484 8.83474 6.62791 8.83656 6.95101 8.83835C6.95101 8.29828 6.95101 7.7582 6.95101 7.20176C6.78226 7.20298 6.6135 7.2042 6.43963 7.20548C5.88252 7.20934 5.32542 7.21193 4.76831 7.21388C4.43047 7.21508 4.09265 7.21672 3.75483 7.2194C3.46036 7.22172 3.1659 7.22324 2.87142 7.22375C2.71551 7.22406 2.55963 7.2249 2.40372 7.22648C2.22961 7.22817 2.05557 7.22841 1.88146 7.2283C1.80402 7.22956 1.80402 7.22956 1.72501 7.23084C1.37488 7.22848 1.37488 7.22848 1.192 7.08905C1.05272 6.89286 1.05037 6.79058 1.079 6.55625C1.10603 6.4536 1.10603 6.4536 1.21709 6.3367C1.38735 6.23942 1.51198 6.21398 1.70467 6.21418C1.77401 6.21408 1.77401 6.21408 1.84475 6.21399C1.8954 6.21416 1.94605 6.21432 1.99824 6.21449C2.05163 6.21449 2.10501 6.21448 2.16001 6.21448C2.33686 6.2145 2.51371 6.21488 2.69057 6.21524C2.81303 6.21532 2.93549 6.21539 3.05795 6.21544C3.34758 6.21558 3.63721 6.21597 3.92686 6.21644C4.25661 6.21696 4.58635 6.21722 4.9161 6.21746C5.5944 6.21794 6.2727 6.21876 6.95101 6.21981C6.94954 6.17064 6.94954 6.17064 6.94804 6.1205C6.94415 5.97143 6.94171 5.82239 6.93933 5.67329C6.93775 5.62173 6.93618 5.57016 6.93457 5.51704C6.92994 5.13364 6.92994 5.13364 7.03726 4.94991C7.15637 4.84811 7.27396 4.7762 7.41313 4.70394C7.46725 4.67547 7.52137 4.64699 7.57714 4.61765C7.63535 4.58766 7.69356 4.55768 7.75177 4.52768C7.81187 4.4962 7.87194 4.46466 7.93198 4.43306C8.02165 4.38585 8.11134 4.33869 8.20114 4.29171C8.42441 4.17491 8.64553 4.05483 8.86524 3.93149C8.93081 3.89483 8.99639 3.85818 9.06196 3.82154C9.09702 3.80193 9.13207 3.78232 9.16819 3.76212C9.42821 3.61715 9.68886 3.47333 9.94949 3.32946C9.97851 3.31343 10.0075 3.29741 10.0374 3.2809C10.4874 3.03249 10.939 2.78708 11.3913 2.54306C11.6256 2.41643 11.8583 2.28804 12.0888 2.15462C12.3901 1.98033 12.6966 1.81624 13.0034 1.65195C13.4548 1.41029 13.9026 1.16328 14.3473 0.909697C14.4284 0.863418 14.5098 0.817423 14.5913 0.771735C14.6758 0.723523 14.7592 0.673587 14.8417 0.622323C15.1782 0.420798 15.4451 0.323041 15.8233 0.472134ZM15.203 1.56519C15.1595 1.59001 15.116 1.61483 15.0713 1.64042C15.0245 1.66737 14.9777 1.69432 14.9294 1.72209C14.8321 1.77766 14.7347 1.8332 14.6374 1.88867C14.5878 1.91688 14.5384 1.9451 14.4874 1.97416C14.2608 2.10252 14.0327 2.22816 13.8042 2.35335C13.7639 2.37549 13.7234 2.39763 13.6819 2.42044C13.5893 2.47119 13.4965 2.5219 13.4039 2.57254C13.5227 2.70808 13.656 2.77996 13.8146 2.8635C13.8689 2.89228 13.9232 2.92107 13.9792 2.95071C14.0078 2.96577 14.0365 2.98083 14.066 2.99634C14.2164 3.07532 14.3663 3.15515 14.5163 3.23484C14.5607 3.25841 14.5607 3.25841 14.606 3.28246C14.8292 3.40091 15.0509 3.52168 15.2713 3.64509C15.3031 3.66282 15.3348 3.68056 15.3674 3.69884C15.4364 3.73737 15.5053 3.77591 15.5743 3.81446C15.8344 3.95943 16.095 4.10326 16.3556 4.24713C16.3992 4.27121 16.3992 4.27121 16.4437 4.29578C16.8895 4.5418 17.3366 4.7852 17.7846 5.02715C18.0175 5.15309 18.2502 5.27943 18.4814 5.4084C18.5466 5.44455 18.6119 5.48033 18.6774 5.51571C18.8748 5.62322 19.0661 5.73707 19.2553 5.85842C19.876 6.30335 19.876 6.30335 20.5768 6.44447C20.7386 6.37878 20.8682 6.27268 21.0035 6.16373C21.2359 5.9947 21.496 5.86838 21.749 5.73316C21.9018 5.65096 22.0534 5.56643 22.2049 5.48188C22.257 5.45291 22.3091 5.42394 22.3627 5.39411C22.4184 5.36306 22.4184 5.36306 22.4753 5.33136C22.3426 5.22167 22.2158 5.12291 22.0621 5.04514C22.0115 5.01914 22.0115 5.01914 21.9599 4.99259C21.9235 4.9742 21.8873 4.95579 21.8498 4.93683C21.5094 4.761 21.1744 4.57758 20.8416 4.38741C20.4389 4.15761 20.0323 3.93584 19.6229 3.71816C19.1784 3.48172 18.738 3.23906 18.3007 2.98936C17.9225 2.7743 17.5393 2.56887 17.1552 2.36478C16.7095 2.12796 16.269 1.88338 15.8321 1.63077C15.7906 1.60696 15.7492 1.58315 15.7064 1.55862C15.6702 1.53761 15.634 1.51661 15.5966 1.49497C15.4315 1.41172 15.3542 1.4783 15.203 1.56519ZM11.9689 3.34407C11.9406 3.35968 11.9122 3.37529 11.883 3.39138C11.8131 3.4299 11.7434 3.46878 11.6738 3.50774C11.6738 3.5386 11.6738 3.56945 11.6738 3.60125C11.7512 3.64131 11.7512 3.64131 11.8303 3.68217C12.2492 3.90002 12.6636 4.12413 13.0736 4.35818C13.4764 4.58794 13.8829 4.80975 14.2924 5.02743C14.7368 5.26386 15.1772 5.50653 15.6145 5.75622C15.9928 5.97131 16.376 6.17663 16.7602 6.38088C17.2813 6.65819 17.796 6.94614 18.308 7.23999C18.485 7.35188 18.485 7.35188 18.6828 7.37985C18.8104 7.33088 18.9274 7.27014 19.0472 7.20468C19.0927 7.18014 19.1382 7.15562 19.1851 7.13034C19.3007 7.07168 19.3007 7.07168 19.3423 6.96796C19.3055 6.94848 19.2686 6.929 19.2306 6.90893C18.5717 6.56025 17.9148 6.20951 17.2675 5.83948C16.9181 5.64052 16.5644 5.45001 16.2095 5.26122C15.8089 5.04822 15.411 4.83154 15.017 4.60659C14.5612 4.34624 14.0996 4.09724 13.6361 3.85084C13.2985 3.67114 12.9631 3.48857 12.6336 3.29434C12.358 3.13478 12.2317 3.19656 11.9689 3.34407ZM10.2184 4.31141C10.1795 4.33192 10.1406 4.35242 10.1005 4.37354C9.77386 4.54697 9.45049 4.72606 9.12827 4.90761C9.08206 4.93356 9.03585 4.95952 8.98824 4.98627C8.92311 5.02319 8.92311 5.02319 8.85666 5.06085C8.81824 5.0826 8.77981 5.10436 8.74023 5.12678C8.63723 5.18936 8.54236 5.25737 8.44733 5.33136C8.48259 5.35017 8.51783 5.36896 8.55415 5.38833C9.19794 5.73184 9.84058 6.07685 10.4775 6.43301C10.7375 6.57798 10.9981 6.7218 11.2588 6.86567C11.3024 6.88976 11.3024 6.88976 11.3469 6.91433C11.7926 7.16036 12.2398 7.40374 12.6877 7.64571C12.9536 7.78943 13.2187 7.93432 13.4827 8.08143C13.5146 8.0992 13.5466 8.11697 13.5794 8.13528C13.6498 8.17449 13.7202 8.21368 13.7905 8.25287C14.0407 8.39223 14.2912 8.53138 14.5417 8.67016C14.6029 8.7041 14.6641 8.73808 14.7253 8.77212C14.8116 8.82015 14.898 8.86799 14.9844 8.9158C15.0346 8.94368 15.0848 8.97155 15.1366 9.00028C15.3174 9.09519 15.3174 9.09519 15.5081 9.16568C15.6379 9.11093 15.7453 9.05452 15.8646 8.98156C15.9386 8.93832 16.0127 8.89516 16.0867 8.85206C16.1278 8.82784 16.1688 8.80364 16.211 8.7787C16.4542 8.63733 16.7008 8.50209 16.9469 8.36609C17.0866 8.28884 17.2261 8.21124 17.3657 8.13366C17.4479 8.088 17.5301 8.04234 17.6123 7.99667C17.4935 7.86113 17.3602 7.78925 17.2014 7.70571C17.1472 7.67693 17.0929 7.64816 17.037 7.6185C16.994 7.59592 16.994 7.59592 16.9501 7.57287C16.7998 7.4939 16.6499 7.41406 16.4999 7.33437C16.4702 7.31865 16.4406 7.30294 16.4101 7.28675C16.1869 7.1683 15.9653 7.04753 15.7448 6.92412C15.713 6.90639 15.6814 6.88865 15.6486 6.87038C15.5797 6.83184 15.5107 6.7933 15.4418 6.75476C15.1818 6.60978 14.9212 6.46595 14.6605 6.3221C14.6315 6.30603 14.6023 6.28997 14.5724 6.27344C14.1266 6.02741 13.6795 5.78402 13.2316 5.54206C12.8993 5.36247 12.5688 5.18004 12.2389 4.99619C11.9486 4.83446 11.6581 4.6733 11.3673 4.51247C11.3048 4.47788 11.2424 4.44326 11.1799 4.40859C11.0922 4.3599 11.0044 4.31135 10.9166 4.26284C10.8654 4.23447 10.8142 4.2061 10.7615 4.17687C10.5505 4.06587 10.4141 4.20816 10.2184 4.31141ZM7.88621 6.12628C7.88621 8.67236 7.88621 11.2184 7.88621 13.8417C8.74701 14.3295 8.74701 14.3295 9.61632 14.8003C10.0611 15.0363 10.5013 15.2793 10.9386 15.529C11.2895 15.7286 11.6446 15.92 12.0011 16.1095C12.4034 16.3235 12.8034 16.5412 13.1993 16.7671C13.5979 16.9943 13.9994 17.2157 14.4034 17.4334C14.4568 17.4622 14.5103 17.4911 14.5654 17.5209C14.6144 17.5473 14.6636 17.5737 14.7143 17.6009C14.7581 17.6245 14.8019 17.648 14.8471 17.6722C14.9352 17.7262 14.9352 17.7262 14.9938 17.7227C14.9938 15.1767 14.9938 12.6305 14.9938 10.0073C14.5925 9.79132 14.1913 9.57528 13.7779 9.35271C13.5379 9.21993 13.298 9.08692 13.0585 8.95322C12.798 8.80812 12.5369 8.66396 12.2758 8.5198C12.2322 8.49573 12.2322 8.49573 12.1877 8.47116C11.7419 8.22513 11.2948 7.98173 10.8468 7.73978C10.5141 7.55994 10.1832 7.37729 9.85287 7.19318C9.56908 7.03503 9.28488 6.87762 9.00057 6.72046C8.9403 6.68714 8.88007 6.65379 8.81985 6.6204C8.73456 6.57314 8.64922 6.52596 8.56386 6.4788C8.51436 6.45142 8.46487 6.42404 8.41387 6.39581C8.23987 6.30236 8.06286 6.21461 7.88621 6.12628ZM19.1554 8.23048C19.1554 8.77055 19.1554 9.31063 19.1554 9.86708C19.4142 9.76352 19.6588 9.62651 19.9034 9.49299C19.9034 8.95292 19.9034 8.41285 19.9034 7.85639C19.6247 7.85639 19.4014 8.09926 19.1554 8.23048Z" fill="black"/>
<path d="M0.842524 12.1934C0.877243 12.1924 0.911962 12.1915 0.947734 12.1905C1.1755 12.1889 1.32866 12.2205 1.52639 12.3454C1.62917 12.4722 1.66312 12.5553 1.68713 12.7165C1.66124 12.8977 1.59223 12.9979 1.47962 13.1403C1.29418 13.233 1.06399 13.2019 0.860058 13.2045C0.787274 13.2072 0.787274 13.2072 0.713021 13.2099C0.310436 13.2145 0.310436 13.2145 0.13802 13.0837C-0.00723203 12.9081 -0.00798498 12.8162 0.00541279 12.5969C0.0433807 12.4256 0.123056 12.3511 0.26387 12.2519C0.453793 12.1919 0.645078 12.1948 0.842524 12.1934Z" fill="black"/>
<path d="M2.64896 8.88512C2.78738 9.00587 2.86381 9.08058 2.90358 9.25919C2.91339 9.43184 2.88781 9.53184 2.79508 9.67712C2.63205 9.83535 2.507 9.83853 2.28711 9.83711C2.11939 9.81047 2.04723 9.71734 1.94756 9.58652C1.88055 9.4525 1.88647 9.36146 1.9008 9.21244C1.98208 9.0559 2.04553 8.95817 2.19597 8.86466C2.36748 8.82876 2.47988 8.8368 2.64896 8.88512Z" fill="black"/>
<path d="M23.7843 9.72671C23.915 9.82877 23.9605 9.89786 23.9887 10.0613C23.9993 10.2536 23.9875 10.3556 23.8837 10.5216C23.7306 10.6657 23.6225 10.6775 23.412 10.6756C23.2638 10.6543 23.1848 10.5799 23.0829 10.4749C23.0019 10.3131 23.0136 10.1374 23.0361 9.96051C23.2226 9.65188 23.4576 9.64297 23.7843 9.72671Z" fill="black"/>
</g>
<defs>
<clipPath id="clip0_19_403">
<rect width="24" height="20" fill="white"/>
</clipPath>
</defs>
</svg>
