<svg width="19" height="20" viewBox="0 0 19 20" fill="none" xmlns="http://www.w3.org/2000/svg">
<path d="M4.87075 0.00141356C4.97914 0.00118772 5.08753 0.000897226 5.19593 0.000530255C5.45809 -0.000203897 5.72024 -5.21495e-05 5.9824 0.00043255C6.19573 0.000810424 6.40907 0.000858229 6.6224 0.000678107C6.65293 0.000652617 6.68346 0.000627128 6.71491 0.000600865C6.77696 0.000547673 6.839 0.000493741 6.90105 0.000439079C7.48091 -3.36447e-05 8.06076 0.000507573 8.64062 0.00140395C9.13662 0.00214699 9.63261 0.00201786 10.1286 0.00125111C10.7066 0.000358034 11.2846 1.20285e-05 11.8626 0.000521232C11.9244 0.000574213 11.9862 0.000626508 12.048 0.000678107C12.0784 0.00070377 12.1087 0.000729433 12.1401 0.000755874C12.3528 0.000898641 12.5655 0.000658942 12.7782 0.000265643C13.038 -0.000204106 13.2977 -6.79976e-05 13.5575 0.000811382C13.6896 0.0012443 13.8218 0.00133544 13.9539 0.000869744C15.3526 -0.00360125 15.3526 -0.00360124 15.963 0.345233C15.9893 0.359553 16.0157 0.373873 16.0428 0.388627C16.8118 0.817543 17.3891 1.45217 17.6573 2.31117C17.6749 2.36645 17.6749 2.36645 17.6929 2.42284C17.8631 2.96585 18.0124 3.51557 18.1638 4.06432C18.1968 4.18368 18.23 4.303 18.2632 4.42231C18.3032 4.56628 18.3431 4.71028 18.383 4.85428C18.3904 4.88108 18.3979 4.90788 18.4055 4.9355C18.7201 6.0702 18.7577 7.04151 18.2263 8.11931C18.0917 8.36237 17.9196 8.5572 17.7296 8.7561C17.693 8.7947 17.6565 8.8333 17.6188 8.87307C17.3396 9.16401 17.3396 9.16401 17.2429 9.21355C17.2785 9.53752 17.3141 9.86149 17.3498 10.1855C17.3663 10.336 17.3829 10.4865 17.3994 10.637C17.4154 10.7824 17.4314 10.9279 17.4474 11.0733C17.4537 11.1304 17.4599 11.1874 17.4662 11.2444C17.4981 11.5355 17.5306 11.8266 17.5652 12.1174C17.5949 12.3667 17.6198 12.6115 17.6206 12.8628C17.6213 12.9157 17.6219 12.9687 17.6226 13.0233C17.6038 13.2039 17.5476 13.3073 17.4254 13.4365C17.2306 13.5968 17.0927 13.6369 16.8487 13.6333C16.6298 13.6059 16.4887 13.445 16.355 13.277C16.2791 13.1564 16.2695 13.0368 16.2537 12.8958C16.2501 12.8658 16.2465 12.8359 16.2428 12.805C16.2313 12.7065 16.2209 12.608 16.2106 12.5094C16.2028 12.4406 16.1949 12.3717 16.1869 12.3028C16.1662 12.1219 16.1466 11.9409 16.1271 11.7598C16.1111 11.6125 16.0943 11.4652 16.0775 11.3178C16.0574 11.1415 16.0376 10.9652 16.018 10.7888C16.0124 10.7387 16.0124 10.7387 16.0067 10.6876C15.9961 10.5925 15.9858 10.4974 15.9755 10.4023C15.9697 10.3483 15.9638 10.2943 15.9577 10.2386C15.9455 10.0902 15.943 9.94466 15.9453 9.79577C15.9159 9.80242 15.8866 9.80908 15.8564 9.81594C14.9679 9.98303 14.0731 9.75927 13.3342 9.24523C12.9717 8.97515 12.6744 8.67435 12.4172 8.29865C12.3157 8.40196 12.2152 8.50575 12.117 8.61234C11.3885 9.39164 10.5031 9.82587 9.44422 9.85693C8.31799 9.86733 7.42534 9.48297 6.61815 8.67293C6.50685 8.55081 6.39903 8.42624 6.29373 8.29865C6.16227 8.42911 6.04118 8.56508 5.92115 8.70672C5.38886 9.31274 4.6581 9.74212 3.86057 9.83735C3.70423 9.84307 3.54811 9.84316 3.39168 9.84255C3.34999 9.84271 3.30831 9.84287 3.26535 9.84304C3.22502 9.84298 3.18469 9.84293 3.14314 9.84288C3.08844 9.8428 3.08844 9.8428 3.03264 9.84273C2.92643 9.83728 2.829 9.81818 2.7251 9.79577C2.72366 9.83066 2.72222 9.86556 2.72073 9.90152C2.69475 10.4152 2.63532 10.9237 2.57512 11.4342C2.55598 11.5967 2.53713 11.7593 2.51838 11.922C2.46508 12.3839 2.41151 12.8458 2.35715 13.3076C2.32699 13.5638 2.29724 13.8201 2.2679 14.0764C2.25247 14.2111 2.23678 14.3458 2.22071 14.4804C2.0787 15.6716 1.98208 16.649 2.66902 17.6699C3.06907 18.1842 3.72003 18.4941 4.34721 18.5705C4.44164 18.5742 4.53615 18.576 4.63065 18.5763C4.67124 18.5764 4.67124 18.5764 4.71266 18.5766C4.80256 18.577 4.89246 18.577 4.98235 18.5771C5.04713 18.5773 5.1119 18.5775 5.17667 18.5777C5.31576 18.5782 5.45485 18.5785 5.59394 18.5788C5.81395 18.5792 6.03395 18.5801 6.25396 18.581C6.87944 18.5836 7.50491 18.5858 8.13039 18.5872C8.47613 18.588 8.82187 18.5892 9.16761 18.5909C9.35043 18.5917 9.53325 18.5924 9.71608 18.5925C9.88793 18.5926 10.0598 18.5932 10.2316 18.5943C10.2946 18.5946 10.3576 18.5947 10.4206 18.5946C10.5068 18.5944 10.5929 18.595 10.679 18.5958C10.7512 18.596 10.7512 18.596 10.8249 18.5962C11.0002 18.6172 11.1376 18.6766 11.2673 18.8007C11.4524 19.0489 11.4748 19.2163 11.4439 19.527C11.3553 19.7121 11.2436 19.826 11.0789 19.9429C10.9423 19.9896 10.8389 19.9899 10.6948 19.9903C10.6546 19.9905 10.6546 19.9905 10.6137 19.9907C10.5237 19.991 10.4338 19.9911 10.3439 19.9912C10.2795 19.9914 10.2151 19.9916 10.1506 19.9918C9.97533 19.9923 9.80001 19.9926 9.6247 19.9928C9.51494 19.9929 9.40518 19.9931 9.29542 19.9933C8.95138 19.9938 8.60734 19.9942 8.2633 19.9944C7.86743 19.9946 7.47156 19.9953 7.07569 19.9965C6.76906 19.9974 6.46244 19.9978 6.15581 19.9979C5.97303 19.9979 5.79027 19.9982 5.60749 19.9989C5.43501 19.9996 5.26253 19.9997 5.09004 19.9993C5.02729 19.9993 4.96454 19.9995 4.90179 19.9999C3.72486 20.0072 2.68164 19.6482 1.82787 18.794C1.04688 17.9886 0.727239 16.961 0.725863 15.8431C0.729545 15.2204 0.802656 14.6068 0.877229 13.9896C0.897063 13.8241 0.916081 13.6586 0.935195 13.493C0.971272 13.1816 1.00803 12.8703 1.04507 12.5589C1.09143 12.1689 1.1369 11.7788 1.18236 11.3886C1.22876 10.9906 1.27524 10.5926 1.32231 10.1946C1.32946 10.134 1.33661 10.0735 1.34376 10.013C1.35701 9.90075 1.37032 9.78855 1.38367 9.67635C1.38947 9.62724 1.39527 9.57814 1.40124 9.52754C1.40633 9.48471 1.41141 9.44189 1.41665 9.39777C1.42888 9.29989 1.42888 9.29989 1.42742 9.21355C1.36997 9.15399 1.36997 9.15399 1.29308 9.09139C0.546932 8.43321 0.134286 7.69099 0.00807328 6.67678C-0.0300591 6.13726 0.0714052 5.62035 0.217331 5.10445C0.235934 5.03722 0.235934 5.03722 0.254912 4.96864C0.294796 4.82488 0.335153 4.68127 0.375582 4.53767C0.40337 4.43836 0.431147 4.33904 0.458914 4.23972C0.513466 4.04488 0.568255 3.85012 0.623214 3.6554C0.67712 3.46424 0.730264 3.27289 0.782729 3.08131C0.987056 2.33624 1.19715 1.68978 1.71128 1.10419C1.73523 1.07577 1.75917 1.04736 1.78384 1.01809C2.60363 0.105844 3.73438 -0.0025905 4.87075 0.00141356ZM2.92786 1.81116C2.88437 1.84032 2.84088 1.86948 2.79607 1.89953C2.31489 2.41541 2.16903 3.1278 1.98074 3.79383C1.96486 3.84975 1.94898 3.90567 1.93309 3.96159C1.9002 4.07747 1.8674 4.19339 1.83465 4.30932C1.793 4.45678 1.75108 4.60415 1.70909 4.75151C1.67637 4.86647 1.64381 4.98147 1.61129 5.09649C1.58853 5.17691 1.56561 5.25728 1.5427 5.33765C1.32448 6.11297 1.25581 6.731 1.63857 7.47147C1.9414 7.97213 2.38385 8.30043 2.93848 8.44778C3.52858 8.53928 4.06769 8.45445 4.575 8.1224C5.10261 7.72236 5.36225 7.19896 5.46593 6.543C5.47173 6.50327 5.47753 6.46353 5.48351 6.4226C5.49013 6.37962 5.49676 6.33665 5.50358 6.29237C5.52421 6.1572 5.54411 6.02195 5.56378 5.88663C5.57003 5.84407 5.57627 5.80151 5.5827 5.75766C5.62742 5.45143 5.67022 5.14493 5.71269 4.83836C5.72609 4.74219 5.73949 4.64601 5.75291 4.54984C5.78065 4.35077 5.80831 4.15168 5.83591 3.95259C5.87132 3.69723 5.9069 3.4419 5.94255 3.18658C5.97009 2.98913 5.99755 2.79167 6.02499 2.5942C6.0381 2.49993 6.05123 2.40567 6.06438 2.31141C6.08261 2.18069 6.10072 2.04996 6.11881 1.91922C6.12424 1.8804 6.12968 1.84159 6.13527 1.8016C6.14016 1.76613 6.14504 1.73066 6.15007 1.69411C6.15435 1.66332 6.15862 1.63253 6.16303 1.60081C6.17439 1.51294 6.17439 1.51294 6.17207 1.39529C5.85757 1.39211 5.54307 1.38994 5.22855 1.38844C5.12173 1.38781 5.01491 1.38697 4.90809 1.38588C4.75386 1.38435 4.59965 1.38366 4.44542 1.38311C4.37467 1.38214 4.37467 1.38214 4.3025 1.38116C3.77226 1.38105 3.36848 1.51172 2.92786 1.81116ZM7.51031 1.39529C7.40185 2.15074 7.40185 2.15074 7.29408 2.9063C7.25024 3.21479 7.20632 3.52326 7.16191 3.83167C7.12608 4.0805 7.09063 4.32938 7.05542 4.57831C7.04197 4.67294 7.02839 4.76756 7.01467 4.86216C6.87834 5.8035 6.80588 6.63714 7.3481 7.46692C7.73062 7.99179 8.2915 8.36573 8.92965 8.465C9.39676 8.49778 9.83116 8.48847 10.2679 8.29865C10.304 8.28311 10.34 8.26756 10.3772 8.25154C10.9465 7.98194 11.3523 7.53003 11.5973 6.93962C11.8658 6.18927 11.7468 5.49065 11.6353 4.7214C11.6216 4.62521 11.608 4.52902 11.5944 4.43282C11.5587 4.18125 11.5226 3.92975 11.4864 3.67826C11.4429 3.37564 11.4 3.07294 11.3569 2.77024C11.2917 2.31186 11.2258 1.85359 11.16 1.39529C9.95563 1.39529 8.75122 1.39529 7.51031 1.39529ZM12.4983 1.39529C12.5786 2.07207 12.6664 2.74743 12.7606 3.42231C12.7703 3.49173 12.7703 3.49173 12.7801 3.56256C12.8141 3.80627 12.8482 4.04997 12.8823 4.29366C12.9174 4.5438 12.952 4.79399 12.9866 5.04419C13.0135 5.23852 13.0407 5.43281 13.068 5.62709C13.0809 5.71935 13.0937 5.81163 13.1064 5.90393C13.1242 6.03266 13.1423 6.16132 13.1605 6.28997C13.1656 6.32735 13.1706 6.36473 13.1758 6.40324C13.2762 7.10063 13.5325 7.66038 14.0798 8.10631C14.5478 8.44407 15.0632 8.51518 15.6208 8.465C16.1189 8.37038 16.5585 8.1222 16.878 7.71644C17.1912 7.24359 17.372 6.75392 17.324 6.17774C17.3025 6.068 17.2794 5.96 17.2536 5.85135C17.2464 5.82039 17.2391 5.78943 17.2317 5.75753C17.1554 5.43618 17.0685 5.11824 16.9786 4.80067C16.9659 4.75578 16.9659 4.75578 16.953 4.70998C16.9084 4.55214 16.8636 4.39437 16.8187 4.23665C16.7729 4.07572 16.7278 3.91458 16.6829 3.75337C16.6477 3.6274 16.6119 3.5016 16.5759 3.37585C16.5591 3.31655 16.5424 3.25719 16.526 3.19775C16.3279 2.48154 16.021 1.93612 15.3807 1.55709C15.0198 1.38436 14.6225 1.38365 14.2329 1.38717C14.183 1.38729 14.1332 1.38741 14.0819 1.38753C13.924 1.38799 13.7662 1.38903 13.6084 1.39009C13.5009 1.39051 13.3933 1.39089 13.2857 1.39123C13.0232 1.39207 12.7608 1.39363 12.4983 1.39529Z" fill="white"/>
<path d="M11.8824 11.9478C11.9667 11.9912 12.051 12.0346 12.1353 12.078C12.5083 12.2705 12.8801 12.4651 13.249 12.6658C13.6975 12.9097 14.1523 13.1405 14.607 13.3721C15.1004 13.6234 15.5927 13.8758 16.0792 14.1408C16.282 14.2509 16.4864 14.357 16.6928 14.46C16.7199 14.4736 16.7469 14.4871 16.7748 14.5011C16.883 14.5553 16.9911 14.6094 17.0996 14.6627C17.9022 15.0579 18.5427 15.5691 18.865 16.4495C19.0927 17.1734 19.0281 17.9204 18.7028 18.599C18.3303 19.2562 17.756 19.7184 17.0392 19.9248C16.8108 19.9825 16.593 19.9983 16.3584 19.9973C16.3254 19.998 16.2925 19.9987 16.2585 19.9994C15.7914 19.9997 15.3926 19.8448 14.9796 19.6335C14.9413 19.6144 14.9029 19.5953 14.8634 19.5757C14.5801 19.4335 14.301 19.2836 14.0217 19.1333C13.6551 18.9362 13.2863 18.7439 12.9158 18.5545C12.8902 18.5414 12.8646 18.5282 12.8381 18.5147C12.6539 18.4205 12.4697 18.3265 12.2854 18.2325C12.0747 18.1251 11.8642 18.0176 11.6536 17.9099C11.6282 17.8969 11.6028 17.8839 11.5766 17.8705C11.2437 17.7001 10.9131 17.5261 10.5847 17.3469C10.3452 17.2166 10.1031 17.0921 9.85998 16.969C9.8221 16.9498 9.78422 16.9306 9.74519 16.9108C9.59051 16.8324 9.4358 16.7541 9.28085 16.6763C8.67054 16.3694 8.12737 16.0618 7.63196 15.5762C7.6041 15.5507 7.57624 15.5252 7.54753 15.499C7.16098 15.1323 6.92956 14.6514 6.70179 14.1726C6.68261 14.1328 6.66344 14.093 6.64368 14.0519C6.39096 13.5061 6.3497 13.0111 6.52374 12.4323C6.60523 12.2182 6.71782 12.05 6.86146 11.875C6.88175 11.8486 6.90203 11.8222 6.92293 11.7951C8.16687 10.339 10.5409 11.2502 11.8824 11.9478ZM8.4785 12.5274C8.43812 12.5335 8.39774 12.5397 8.35614 12.5461C8.07899 12.5956 7.95121 12.674 7.77897 12.9068C7.68989 13.2266 7.87301 13.5282 8.01468 13.801C8.03672 13.8435 8.05876 13.886 8.08147 13.9298C8.57877 14.8628 9.44566 15.2286 10.3385 15.6792C10.5459 15.784 10.7531 15.8894 10.9603 15.9948C11.0111 16.0206 11.0619 16.0464 11.1127 16.0722C11.4061 16.2213 11.6982 16.3723 11.9871 16.5302C12.3136 16.7087 12.6437 16.8793 12.9748 17.0486C13.0014 17.0622 13.028 17.0758 13.0554 17.0899C13.2482 17.1884 13.4409 17.2868 13.6338 17.3852C13.8535 17.4973 14.0731 17.6094 14.2927 17.7218C14.3323 17.742 14.3323 17.742 14.3726 17.7626C14.724 17.9424 15.0738 18.1248 15.4194 18.316C15.8771 18.5677 16.2606 18.7141 16.7867 18.5845C17.1347 18.4414 17.4033 18.1638 17.5674 17.8218C17.7075 17.4522 17.6762 17.0995 17.5268 16.7406C17.5067 16.6917 17.4867 16.6428 17.466 16.5924C17.3097 16.3255 16.9952 16.1361 16.7158 16.0336C16.6133 16.1963 16.5158 16.3591 16.4282 16.5307C16.413 16.56 16.3978 16.5894 16.3821 16.6196C16.3516 16.6785 16.3217 16.7377 16.2925 16.7973C16.1815 17.0098 16.0806 17.1006 15.8641 17.198C15.6689 17.2434 15.4923 17.2448 15.3187 17.1355C15.1396 16.9775 15.0457 16.8659 15.0227 16.621C15.0207 16.2934 15.1837 16.0467 15.3441 15.7745C15.3643 15.7399 15.3846 15.7052 15.4056 15.6696C15.4245 15.6386 15.4434 15.6076 15.4628 15.5756C15.5126 15.4874 15.5126 15.4874 15.4586 15.3682C15.3746 15.311 15.3746 15.311 15.2688 15.2615C15.2084 15.2312 15.2084 15.2312 15.1467 15.2002C15.1041 15.1793 15.0615 15.1584 15.0176 15.1369C14.724 14.9911 14.4334 14.8419 14.1454 14.6848C13.8051 14.4997 13.4614 14.3217 13.1167 14.1453C13.0901 14.1318 13.0636 14.1182 13.0362 14.1042C12.8434 14.0056 12.6506 13.9071 12.4577 13.8087C12.238 13.6967 12.0183 13.5845 11.7987 13.4722C11.7724 13.4587 11.746 13.4452 11.7189 13.4313C11.3666 13.2511 11.016 13.0682 10.6697 12.8764C9.9393 12.4745 9.29456 12.3928 8.4785 12.5274Z" fill="white"/>
</svg>
