<svg width="22" height="22" viewBox="0 0 22 22" fill="none" xmlns="http://www.w3.org/2000/svg">
<path d="M1.9668 9.49609V14.4979C1.9668 17.3273 1.9668 18.742 2.84548 19.621C3.72416 20.5001 5.13837 20.5001 7.9668 20.5001H13.9668C16.7952 20.5001 18.2094 20.5001 19.0881 19.621C19.9668 18.742 19.9668 17.3273 19.9668 14.4979V9.49609" stroke="white" stroke-width="1.5" stroke-linecap="round"/>
<path d="M13.9668 15.9932C13.2827 16.6004 12.1936 16.9932 10.9668 16.9932C9.74 16.9932 8.65089 16.6004 7.9668 15.9932" stroke="white" stroke-width="1.5" stroke-linecap="round"/>
<path d="M9.1038 7.41848C8.82182 8.43688 7.79628 10.1936 5.84777 10.4482C4.12733 10.673 2.82246 9.922 2.48916 9.608C2.12168 9.3534 1.28416 8.53872 1.07906 8.02952C0.873947 7.52032 1.11324 6.41706 1.28416 5.96726L1.96743 3.98888C2.13423 3.49196 2.5247 2.31666 2.92501 1.91913C3.32533 1.5216 4.13581 1.5043 4.4694 1.5043H11.4749C13.2781 1.52978 17.2209 1.48822 18.0003 1.50431C18.7797 1.52039 19.2481 2.17373 19.3848 2.45379C20.5477 5.27061 21 6.88382 21 7.57124C20.8482 8.30456 20.22 9.6873 18.0003 10.2955C15.6933 10.9275 14.3854 9.6981 13.9751 9.2261M8.15522 9.2261C8.47997 9.625 9.4987 10.4279 10.9754 10.4482C12.4522 10.4686 13.7273 9.4383 14.1802 8.92062C14.3084 8.76786 14.5853 8.31467 14.8725 7.41848" stroke="white" stroke-width="1.5" stroke-linecap="round" stroke-linejoin="round"/>
</svg>
