<svg width="13" height="14" viewBox="0 0 13 14" fill="none" xmlns="http://www.w3.org/2000/svg">
<path d="M2.34891 0.0114148C2.37898 0.0112862 2.40905 0.0111575 2.44002 0.0110249C2.4893 0.0110329 2.4893 0.0110329 2.53958 0.0110411C2.57462 0.0109349 2.60967 0.0108288 2.64577 0.0107195C2.74297 0.0104565 2.84016 0.0103231 2.93736 0.0102465C3.04223 0.0101336 3.1471 0.00985714 3.25197 0.00960533C3.50523 0.00903539 3.75849 0.00874437 4.01175 0.00848754C4.13114 0.00836092 4.25054 0.00820605 4.36993 0.00805492C4.76705 0.0075639 5.16417 0.00714561 5.56129 0.00693652C5.66431 0.0068814 5.76732 0.00682597 5.87034 0.00676952C5.89594 0.00675556 5.92154 0.0067416 5.94792 0.00672721C6.36227 0.00648787 6.77661 0.00575695 7.19095 0.00481896C7.61676 0.00386289 8.04257 0.00334444 8.46839 0.00325235C8.70729 0.00319 8.9462 0.00293951 9.1851 0.00219998C9.38866 0.00157132 9.59221 0.00134214 9.79577 0.00162177C9.89949 0.00175233 10.0032 0.00170179 10.1069 0.00113799C10.9086 -0.0029806 10.9086 -0.00298061 11.2519 0.13074C11.2847 0.143512 11.2847 0.143512 11.3182 0.156541C11.8571 0.39053 12.1987 0.838033 12.4229 1.37184C12.4691 1.51355 12.5007 1.65696 12.53 1.80298C12.5389 1.84503 12.5478 1.88708 12.5568 1.92912C12.577 2.0245 12.5968 2.11996 12.6164 2.21546C12.6488 2.37145 12.6834 2.52691 12.7182 2.68239C12.7504 2.82687 12.7819 2.97149 12.8134 3.11614C12.8289 3.18729 12.8447 3.2584 12.8607 3.32945C13.0327 4.09485 13.1148 4.84099 12.6859 5.53477C12.4862 5.83044 12.2151 6.07467 11.9088 6.24965C11.9972 6.70992 12.0925 7.16858 12.1895 7.62706C12.1957 7.65644 12.2019 7.68582 12.2083 7.71609C12.267 7.99321 12.3257 8.2703 12.3845 8.54737C12.417 8.70034 12.4493 8.85332 12.4817 9.00631C12.4939 9.06405 12.5061 9.12178 12.5184 9.1795C12.5355 9.25982 12.5525 9.34016 12.5694 9.4205C12.5745 9.44391 12.5795 9.46731 12.5846 9.49143C12.7872 10.4564 12.6045 11.4791 12.0828 12.3116C11.617 13.0274 10.9389 13.5419 10.1398 13.8207C10.1118 13.8307 10.1118 13.8307 10.0832 13.8409C9.66922 13.9769 9.25098 13.9977 8.81971 13.9965C8.76372 13.9967 8.70773 13.9969 8.65175 13.9971C8.50114 13.9976 8.35054 13.9976 8.19994 13.9975C8.07354 13.9974 7.94715 13.9975 7.82075 13.9977C7.52222 13.9981 7.22368 13.9981 6.92515 13.9977C6.61866 13.9974 6.31217 13.9978 6.00568 13.9986C5.74115 13.9992 5.47662 13.9994 5.21209 13.9993C5.05471 13.9992 4.89733 13.9992 4.73995 13.9997C4.5918 14.0002 4.44367 14.0001 4.29552 13.9995C4.24164 13.9994 4.18777 13.9995 4.13389 13.9998C3.06212 14.0054 2.11597 13.604 1.35325 12.8438C0.70378 12.1406 0.369165 11.2309 0.359166 10.276C0.358766 10.2511 0.358365 10.2261 0.357953 10.2004C0.361582 9.68757 0.498963 9.17386 0.607631 8.67592C0.622253 8.60833 0.636859 8.54072 0.651449 8.47312C0.689491 8.29699 0.727703 8.12091 0.765969 7.94483C0.827537 7.66147 0.888914 7.37807 0.950155 7.09464C0.971529 6.99589 0.99302 6.89716 1.01452 6.79844C1.02753 6.73837 1.04054 6.67829 1.05354 6.61821C1.06255 6.57706 1.06255 6.57706 1.07174 6.53507C1.07715 6.51001 1.08255 6.48494 1.08812 6.45911C1.09285 6.43734 1.09759 6.41557 1.10246 6.39314C1.11498 6.33166 1.11498 6.33166 1.11248 6.24965C1.05362 6.20606 1.05362 6.20606 0.976814 6.16486C0.563107 5.90896 0.286137 5.52049 0.112821 5.06627C0.103654 5.04231 0.094486 5.01835 0.0850406 4.99367C-0.128269 4.30789 0.10922 3.54209 0.257134 2.86761C0.281377 2.75623 0.30491 2.64471 0.328423 2.53317C0.351415 2.42429 0.374683 2.31547 0.398049 2.20667C0.409058 2.1554 0.420022 2.10412 0.430937 2.05283C0.583519 1.33948 0.789245 0.733533 1.41774 0.309328C1.69173 0.132655 2.02208 0.0120659 2.34891 0.0114148ZM1.61783 1.25437C1.36731 1.56386 1.32064 1.9392 1.24458 2.3207C1.2311 2.38658 1.21757 2.45244 1.20399 2.5183C1.18349 2.61784 1.16303 2.7174 1.14279 2.817C1.10142 3.02037 1.05819 3.22321 1.01285 3.42572C1.00206 3.4743 0.991269 3.52288 0.980481 3.57146C0.965536 3.63869 0.950502 3.70589 0.935116 3.77302C0.829816 4.23359 0.812639 4.61949 1.04643 5.04463C1.30617 5.44647 1.68981 5.64355 2.14427 5.74004C2.63247 5.82359 3.0974 5.70493 3.51167 5.44149C3.81288 5.22356 4.0003 4.93865 4.0829 4.57561C4.10681 4.40802 4.12206 4.23988 4.13724 4.0713C4.14194 4.02148 4.14666 3.97166 4.15142 3.92185C4.16388 3.79047 4.176 3.65905 4.18805 3.52763C4.19994 3.39843 4.21213 3.26925 4.22432 3.14008C4.23882 2.98603 4.25329 2.83198 4.26757 2.67792C4.29243 2.40973 4.31779 2.14161 4.3441 1.87357C4.34677 1.84629 4.34944 1.81901 4.35219 1.7909C4.365 1.66007 4.37789 1.52925 4.39092 1.39844C4.39553 1.35152 4.40013 1.30461 4.40473 1.25769C4.40686 1.23664 4.40899 1.21558 4.41119 1.19389C4.4223 1.07955 4.42773 0.967191 4.42564 0.852309C4.15873 0.850296 3.89181 0.848761 3.62489 0.847823C3.50092 0.847373 3.37696 0.846763 3.25299 0.845777C3.13317 0.844831 3.01336 0.844317 2.89354 0.844094C2.84801 0.843935 2.80249 0.843625 2.75697 0.843154C2.32082 0.83883 1.924 0.908056 1.61783 1.25437ZM5.25393 0.881172C5.24278 0.971663 5.23333 1.0618 5.22492 1.15257C5.22081 1.19539 5.22081 1.19539 5.21661 1.23907C5.2075 1.33423 5.19858 1.42942 5.18967 1.52461C5.18338 1.59099 5.17709 1.65738 5.17079 1.72376C5.15754 1.86359 5.1444 2.00343 5.13132 2.14328C5.11471 2.32077 5.09784 2.49823 5.0809 2.67569C5.0678 2.81324 5.05485 2.95081 5.04194 3.08838C5.03579 3.15368 5.0296 3.21897 5.02336 3.28426C4.99228 3.60998 4.9643 3.93545 4.94812 4.26232C4.94675 4.28819 4.94538 4.31406 4.94396 4.34072C4.92868 4.69358 5.02508 4.97273 5.24869 5.24486C5.56475 5.58555 6.01425 5.74323 6.46959 5.76101C6.9539 5.751 7.38691 5.61013 7.74773 5.27733C8.02384 4.98227 8.09517 4.63179 8.0847 4.24149C8.07211 3.96236 8.03992 3.68396 8.01282 3.40599C8.00576 3.33215 7.99871 3.25831 7.99169 3.18447C7.97514 3.011 7.95842 2.83755 7.94161 2.6641C7.92247 2.46637 7.90354 2.26861 7.88463 2.07085C7.84578 1.66464 7.80667 1.25847 7.76736 0.852309C7.44387 0.851642 7.12038 0.851128 6.79688 0.850814C6.64669 0.850663 6.49649 0.850458 6.3463 0.850132C6.20148 0.849819 6.05666 0.849646 5.91184 0.849571C5.85646 0.849517 5.80108 0.849413 5.7457 0.849258C5.66841 0.849049 5.59113 0.849019 5.51384 0.849033C5.49071 0.848929 5.46757 0.848825 5.44374 0.848718C5.34033 0.839035 5.34033 0.839035 5.25393 0.881172ZM8.59566 0.881172C8.64765 1.55759 8.70909 2.23292 8.77284 2.9083C8.78574 3.04517 8.79841 3.18206 8.81089 3.31897C8.82615 3.4864 8.84181 3.65378 8.85775 3.82114C8.8637 3.88424 8.8695 3.94735 8.87517 4.01048C8.92022 4.51097 8.9745 4.99231 9.36504 5.35129C9.40317 5.38206 9.44183 5.41218 9.48107 5.44149C9.49764 5.45444 9.5142 5.46739 9.53127 5.48073C9.90254 5.74384 10.4148 5.81249 10.8565 5.75031C11.2803 5.67179 11.6975 5.48717 11.9606 5.13122C12.1759 4.79698 12.2306 4.44425 12.1549 4.05515C12.1479 4.02212 12.1409 3.98909 12.1337 3.95506C12.1227 3.90068 12.1227 3.90068 12.1115 3.84521C12.0937 3.75801 12.0755 3.6709 12.0572 3.58383C12.0314 3.46127 12.0061 3.33859 11.9811 3.21586C11.9459 3.04299 11.9103 2.87022 11.8742 2.69753C11.8538 2.59993 11.8336 2.50231 11.8136 2.40461C11.7909 2.29313 11.7673 2.18182 11.7437 2.07052C11.737 2.03726 11.7303 2.00401 11.7234 1.96974C11.6299 1.53743 11.453 1.22677 11.0882 0.984447C10.7769 0.832584 10.4703 0.840798 10.1326 0.845094C10.0809 0.845438 10.0291 0.845758 9.97739 0.846052C9.51658 0.8494 9.05609 0.862753 8.59566 0.881172ZM4.48277 5.64353C4.47264 5.65685 4.46252 5.67017 4.45208 5.68389C4.05281 6.17823 3.4456 6.47993 2.82619 6.56714C2.75608 6.56942 2.68591 6.57025 2.61577 6.56996C2.58024 6.56988 2.54472 6.56981 2.50812 6.56974C2.463 6.56947 2.41788 6.56921 2.37277 6.56894C2.29571 6.56861 2.21864 6.56829 2.14158 6.56798C2.1033 6.56782 2.06501 6.56766 2.02673 6.5675C1.99836 6.56738 1.97 6.56726 1.94077 6.56714C1.78751 7.21562 1.64587 7.86642 1.50767 8.51833C1.47855 8.6557 1.4492 8.79301 1.41981 8.93032C1.39687 9.03766 1.37407 9.14503 1.3513 9.25242C1.34054 9.3031 1.32972 9.35378 1.31885 9.40444C1.23906 9.77225 1.23906 9.77225 1.19817 10.1461C1.1968 10.1682 1.19544 10.1904 1.19404 10.2131C1.15981 10.9076 1.43523 11.621 1.88365 12.1377C1.90084 12.1592 1.91804 12.1807 1.93575 12.2028C2.40041 12.7679 3.11289 13.0812 3.82585 13.1478C4.00298 13.1577 4.18047 13.1558 4.35781 13.1553C4.41012 13.1554 4.46243 13.1555 4.51474 13.1556C4.65566 13.1559 4.79658 13.1558 4.9375 13.1556C5.08567 13.1555 5.23384 13.1556 5.38201 13.1557C5.63074 13.1558 5.87946 13.1557 6.12819 13.1554C6.41487 13.1551 6.70155 13.1552 6.98823 13.1555C7.23532 13.1557 7.4824 13.1558 7.72949 13.1556C7.87665 13.1555 8.02381 13.1555 8.17097 13.1557C8.30938 13.1559 8.44779 13.1558 8.5862 13.1554C8.6367 13.1554 8.6872 13.1554 8.73769 13.1555C9.117 13.1564 9.4886 13.1423 9.85059 13.0144C9.87211 13.0069 9.89364 12.9993 9.91583 12.9916C10.6648 12.7201 11.2286 12.1804 11.575 11.4594C11.7983 10.9442 11.8772 10.399 11.7888 9.84443C11.785 9.82084 11.7813 9.79725 11.7775 9.77295C11.7264 9.46097 11.6591 9.15239 11.5926 8.84346C11.5787 8.77831 11.5648 8.71316 11.5509 8.64801C11.5221 8.51278 11.4931 8.37759 11.4641 8.2424C11.4268 8.06881 11.3898 7.89517 11.3528 7.72151C11.3242 7.58759 11.2956 7.4537 11.2669 7.31981C11.2532 7.25572 11.2395 7.19162 11.2259 7.12751C11.2069 7.03859 11.1878 6.9497 11.1687 6.86083C11.163 6.83426 11.1574 6.8077 11.1516 6.78033C11.1355 6.66433 11.1355 6.66433 11.0805 6.56714C11.0193 6.56637 10.9581 6.56751 10.8969 6.56939C10.1091 6.5881 9.48291 6.4694 8.85271 5.96102C8.83548 5.94766 8.81825 5.93431 8.8005 5.92054C8.69793 5.83862 8.61917 5.74658 8.53853 5.64353C8.43772 5.72877 8.34248 5.81172 8.2547 5.91051C7.80875 6.36417 7.12818 6.57231 6.51065 6.57796C5.77807 6.57126 5.18007 6.29109 4.65414 5.78784C4.59773 5.73874 4.54045 5.69109 4.48277 5.64353Z" fill="black"/>
<path d="M8.42429 7.14461C8.49289 7.20684 8.55683 7.27135 8.61998 7.33921C8.67607 7.39877 8.73364 7.45219 8.79559 7.50539C9.0834 7.75792 9.31426 7.98982 9.34541 8.39112C9.31807 8.81245 9.05751 9.05344 8.77672 9.34044C8.74605 9.37199 8.71539 9.40354 8.68473 9.4351C8.58464 9.53805 8.48424 9.64069 8.38379 9.74327C8.36662 9.76082 8.34944 9.77836 8.33175 9.79644C8.16933 9.96234 8.0068 10.1281 7.84399 10.2936C7.63694 10.5041 7.43049 10.7152 7.22481 10.927C7.07948 11.0766 6.93348 11.2256 6.787 11.374C6.69985 11.4624 6.613 11.551 6.52686 11.6403C5.84973 12.342 5.84973 12.342 5.39506 12.4427C5.30631 12.4629 5.22082 12.4922 5.13422 12.5203C5.07364 12.5374 5.01298 12.5542 4.95225 12.5708C4.92168 12.5798 4.8911 12.5887 4.8596 12.598C4.57799 12.6755 4.35145 12.6725 4.09228 12.53C3.91063 12.4049 3.78165 12.2249 3.72053 12.0116C3.69527 11.7971 3.72402 11.6248 3.78479 11.4199C3.79239 11.3937 3.79999 11.3675 3.80781 11.3405C4.05423 10.511 4.05423 10.511 4.30008 10.2622C4.31319 10.2488 4.3263 10.2355 4.33981 10.2217C4.38348 10.1772 4.42745 10.133 4.47142 10.0889C4.50292 10.0569 4.53441 10.025 4.56588 9.99297C4.65119 9.90636 4.73677 9.82003 4.82242 9.73375C4.91215 9.6433 5.00167 9.55263 5.09122 9.462C5.24166 9.30982 5.39228 9.15782 5.543 9.00592C5.71703 8.83052 5.89076 8.65481 6.06432 8.47894C6.21354 8.32776 6.36292 8.17675 6.51244 8.02588C6.60166 7.93585 6.69082 7.84577 6.77983 7.75554C6.86357 7.67067 6.94751 7.58602 7.03161 7.50153C7.06237 7.47056 7.09306 7.43952 7.12366 7.4084C7.47827 7.04803 7.95585 6.79284 8.42429 7.14461ZM7.82606 7.91669C7.79524 7.94883 7.79524 7.94883 7.7638 7.98163C7.74311 8.00306 7.72242 8.02449 7.7011 8.04657C7.68527 8.06324 7.66943 8.07991 7.65312 8.09708C7.81165 8.29288 7.98914 8.46812 8.16723 8.64547C8.25893 8.60559 8.31145 8.56107 8.37431 8.48312C8.38918 8.46489 8.40406 8.44666 8.41938 8.42787C8.43043 8.41396 8.44147 8.40004 8.45285 8.38571C8.36859 8.29889 8.28401 8.21239 8.19937 8.12594C8.17532 8.10116 8.15128 8.07638 8.12651 8.05085C8.1035 8.02741 8.08049 8.00397 8.05678 7.97982C8.03554 7.95806 8.0143 7.93629 7.99242 7.91387C7.91749 7.8473 7.90012 7.84935 7.82606 7.91669ZM6.93613 8.81138C6.91792 8.829 6.89971 8.84661 6.88095 8.86476C6.85101 8.89417 6.85101 8.89417 6.82047 8.92416C6.79943 8.94464 6.77838 8.96511 6.7567 8.9862C6.56099 9.17705 6.36686 9.36957 6.17315 9.56249C6.04325 9.69185 5.91294 9.8207 5.78139 9.94836C5.65391 10.0721 5.52772 10.197 5.40229 10.3228C5.35469 10.3702 5.30669 10.4171 5.25824 10.4636C4.88075 10.8265 4.68899 11.1905 4.56846 11.7049C4.56846 11.724 4.56846 11.743 4.56846 11.7627C5.16143 11.6352 5.51126 11.4423 5.93362 10.997C5.98203 10.9474 6.03052 10.8978 6.07909 10.8484C6.20539 10.7193 6.33054 10.5892 6.45546 10.4588C6.58366 10.3254 6.71294 10.193 6.84213 10.0606C7.09448 9.80158 7.34566 9.54145 7.596 9.28045C7.56934 9.24874 7.54264 9.21706 7.51592 9.1854C7.50106 9.16776 7.48619 9.15011 7.47088 9.13194C7.39914 9.04892 7.32317 8.97057 7.24612 8.89261C7.22348 8.8692 7.22348 8.8692 7.20038 8.84531C7.16201 8.80639 7.12206 8.76907 7.08189 8.73206C7.00511 8.73206 6.99088 8.75808 6.93613 8.81138Z" fill="black"/>
</svg>
