<svg width="82" height="90" viewBox="0 0 82 90" fill="none" xmlns="http://www.w3.org/2000/svg">
<path d="M78.7583 28.7128L76.1175 27.4012L75.6922 24.4769C75.6035 23.8034 75.125 23.2362 74.4693 23.0236C73.8135 22.8109 73.1046 22.9881 72.626 23.4844L70.5701 25.5934L67.6635 25.0972C66.99 24.9908 66.2988 25.2567 65.9089 25.8061C65.5013 26.3733 65.4481 27.0999 65.7671 27.7025L67.1318 30.3079L65.7494 32.9132C65.4304 33.5158 65.4658 34.2602 65.8912 34.8096C66.2988 35.359 66.9723 35.6426 67.6458 35.5362L70.5524 35.04L72.6083 37.1491C72.945 37.5035 73.4236 37.6985 73.9021 37.6985C74.0793 37.6985 74.2743 37.663 74.4515 37.6099C75.1073 37.3972 75.5858 36.83 75.6922 36.1566L76.1175 33.2322L78.7583 31.9384C79.3786 31.6371 79.7685 31.0168 79.7685 30.3256C79.7685 29.6521 79.3786 29.0318 78.7583 28.7128ZM74.3629 30.9282C73.8312 31.194 73.459 31.708 73.3704 32.2929L73.1755 33.6398L72.2184 32.6651C71.8816 32.3106 71.4031 32.1156 70.9246 32.1156C70.8183 32.1156 70.7119 32.1156 70.6233 32.1334L69.2763 32.3638L69.9144 31.1586C70.1979 30.6269 70.1979 30.0066 69.9321 29.4749L69.294 28.2519L70.641 28.4823C71.2259 28.571 71.8285 28.3937 72.2361 27.9684L73.1932 26.9936L73.3881 28.3583C73.459 28.9432 73.8312 29.4571 74.3629 29.7053L75.5858 30.3079L74.3629 30.9282Z" fill="#000510"/>
<path d="M75.5858 30.3256L74.3629 30.9282C73.8312 31.1941 73.459 31.7081 73.3704 32.2929L73.1754 33.6399L72.2184 32.6651C71.8816 32.3107 71.4031 32.1157 70.9246 32.1157C70.8182 32.1157 70.7119 32.1157 70.6233 32.1334L69.2763 32.3638L69.9143 31.1586C70.1979 30.6269 70.1979 30.0066 69.9321 29.4749L69.294 28.252L70.641 28.4824C71.2259 28.571 71.8285 28.3938 72.2361 27.9684L73.1932 26.9937L73.3881 28.3584C73.459 28.9432 73.8312 29.4572 74.3629 29.7053L75.5858 30.3256Z" fill="#8EEA9D"/>
<path d="M14.0151 7.79942L11.3743 6.48789L10.949 3.56354C10.8426 2.89006 10.3818 2.32291 9.72605 2.11023C9.07029 1.89755 8.36136 2.07478 7.88283 2.57104L5.82692 4.68011L2.9203 4.16614C2.24682 4.0598 1.57333 4.32565 1.16569 4.87507C0.758057 5.44222 0.704887 6.16887 1.02391 6.77147L2.3886 9.3768L1.00618 11.9999C0.687164 12.6024 0.740334 13.3291 1.14797 13.8962C1.55561 14.4634 2.22909 14.7292 2.90258 14.6229L5.8092 14.1267L7.8651 16.2357C8.20185 16.5902 8.68038 16.7852 9.15891 16.7852C9.35386 16.7852 9.5311 16.7497 9.72605 16.6965C10.3818 16.4839 10.8426 15.9167 10.949 15.2432L11.3743 12.3366L14.0328 11.0428C14.6531 10.7415 15.0253 10.1212 15.043 9.42997C15.0253 8.72103 14.6354 8.10072 14.0151 7.79942ZM9.60199 10.0148C9.07029 10.2807 8.6981 10.7769 8.62721 11.3618L8.43225 12.7088L7.47519 11.734C7.13845 11.3795 6.65992 11.1846 6.18139 11.1846C6.07505 11.1846 5.98643 11.2023 5.88009 11.2023L4.53312 11.4327L5.18888 10.2275C5.47246 9.69582 5.47246 9.0755 5.18888 8.5438L4.55085 7.32089L5.91554 7.55129C6.50041 7.65763 7.08528 7.46268 7.51064 7.03732L8.4677 6.06253L8.66265 7.42723C8.75127 8.0121 9.10574 8.50835 9.63744 8.7742L10.8603 9.3768L9.60199 10.0148Z" fill="#000510"/>
<path d="M10.8425 9.41221L9.60189 10.0148C9.07019 10.2807 8.698 10.7769 8.6271 11.3618L8.43215 12.7088L7.47509 11.734C7.13835 11.3795 6.65982 11.1845 6.18129 11.1845C6.07495 11.1845 5.98633 11.2023 5.87999 11.2023L4.53302 11.4327L5.18878 10.2275C5.47235 9.69578 5.47235 9.07547 5.18878 8.54377L4.55074 7.32086L5.91544 7.55126C6.50031 7.6576 7.08518 7.46264 7.51054 7.03728L8.46759 6.0625L8.66255 7.4272C8.75117 8.01207 9.10563 8.50832 9.63733 8.77417L10.8425 9.41221Z" fill="#8EEA9D"/>
<path d="M45.8639 85.1968L44.4814 82.5914L45.8461 79.9684C46.1652 79.3481 46.112 78.6214 45.7044 78.072C45.2967 77.5226 44.6232 77.239 43.9497 77.3631L41.0431 77.8593L38.9695 75.7502C38.491 75.254 37.782 75.0767 37.1263 75.2894C36.4705 75.5021 36.0097 76.0693 35.9034 76.7427L35.478 79.6848L32.8372 80.9963C32.2169 81.3154 31.8447 81.9357 31.8447 82.6092C31.8447 83.3004 32.2169 83.9207 32.855 84.222L35.4957 85.5158L35.9211 88.4579C36.0274 89.1314 36.506 89.6985 37.1617 89.9112C37.339 89.9644 37.5339 89.9998 37.7111 89.9998C38.1897 89.9998 38.6505 89.8048 39.0049 89.4504L41.0608 87.3236L43.9675 87.8198C44.6587 87.9262 45.3322 87.6603 45.7221 87.0932C46.1297 86.5437 46.1829 85.8171 45.8639 85.1968ZM40.99 84.4169C40.4051 84.3283 39.8025 84.5233 39.3949 84.9486L38.4378 85.9412L38.2428 84.5942C38.1542 84.0093 37.7998 83.4953 37.2681 83.2295L36.0274 82.6269L37.2681 82.0243C37.7998 81.7584 38.1719 81.2622 38.2428 80.6773L38.4378 79.3126L39.3949 80.3051C39.8202 80.7305 40.3874 80.9077 40.99 80.8014L42.3369 80.571L41.6989 81.7762C41.4153 82.3079 41.433 82.9282 41.7166 83.4599L42.3546 84.6828L40.99 84.4169Z" fill="#000510"/>
<path d="M42.3368 84.6477L40.9899 84.4173C40.405 84.3287 39.8024 84.5236 39.3948 84.949L38.4377 85.9415L38.2428 84.5945C38.1541 84.0097 37.7997 83.4957 37.268 83.2298L36.0273 82.6272L37.268 82.0247C37.7997 81.7588 38.1719 81.2626 38.2428 80.6777L38.4377 79.313L39.3948 80.3055C39.8201 80.7309 40.3873 80.9081 40.9899 80.8017L42.3368 80.5713L41.6988 81.7765C41.4152 82.3082 41.433 82.9285 41.7165 83.4602L42.3368 84.6477Z" fill="#8EEA9D"/>
<path d="M71.0664 55.3688C69.5599 54.0573 67.3445 53.9332 65.6785 55.0675L65.1468 55.4397C64.2252 54.7307 63.3213 53.9686 62.4706 53.2065C62.9668 51.9482 62.825 50.4949 62.0275 49.3251C61.7616 48.9529 61.4426 48.6162 61.0881 48.3503C62.8959 47.0211 63.3213 44.4867 62.0452 42.6434C61.7794 42.2358 61.4426 41.9168 61.0881 41.6509C61.6907 41.0661 62.0984 40.2862 62.2579 39.4355C62.4528 38.3367 62.2224 37.2378 61.5844 36.3162C60.2906 34.4375 57.6853 33.959 55.7889 35.2528L54.7078 35.9972C54.5837 35.5718 54.3887 35.1819 54.1229 34.792C53.9634 34.5616 53.7861 34.3666 53.5912 34.1894C53.7684 33.4627 53.9988 32.7361 54.3178 32.0094L54.6014 31.4068C55.2749 29.9004 55.5585 28.2875 55.5407 26.6747C59.0322 20.4361 59.9539 14.6406 58.2701 9.48306C57.4726 7.07269 55.4344 5.24718 53.1658 4.91044C51.3403 4.64459 49.8516 5.69027 49.054 6.23969L45.4385 8.72096L44.9422 7.9943L45.4385 7.65756C46.1828 7.12586 46.6968 6.34603 46.8563 5.44214C47.0336 4.53825 46.8209 3.63436 46.3069 2.87226L45.3498 1.48984C44.8359 0.745456 44.0383 0.231479 43.1522 0.0542454C42.2483 -0.105265 41.3267 0.089692 40.5823 0.603669L7.04977 23.7858C6.30539 24.2998 5.79141 25.0796 5.61418 25.9835C5.45467 26.8874 5.64963 27.7913 6.1636 28.5534L7.12066 29.9358C7.79415 30.8929 8.85755 31.4246 9.95639 31.4246C10.6299 31.4246 11.3034 31.2296 11.906 30.822L12.4022 30.4852L12.8985 31.2119L9.30063 33.6931C8.50308 34.2426 6.9966 35.2882 6.60668 37.0783C6.11043 39.3114 7.10294 41.8813 9.07023 43.4764C12.3136 46.0818 16.4431 47.3756 21.3702 47.3756C22.8412 47.3756 24.4186 47.2338 26.0492 47.0034C26.7935 47.3047 27.5556 47.5173 28.3532 47.6591C28.3 48.1908 28.2468 48.6339 28.1937 49.0238C27.0771 48.439 25.6947 48.4567 24.5781 49.2188L19.9523 52.409C19.208 52.923 18.7117 53.6673 18.5345 54.5535L0.917502 66.7117C0.261739 67.1548 0.10223 68.0587 0.563036 68.6967L12.3668 85.782C12.5794 86.1011 12.9162 86.3137 13.2884 86.3669C13.377 86.3846 13.4656 86.4024 13.5542 86.4024C13.8555 86.4024 14.1214 86.3137 14.3695 86.1365L32.0219 73.9428C32.1991 73.9783 32.3587 74.0137 32.5359 74.0137C33.2271 74.0137 33.9006 73.8188 34.5209 73.3934L39.1467 70.2032C39.9088 69.6715 40.4228 68.874 40.6 67.9524C40.6532 67.722 40.6532 67.4738 40.6532 67.2434C40.7418 67.2434 40.8304 67.2612 40.919 67.2612C42.5496 67.2612 44.1269 66.7826 45.4739 65.8433L48.7704 63.5747C49.0895 64.4254 49.3908 65.2939 49.6566 66.18L49.1249 66.5522C47.4766 67.6865 46.8032 69.7956 47.4944 71.692L52.3506 84.8427L81.7004 64.5849L71.0664 55.3688ZM62.6832 57.1411L52.0847 64.4609C51.8011 63.5924 51.4998 62.7417 51.1631 61.891L57.5966 57.4601L60.6096 55.3865C61.2654 55.9714 61.9566 56.574 62.6832 57.1411ZM50.6846 8.57917C51.5353 7.9943 52.1733 7.65756 52.7759 7.74617C53.9811 7.92341 55.1331 9.00453 55.5762 10.3692C56.7282 13.9139 56.3737 17.9016 54.566 22.2439C54.3001 21.659 53.9988 21.0741 53.6266 20.5247L47.1045 11.0782L50.6846 8.57917ZM10.7717 28.128L10.2754 28.4648C10.0096 28.642 9.6551 28.5711 9.47786 28.323L8.5208 26.9228C8.41446 26.7456 8.41446 26.5861 8.43219 26.4975C8.44991 26.4089 8.50308 26.2493 8.66259 26.1253L42.2128 2.96087C42.3192 2.88998 42.4432 2.85453 42.5318 2.85453C42.5673 2.85453 42.6027 2.87226 42.6382 2.87226C42.7268 2.88998 42.8863 2.94315 42.9926 3.10266L43.9674 4.5028C44.0738 4.68004 44.0738 4.83955 44.056 4.92816C44.0383 5.01678 43.9851 5.17629 43.8256 5.30035L43.3294 5.6371L10.7717 28.128ZM10.8603 41.2433C9.74371 40.3394 9.14112 38.8861 9.38925 37.6986C9.53103 37.1138 10.0805 36.6352 10.9312 36.0504L14.529 33.5691L21.0512 43.0333C21.4234 43.565 21.8487 44.0436 22.2918 44.5044C17.6129 44.6462 13.7669 43.5828 10.8603 41.2433ZM23.4084 41.3851L14.7594 28.8547L42.6027 9.62485L51.2517 22.1553C52.8823 24.5125 53.1835 27.614 51.9961 30.2371L51.7302 30.8397C51.4289 31.5486 51.1631 32.2576 50.9504 32.9665H50.8086C50.6491 32.9665 50.4896 32.9665 50.3478 32.9842C50.2946 32.9842 50.2415 33.0019 50.1706 33.0019C50.0111 33.0197 49.8516 33.0551 49.7098 33.0905C49.6389 33.1083 49.5857 33.126 49.5325 33.1437C49.373 33.1969 49.2312 33.2501 49.0895 33.3032C49.0363 33.3387 48.9831 33.3564 48.9122 33.3741C48.7173 33.4627 48.54 33.5691 48.3451 33.6931L38.1365 40.7648L38.2251 39.914C38.3669 38.7443 38.0478 37.5746 37.3035 36.6529C36.5591 35.7136 35.4957 35.111 34.3082 34.9869C31.8624 34.7034 29.6647 36.458 29.3634 38.9038C29.3634 38.9038 29.0267 41.8636 28.6899 44.8234C26.5631 44.4158 24.649 43.1929 23.4084 41.3851ZM13.891 82.9995L3.71779 68.2714L19.2611 57.531L29.4343 72.2591L13.891 82.9995ZM37.7288 67.4561C37.7111 67.5447 37.6579 67.7397 37.463 67.8637L32.8372 71.0539C32.5536 71.2489 32.1637 71.178 31.9687 70.9122L21.4234 55.6169C21.2993 55.4397 21.317 55.2624 21.3348 55.1561C21.3525 55.0675 21.4056 54.8725 21.6006 54.7485L26.2264 51.5583C26.3327 51.4874 26.4568 51.4519 26.5809 51.4519C26.7758 51.4519 26.9885 51.5405 27.1126 51.7355L37.6402 66.9953C37.7643 67.1725 37.7643 67.3675 37.7288 67.4561ZM43.8079 63.5038C42.6736 64.2836 41.3089 64.5849 39.9442 64.3368L39.1821 64.195L30.6927 51.895L30.8345 51.1329H30.8167C30.8876 50.743 30.994 49.7682 31.3662 46.5603C31.7738 43.2283 32.2169 39.2406 32.2169 39.2406C32.3232 38.3721 33.1208 37.7341 33.9892 37.8227C34.4146 37.8759 34.8045 38.0885 35.0703 38.4253C35.3362 38.762 35.4425 39.1697 35.3893 39.595L34.9463 43.565V43.5828L34.6095 46.6844L49.9579 36.0858C50.3655 35.8022 50.8795 35.7845 51.3226 36.0149L51.3403 36.0326C51.5176 36.1212 51.6771 36.263 51.8011 36.4403C52.2088 37.0251 52.067 37.8404 51.4821 38.248C51.4644 38.2658 51.4644 38.2658 51.4467 38.2658L44.7472 42.8916C44.0915 43.3346 43.932 44.2385 44.3928 44.8766C44.6764 45.2842 45.1194 45.4969 45.5625 45.4969C45.8461 45.4969 46.1297 45.4083 46.3778 45.231L53.0418 40.623C53.0595 40.6052 53.0772 40.6052 53.0949 40.5875L57.4194 37.5923C58.0043 37.1846 58.8196 37.3264 59.2449 37.9113C59.4399 38.2126 59.5108 38.5493 59.4576 38.9038C59.3867 39.2406 59.1918 39.5418 58.9082 39.7368L56.3028 41.5446C56.2851 41.5446 56.2851 41.5623 56.2674 41.5623L47.8666 47.3756C47.2108 47.8186 47.0513 48.7048 47.5121 49.3606C47.7957 49.7682 48.2387 49.9632 48.6818 49.9632C48.9654 49.9632 49.249 49.8923 49.4971 49.715L57.8802 43.9195C57.8979 43.9018 57.9157 43.9018 57.9157 43.9018C58.5005 43.4942 59.3158 43.6359 59.7234 44.2385C60.1311 44.8234 59.9893 45.6564 59.3867 46.064L56.2497 48.244C56.232 48.2617 56.1965 48.2795 56.1788 48.2972L50.9859 51.8773C50.3301 52.3381 50.1706 53.2243 50.6314 53.8623C50.915 54.2699 51.358 54.4826 51.8011 54.4826C52.0847 54.4826 52.3683 54.394 52.6164 54.2168L57.8802 50.5835L57.9157 50.548C58.5005 50.1758 59.2981 50.3176 59.7234 50.9025C60.0602 51.381 60.0247 52.0545 59.5817 52.5331C59.5285 52.6039 59.4576 52.6571 59.3867 52.7103L43.8079 63.5038ZM50.1174 70.6818C49.887 70.026 50.0997 69.2993 50.6846 68.8917L67.309 57.407C67.5749 57.2297 67.8762 57.1411 68.1775 57.1411C68.5319 57.1411 68.9041 57.2652 69.1877 57.5133L76.986 64.3014L53.6975 80.3941L50.1174 70.6818Z" fill="#000510"/>
<path d="M51.9961 30.2372L51.7302 30.8398C51.4289 31.5488 51.1631 32.2577 50.9504 32.9666H50.8086C50.6491 32.9666 50.4896 32.9666 50.3478 32.9844C50.2946 32.9844 50.2415 33.0021 50.1706 33.0021C50.0111 33.0198 49.8516 33.0553 49.7098 33.0907C49.6389 33.1084 49.5857 33.1261 49.5325 33.1439C49.373 33.197 49.2312 33.2502 49.0895 33.3034C49.0363 33.3388 48.9831 33.3566 48.9122 33.3743C48.7173 33.4629 48.54 33.5692 48.3451 33.6933L38.1364 40.7649L38.2251 39.9142C38.3669 38.7444 38.0478 37.5747 37.3035 36.6531C36.5591 35.7138 35.4957 35.1112 34.3082 34.9871C31.8624 34.7035 29.6647 36.4581 29.3634 38.904C29.3634 38.904 29.0267 41.8638 28.6899 44.8236C26.5631 44.4159 24.649 43.193 23.4084 41.3852L14.7594 28.8548L42.6027 9.625L51.2517 22.1554C52.8822 24.5126 53.1658 27.6142 51.9961 30.2372Z" fill="#F3FCFF"/>
<path d="M59.688 50.938C60.0247 51.4165 59.9893 52.09 59.5462 52.5685C59.493 52.6394 59.4221 52.6926 59.3512 52.7458L43.8079 63.5038C42.6736 64.2837 41.3089 64.585 39.9442 64.3368L39.1821 64.195L30.6926 51.895L30.8344 51.1329H30.8167C30.8876 50.743 30.9939 49.7682 31.3661 46.5603C31.7737 43.2283 32.2168 39.2406 32.2168 39.2406C32.3232 38.3721 33.1207 37.7341 33.9892 37.8227C34.4145 37.8759 34.8044 38.0886 35.0703 38.4253C35.3361 38.762 35.4425 39.1697 35.3893 39.595L34.9462 43.5651V43.5828L34.6095 46.6844L49.9579 36.0858C50.3655 35.8022 50.8795 35.7845 51.3226 36.0149L51.3403 36.0327C51.5175 36.1213 51.677 36.2631 51.8011 36.4403C52.2087 37.0252 52.0669 37.8404 51.4821 38.2481C51.4643 38.2658 51.4643 38.2658 51.4466 38.2658L44.7472 42.8916C44.0914 43.3347 43.9319 44.2386 44.3927 44.8766C44.6763 45.2842 45.1194 45.4969 45.5625 45.4969C45.8461 45.4969 46.1296 45.4083 46.3778 45.2311L53.0417 40.623C53.0594 40.6053 53.0772 40.6053 53.0949 40.5876L57.4194 37.5923C58.0042 37.1847 58.8195 37.3265 59.2449 37.9113C59.4398 38.2126 59.5107 38.5494 59.4576 38.9038C59.3867 39.2406 59.1917 39.5419 58.9081 39.7368L56.3028 41.5446C56.2851 41.5446 56.2851 41.5623 56.2674 41.5623L47.8665 47.3756C47.2108 47.8187 47.0512 48.7048 47.512 49.3606C47.7956 49.7682 48.2387 49.9632 48.6818 49.9632C48.9654 49.9632 49.2489 49.8923 49.4971 49.7151L57.8802 43.9195C57.8979 43.9018 57.9156 43.9018 57.9156 43.9018C58.5005 43.4942 59.3158 43.636 59.7234 44.2386C60.131 44.8234 59.9893 45.6564 59.3867 46.0641L56.2496 48.244C56.2319 48.2618 56.1965 48.2795 56.1787 48.2972L50.9858 51.8773C50.3301 52.3381 50.1705 53.2243 50.6314 53.8623C50.9149 54.27 51.358 54.4826 51.8011 54.4826C52.0847 54.4826 52.3682 54.394 52.6164 54.2168L57.8802 50.5835L57.9156 50.5481C58.4828 50.1936 59.2803 50.3531 59.688 50.938Z" fill="#F3FCFF"/>
<path d="M29.4342 72.2591L13.8909 82.9994L3.71771 68.2536L19.2611 57.531L29.4342 72.2591Z" fill="#F3FCFF"/>
<path d="M69.1877 57.5135C68.9041 57.2654 68.5319 57.1414 68.1774 57.1414C67.8761 57.1414 67.5748 57.23 67.309 57.4072L50.6845 68.8919C50.0997 69.2996 49.8693 70.0262 50.1174 70.682L53.6975 80.3767L76.9859 64.2839L69.1877 57.5135ZM70.7296 67.2259L58.66 75.5559C58.2347 75.8395 57.7739 75.9813 57.3131 75.9813C56.5687 75.9813 55.8243 75.6268 55.3458 74.9533L53.5912 72.4189C52.8468 71.3378 53.1304 69.849 54.1937 69.1223L66.2633 60.7924C67.3444 60.048 68.8332 60.3138 69.5599 61.395L71.3145 63.9294C71.598 64.337 71.7398 64.8156 71.7398 65.2764C71.7398 66.0207 71.3854 66.7651 70.7296 67.2259Z" fill="#8EEA9D"/>
<path d="M37.7288 67.4561C37.7111 67.5447 37.6579 67.7397 37.4629 67.8637L32.8372 71.0539C32.5536 71.2489 32.1637 71.178 31.9687 70.9121L21.4234 55.6169C21.2993 55.4397 21.317 55.2624 21.3347 55.1561C21.3525 55.0675 21.4056 54.8725 21.6006 54.7484L26.2264 51.5582C26.3327 51.4874 26.4568 51.4519 26.5808 51.4519C26.7758 51.4519 26.9885 51.5405 27.1125 51.7355L37.6402 66.9953C37.7642 67.1725 37.7642 67.3675 37.7288 67.4561Z" fill="#8EEA9D"/>
<path d="M44.056 4.94585C44.0383 5.03446 43.9851 5.19397 43.8256 5.31804L43.3294 5.65478L10.7717 28.128L10.2754 28.4647C10.0096 28.6419 9.6551 28.5711 9.47786 28.3229L8.5208 26.9228C8.41446 26.7456 8.41446 26.586 8.43219 26.4974C8.44991 26.4088 8.50308 26.2493 8.66259 26.1252L42.2128 2.96083C42.3192 2.88994 42.4432 2.85449 42.5318 2.85449C42.5673 2.85449 42.6027 2.87222 42.6382 2.87222C42.7268 2.88994 42.8863 2.94311 42.9926 3.10262L43.9674 4.50276C44.0915 4.68 44.0738 4.85723 44.056 4.94585Z" fill="#FFC30D"/>
<path d="M71.3322 63.9115L69.5776 61.3771C68.8332 60.2959 67.3622 60.0301 66.281 60.7745L54.2115 69.1044C53.1303 69.8488 52.8645 71.3376 53.6089 72.401L55.3635 74.9354C55.8243 75.6089 56.5687 75.9634 57.3308 75.9634C57.7916 75.9634 58.2701 75.8216 58.6777 75.538L70.7473 67.208C71.4208 66.7472 71.7575 66.0028 71.7575 65.2585C71.7398 64.7977 71.6158 64.3191 71.3322 63.9115ZM57.4371 72.9327L56.2319 71.1781L67.5039 63.3798L68.7091 65.1344L57.4371 72.9327Z" fill="#000510"/>
<path d="M56.209 71.2283L67.4842 63.4466L68.6923 65.1969L57.4171 72.9786L56.209 71.2283Z" fill="#FFC30D"/>
</svg>
