<svg width="22" height="22" viewBox="0 0 22 22" fill="none" xmlns="http://www.w3.org/2000/svg">
<path d="M10.8978 11.4453H10.9066M6.94043 11.4453H6.94931" stroke="#141B34" stroke-width="2" stroke-linecap="square" stroke-linejoin="round"/>
<path d="M16.3499 5.47662L18.3308 3.48701M20.8069 4.97922C20.8069 7.17688 19.0331 8.95844 16.8451 8.95844C14.6571 8.95844 12.8833 7.17688 12.8833 4.97922C12.8833 2.78156 14.6571 1 16.8451 1C19.0331 1 20.8069 2.78156 20.8069 4.97922Z" stroke="#141B34" stroke-width="1.5"/>
<path d="M8.87254 2.0108C2.19699 2.21671 -1.3069 10.9896 2.73578 16.9515L0.90748 20.7887C0.86935 20.8687 0.94649 20.9552 1.03031 20.9263L5.36939 19.4325C7.68154 20.821 13.9675 20.9879 16.2406 19.4561C18.5343 18.1905 20.9857 15.9122 20.7984 11.2079M8.87254 2.0108C9.03149 2.00169 9.19209 1.99707 9.35439 1.99707M8.87254 2.0108L10.2785 2.00579L11.5771 1.99707" stroke="#141B34" stroke-width="1.5"/>
</svg>
