<svg width="20" height="18" viewBox="0 0 20 18" fill="none" xmlns="http://www.w3.org/2000/svg">
<path d="M17.5576 1L18.4551 1.97574C18.8561 2.41165 19.0566 2.62961 18.9861 2.81481C18.9155 3 18.632 3 18.0649 3C16.7956 3 15.2771 2.79493 14.1111 3.4733C13.3903 3.89272 12.8883 4.62517 12.0392 6M1 15H2.58082C4.50873 15 5.47269 15 6.2862 14.5267C7.00708 14.1073 7.50904 13.3748 8.3582 12" stroke="white" stroke-width="1.5" stroke-linecap="round" stroke-linejoin="round"/>
<path d="M17.5576 17L18.4551 16.0243C18.8561 15.5883 19.0566 15.3704 18.9861 15.1852C18.9155 15 18.632 15 18.0649 15C16.7956 15 15.2771 15.2051 14.1111 14.5267C13.2976 14.0534 12.7629 13.1815 11.6935 11.4376L8.7038 6.5624C7.63441 4.81853 7.0997 3.9466 6.2862 3.4733C5.47269 3 4.50873 3 2.58082 3H1" stroke="white" stroke-width="1.5" stroke-linecap="round" stroke-linejoin="round"/>
</svg>
