<svg width="26" height="26" viewBox="0 0 26 26" fill="none" xmlns="http://www.w3.org/2000/svg">
<path d="M22.2502 7.78046C22.4389 7.59188 22.7638 7.57266 22.9549 7.78112C24.0741 9.00189 24.6935 9.90582 24.8975 10.9068C25.0149 11.4828 25.0316 12.069 24.9469 12.6393C24.7179 14.1803 23.4693 15.4289 20.9721 17.9261L17.9261 20.9721C15.4289 23.4693 14.1803 24.7179 12.6393 24.9469C12.069 25.0316 11.4828 25.0149 10.9068 24.8975C9.90593 24.6935 9.0021 24.0742 7.78153 22.9552C7.57281 22.7639 7.59211 22.4386 7.78089 22.2499C8.83232 21.1984 8.78235 19.4438 7.66931 18.3307C6.55627 17.2177 4.80162 17.1677 3.7502 18.2192C3.56141 18.4079 3.23609 18.4273 3.04474 18.2185C1.92575 16.9979 1.30643 16.0941 1.10247 15.0932C0.985106 14.5172 0.968414 13.931 1.05315 13.3607C1.28215 11.8197 2.53073 10.5711 5.02788 8.07391L8.07391 5.02789C10.5711 2.53073 11.8197 1.28216 13.3607 1.05314C13.931 0.968416 14.5172 0.985108 15.0932 1.10247C16.0942 1.30646 16.9982 1.92588 18.2189 3.04513C18.4274 3.23626 18.4082 3.56119 18.2195 3.74977C17.1681 4.80118 17.2181 6.55582 18.3311 7.66887C19.4441 8.78192 21.1989 8.83188 22.2502 7.78046Z" stroke="black" stroke-width="1.5" stroke-linejoin="round"/>
<path d="M21.3999 16.6001L9.3999 4.6001" stroke="black" stroke-width="1.5" stroke-linecap="round" stroke-linejoin="round"/>
</svg>
