<?xml version="1.0" encoding="UTF-8"?>
<svg version="1.1" xmlns="http://www.w3.org/2000/svg" width="512" height="512">
<path d="M0 0 C20.69575536 17.46791754 33.5610165 40.46532007 36.12988281 67.61523438 C38.63305837 100.73602992 21.95068987 132.39939202 3.46923828 158.74951172 C2.54325928 160.08921881 1.61749269 161.42907273 0.69189453 162.76904297 C-8.88119496 176.55329252 -18.95668984 189.58809888 -30.53076172 201.74951172 C-31.67158203 202.98701172 -31.67158203 202.98701172 -32.83544922 204.24951172 C-41.1737182 213.03288403 -50.39384202 219.39466451 -62.59326172 220.56201172 C-75.50553075 222.06340152 -86.93045519 227.48462049 -95.15185547 237.72216797 C-102.46902188 248.48026817 -104.81488607 260.80435552 -102.42529297 273.53857422 C-98.89549478 286.20885418 -91.88248219 295.25380501 -80.53076172 301.74951172 C-68.03828152 307.1499068 -55.2047011 306.98857262 -41.83984375 307.07543945 C-19.08050263 307.25117682 -0.85368435 315.04484474 15.64111328 330.82763672 C29.78828035 345.63281156 36.53754649 365.53028219 36.46923828 385.74951172 C35.66162973 406.84956301 26.81589217 425.63649174 11.78564453 440.38232422 C6.44359415 445.1227597 0.98670615 448.86169749 -5.34326172 452.12451172 C-5.93373291 452.43412842 -6.5242041 452.74374512 -7.13256836 453.06274414 C-22.88145714 460.6833079 -38.74625695 460.32927729 -55.86987305 460.28295898 C-58.62431341 460.28783753 -61.37872401 460.29863854 -64.13314819 460.30906677 C-70.80609369 460.33058692 -77.47886788 460.33061168 -84.15183661 460.32244123 C-89.57713412 460.31611664 -95.00238203 460.31730064 -100.42767906 460.3237133 C-101.20263599 460.32461496 -101.97759292 460.32551661 -102.7760334 460.32644559 C-104.35075009 460.32829694 -105.92546676 460.33015951 -107.50018343 460.33203315 C-122.22751954 460.34856799 -136.95475953 460.33992732 -151.68208983 460.32304757 C-165.14100577 460.30833511 -178.59969878 460.32300833 -192.05858604 460.35181773 C-205.90630547 460.38123717 -219.75392209 460.39217783 -233.6016714 460.38263553 C-235.16875531 460.38161305 -236.73583925 460.38061844 -238.3029232 460.37965202 C-239.07380625 460.37917563 -239.8446893 460.37869924 -240.63893244 460.37820842 C-246.05662342 460.3760487 -251.47421648 460.385824 -256.89188576 460.40042305 C-263.49540817 460.41797116 -270.09864589 460.41779278 -276.70215724 460.39507139 C-280.06775796 460.38395445 -283.43244655 460.38342831 -286.79808998 460.3993721 C-290.45297197 460.41531511 -294.10648885 460.40033727 -297.76130676 460.37770081 C-298.81530302 460.38953653 -299.86929928 460.40137226 -300.95523483 460.41356665 C-320.19920081 460.1719793 -335.02970873 442.63807111 -347.65576172 429.78466797 C-351.08414987 426.22172237 -354.19975374 422.43770368 -357.27294922 418.56591797 C-359.24942294 416.10045508 -361.28630596 413.7045335 -363.359375 411.3203125 C-403.84820943 364.51737309 -448.79864663 297.23508737 -445.25976562 232.71264648 C-443.22167302 204.72095906 -433.4561779 176.58347729 -415.53076172 154.74951172 C-414.92844727 153.99347656 -414.92844727 153.99347656 -414.31396484 153.22216797 C-390.47681534 123.32715641 -356.54334322 104.50357998 -318.53076172 99.74951172 C-313.24200735 99.50974129 -307.94940478 99.50381615 -302.65576172 99.49951172 C-301.54311447 99.4984996 -301.54311447 99.4984996 -300.4079895 99.49746704 C-289.49318096 99.51326613 -279.13055583 99.90538593 -268.53076172 102.74951172 C-267.87978516 102.92111816 -267.22880859 103.09272461 -266.55810547 103.26953125 C-228.85821988 113.42997729 -197.42152942 137.23724498 -177.59375 170.86181641 C-160.48575852 201.24284308 -153.46021715 239.20393244 -162.80761719 273.23876953 C-163.04625488 274.06731445 -163.28489258 274.89585937 -163.53076172 275.74951172 C-163.92545654 277.12768066 -163.92545654 277.12768066 -164.328125 278.53369141 C-179.8938154 331.33547309 -213.30949813 378.74176471 -248.80810547 420.08154297 C-249.36042847 420.72530884 -249.91275146 421.36907471 -250.48181152 422.03234863 C-251.83115397 423.60500032 -253.18091476 425.17729305 -254.53076172 426.74951172 C-226.85315447 426.79628533 -199.17555316 426.83152683 -171.49791431 426.85313606 C-158.64597564 426.86343742 -145.79406156 426.87747596 -132.94213867 426.90039062 C-121.73708046 426.92035941 -110.53204007 426.93323644 -99.32696456 426.93768871 C-93.39701391 426.94029017 -87.46711422 426.946381 -81.53717995 426.96097183 C-75.94845793 426.97461086 -70.35980756 426.97872162 -64.77107048 426.97572708 C-62.7269667 426.97627442 -60.68286037 426.98021401 -58.63877106 426.98792267 C-40.5172926 427.05287352 -23.31835027 426.979377 -9.27685547 413.72607422 C-0.92240875 404.26891529 2.96875829 392.45640052 2.32470703 379.94091797 C1.09892747 369.79792883 -3.50296552 358.19222854 -11.33544922 351.27294922 C-25.91796323 341.15341103 -40.74384524 340.41632388 -57.95922852 340.36865234 C-71.36741926 340.30655583 -83.81127799 338.38091938 -95.84326172 331.99951172 C-96.507854 331.6551709 -97.17244629 331.31083008 -97.85717773 330.95605469 C-116.53324912 320.97702882 -129.078036 303.69393635 -135.17529297 283.62841797 C-140.43209442 263.01721805 -136.73081665 242.15879204 -126.44091797 223.85107422 C-118.9649758 211.71222334 -109.03458992 202.53350362 -96.53076172 195.74951172 C-97.38029106 194.57946398 -98.23576693 193.41373441 -99.09326172 192.24951172 C-99.56892578 191.59982422 -100.04458984 190.95013672 -100.53466797 190.28076172 C-102.24807139 188.10799182 -104.02047933 186.05355895 -105.85888672 183.98779297 C-109.39620355 179.97008825 -112.60071607 175.78566829 -115.71826172 171.43701172 C-116.55127808 170.27685547 -116.55127808 170.27685547 -117.40112305 169.09326172 C-123.47813517 160.5394733 -129.12433288 151.7402096 -134.53076172 142.74951172 C-134.98080566 142.0020166 -135.43084961 141.25452148 -135.89453125 140.484375 C-152.20713508 113.07272112 -162.2793361 83.01458616 -154.43579102 51.01464844 C-149.57318574 33.34684421 -140.35949363 18.8033091 -127.53076172 5.74951172 C-126.85787109 5.06373047 -126.18498047 4.37794922 -125.49169922 3.67138672 C-115.09625743 -6.21790997 -102.0264379 -12.7229066 -88.53076172 -17.25048828 C-87.51755859 -17.59080078 -86.50435547 -17.93111328 -85.46044922 -18.28173828 C-56.3802122 -26.15308063 -23.21381178 -18.96349983 0 0 Z M-105.71826172 30.37451172 C-117.73405324 42.98249646 -123.92283123 58.38004871 -123.97509766 75.70263672 C-123.16159004 108.73931899 -95.37187542 147.52147653 -73.41748047 170.73388672 C-71.60903464 172.66589096 -69.98356626 174.67488489 -68.34326172 176.74951172 C-65.72570859 179.78529647 -63.65336668 181.3200737 -59.53076172 181.74951172 C-30.99952018 165.24765851 -6.65976547 116.54229261 1.82470703 86.20263672 C5.67599857 70.29504606 1.49284031 54.86983188 -6.71826172 41.06201172 C-15.59664035 27.92583 -28.9369472 17.48269425 -44.53076172 13.74951172 C-67.3018911 9.40159028 -88.53101353 14.2090664 -105.71826172 30.37451172 Z M-330.53076172 135.74951172 C-331.72958984 136.07822266 -332.92841797 136.40693359 -334.16357422 136.74560547 C-350.16857703 141.573837 -364.00070194 149.77173883 -376.53076172 160.74951172 C-377.34931641 161.46623047 -378.16787109 162.18294922 -379.01123047 162.92138672 C-399.75437729 182.45298691 -411.30046843 210.52591858 -412.53076172 238.74951172 C-412.99506354 263.76718639 -401.02736728 289.22736314 -389.52392578 310.86914062 C-388.49199443 312.82291035 -387.49022792 314.79020107 -386.49169922 316.76123047 C-372.15027053 344.81264181 -353.69694936 370.61566765 -333.53076172 394.74951172 C-333.07975098 395.29220703 -332.62874023 395.83490234 -332.1640625 396.39404297 C-326.70108617 402.95035456 -321.1253369 409.33303053 -315.09326172 415.37451172 C-314.60946045 415.85911865 -314.12565918 416.34372559 -313.62719727 416.84301758 C-308.56234707 422.1691192 -308.56234707 422.1691192 -302.16357422 425.39013672 C-297.92859647 424.35966735 -295.45421958 421.50239463 -292.40576172 418.49951172 C-291.74560059 417.86489014 -291.08543945 417.23026855 -290.40527344 416.57641602 C-248.58595611 375.98827074 -212.27804402 320.70065941 -195.53076172 264.74951172 C-195.21107422 263.75693359 -194.89138672 262.76435547 -194.56201172 261.74169922 C-190.26971391 246.5199394 -191.30750145 228.87150817 -195.53076172 213.74951172 C-195.87107422 212.52232422 -196.21138672 211.29513672 -196.56201172 210.03076172 C-205.13414624 181.99756504 -224.7451459 158.59708432 -250.53076172 144.74951172 C-274.82546992 132.39616446 -304.05573845 128.05618143 -330.53076172 135.74951172 Z " fill="#000000" transform="translate(460.53076171875,36.25048828125)"/>
<path d="M0 0 C5.83765277 3.35071777 9.0766157 7.89315102 11.9375 13.875 C13.60792785 22.22713923 13.03606381 29.70849625 8.30859375 36.91015625 C3.78973605 42.70956218 -1.61917371 45.76260851 -8.875 46.875 C-16.58728164 47.39180238 -22.62413406 45.67597792 -28.64453125 40.78515625 C-33.75347705 35.69847165 -36.56540522 30.02626632 -36.6875 22.8125 C-36.60320061 15.71261774 -34.99721409 9.73566956 -30.05859375 4.38671875 C-21.44467364 -2.98181532 -10.40051476 -4.59812232 0 0 Z " fill="#000000" transform="translate(170.4375,242)"/>
<path d="M0 0 C5.59137949 3.37887664 10.95614309 9.07457238 12.5625 15.5 C14.1039899 23.20744949 13.31301328 29.70516144 9.5625 36.6875 C5.83417928 42.15424592 0.34649071 45.53545335 -6.02734375 47.16015625 C-12.87544252 48.07816025 -18.43855995 47.11942763 -24.5625 43.8125 C-29.52248528 39.82294663 -33.49623251 35.66218856 -35.4375 29.5 C-36.24264105 21.66391792 -36.56210392 13.88077423 -31.4375 7.5 C-23.13577971 -1.21767287 -11.72105717 -5.1940371 0 0 Z " fill="#000000" transform="translate(411.4375,84.5)"/>
</svg>
