<svg width="18" height="18" viewBox="0 0 18 18" fill="none" xmlns="http://www.w3.org/2000/svg">
<path d="M15.2914 15.3H15.3H15.2914ZM15.2914 15.3C14.731 15.8557 13.7154 15.7173 13.0031 15.7173C12.1288 15.7173 11.7078 15.8883 11.0839 16.5123C10.5526 17.0437 9.84033 18 9 18C8.15967 18 7.44741 17.0437 6.91611 16.5123C6.29215 15.8883 5.87114 15.7173 4.99685 15.7173C4.28461 15.7173 3.26896 15.8557 2.70854 15.3C2.14363 14.7398 2.28265 13.72 2.28265 13.0031C2.28265 12.0973 2.08454 11.6807 1.43944 11.0356C0.479826 10.076 1.8e-05 9.59616 0 9C9e-06 8.40375 0.479808 7.92396 1.43941 6.96435C2.01528 6.38849 2.28265 5.81785 2.28265 4.99685C2.28265 4.28458 2.14424 3.26893 2.7 2.7085C3.26019 2.1436 4.28004 2.28263 4.99687 2.28263C5.81784 2.28263 6.38849 2.01528 6.96433 1.43943C7.92396 0.479808 8.40375 0 9 0C9.59625 0 10.076 0.479808 11.0356 1.43943C11.6113 2.01516 12.182 2.28263 13.0031 2.28263C13.7154 2.28263 14.7311 2.14422 15.2915 2.7C15.8564 3.26019 15.7173 4.28003 15.7173 4.99685C15.7173 5.90272 15.9155 6.31923 16.5605 6.96435C17.5202 7.92396 18 8.40375 18 9C18 9.59616 17.5202 10.076 16.5605 11.0356C15.9154 11.6807 15.7173 12.0973 15.7173 13.0031C15.7173 13.72 15.8564 14.7398 15.2914 15.3Z" fill="#EB3F35"/>
<path d="M12 6L6 12M6 6L12 12" stroke="white" stroke-width="1.5" stroke-linecap="round" stroke-linejoin="round"/>
</svg>
