<svg width="22" height="22" viewBox="0 0 22 22" fill="none" xmlns="http://www.w3.org/2000/svg">
<path d="M13.4531 11.8948C13.3016 12.5215 12.5857 12.9644 11.1539 13.8502C9.7697 14.7064 9.0777 15.1346 8.51993 14.9625C8.28934 14.8913 8.07925 14.7562 7.90982 14.57C7.5 14.1198 7.5 13.2465 7.5 11.5C7.5 9.7535 7.5 8.88018 7.90982 8.42995C8.07925 8.24381 8.28934 8.10868 8.51993 8.03753C9.0777 7.86544 9.7697 8.29357 11.1539 9.1498C12.5857 10.0356 13.3016 10.4785 13.4531 11.1052C13.5156 11.3639 13.5156 11.6361 13.4531 11.8948Z" stroke="#141B34" stroke-width="1.5" stroke-linejoin="round"/>
<path d="M19.9977 10C20 10.4701 20 10.9693 20 11.5C20 15.9783 20 18.2175 18.6088 19.6088C17.2175 21 14.9783 21 10.5 21C6.02166 21 3.78249 21 2.39124 19.6088C1 18.2175 1 15.9783 1 11.5C1 7.02166 1 4.78249 2.39124 3.39124C3.78249 2 6.02166 2 10.5 2C11.0307 2 11.5299 2 12 2.00231" stroke="#141B34" stroke-width="1.5" stroke-linecap="round"/>
<path d="M17.5 1L17.7579 1.69703C18.0961 2.61102 18.2652 3.06802 18.5986 3.40139C18.932 3.73477 19.389 3.90387 20.303 4.24208L21 4.5L20.303 4.75792C19.389 5.09613 18.932 5.26524 18.5986 5.59861C18.2652 5.93198 18.0961 6.38898 17.7579 7.30297L17.5 8L17.2421 7.30297C16.9039 6.38898 16.7348 5.93198 16.4014 5.59861C16.068 5.26524 15.611 5.09613 14.697 4.75792L14 4.5L14.697 4.24208C15.611 3.90387 16.068 3.73477 16.4014 3.40139C16.7348 3.06802 16.9039 2.61102 17.2421 1.69703L17.5 1Z" stroke="#141B34" stroke-width="1.5" stroke-linejoin="round"/>
</svg>
