<svg width="30" height="39" viewBox="0 0 30 39" fill="none" xmlns="http://www.w3.org/2000/svg">
<path d="M5 13C5 12.4477 5.55478 12 6.23913 12H22.7609C23.4452 12 24 12.4477 24 13C24 13.5523 23.4452 14 22.7609 14H6.23913C5.55478 14 5 13.5523 5 13Z" fill="#1C274C"/>
<path d="M5 18C5 17.4477 5.55478 17 6.23913 17H22.7609C23.4452 17 24 17.4477 24 18C24 18.5523 23.4452 19 22.7609 19H6.23913C5.55478 19 5 18.5523 5 18Z" fill="#1C274C"/>
<path d="M6.25 22C5.55965 22 5 22.4477 5 23C5 23.5523 5.55965 24 6.25 24H13.75C14.4403 24 15 23.5523 15 23C15 22.4477 14.4403 22 13.75 22H6.25Z" fill="#1C274C"/>
<path d="M15.4054 0C16.0771 0 16.6216 0.557269 16.6216 1.24468V3.31915H22.7027V1.24468C22.7027 0.557269 23.2472 0 23.9189 0C24.5906 0 25.1351 0.557269 25.1351 1.24468V3.31915H26.3514C28.3664 3.31915 30 4.99094 30 7.05319V28.6209C30 28.9509 29.8719 29.2676 29.6437 29.5009L20.7182 38.6354C20.49 38.8689 20.1806 39 19.8581 39H3.64865C1.63356 39 0 37.3281 0 35.266V7.05319C0 4.99094 1.63356 3.31915 3.64865 3.31915H5.67568V1.24468C5.67568 0.557269 6.2202 0 6.89189 0C7.56358 0 8.10811 0.557269 8.10811 1.24468V3.31915H14.1892V1.24468C14.1892 0.557269 14.7337 0 15.4054 0ZM2.43243 7.05319V35.266C2.43243 35.9534 2.97696 36.5106 3.64865 36.5106H18.6418V31.1102C18.6418 29.0479 20.2755 27.3762 22.2905 27.3762H27.5676V7.05319C27.5676 6.36578 27.023 5.80851 26.3514 5.80851H3.64865C2.97696 5.80851 2.43243 6.36578 2.43243 7.05319ZM22.2905 29.8655C21.6188 29.8655 21.0743 30.4228 21.0743 31.1102V34.7505L25.8475 29.8655H22.2905Z" fill="#1C274C"/>
</svg>
