<svg width="18" height="17" viewBox="0 0 18 17" fill="none" xmlns="http://www.w3.org/2000/svg">
<path d="M0.505807 0.00748453C0.529935 0.00730445 0.554064 0.00712438 0.578923 0.00693885C0.658906 0.00640829 0.738885 0.00616177 0.818869 0.0059615C0.874439 0.00575289 0.930009 0.00554406 0.98558 0.00533502C1.1022 0.00495374 1.21883 0.0047419 1.33545 0.00461557C1.48473 0.00441681 1.634 0.00354576 1.78328 0.00251297C1.89812 0.00183668 2.01297 0.00164856 2.12781 0.00159304C2.18284 0.00148338 2.23786 0.00119256 2.29288 0.000715856C2.36997 9.56596e-05 2.44704 0.000165614 2.52414 0.00040068C2.56797 0.000268456 2.61181 0.000136231 2.65697 0C2.78755 0.014961 2.85203 0.0407804 2.95465 0.122137C3.07368 0.274966 3.11268 0.454604 3.16167 0.638717C3.17541 0.689017 3.17541 0.689017 3.18943 0.740334C3.21967 0.851319 3.24952 0.962405 3.27937 1.0735C3.30054 1.15149 3.32173 1.22947 3.34295 1.30745C3.3989 1.51339 3.45453 1.71942 3.51008 1.92546C3.56573 2.13161 3.62169 2.33768 3.67763 2.54375C3.7724 2.89307 3.86685 3.24248 3.96109 3.59195C4.01723 3.80001 4.07369 4.00797 4.1305 4.21584C4.14272 4.26072 4.15495 4.30561 4.16754 4.35185C4.18883 4.42998 4.21023 4.50809 4.23174 4.58616C4.24061 4.61878 4.24947 4.65141 4.25861 4.68503C4.2698 4.72584 4.2698 4.72584 4.28122 4.76747C4.29661 4.83714 4.29661 4.83714 4.29661 4.94595C4.73946 4.93398 5.18231 4.92201 5.63858 4.90968C5.65204 4.80496 5.66551 4.70023 5.67938 4.59233C5.86899 3.26383 6.55033 2.04423 7.62306 1.22714C8.74769 0.400268 10.1206 0.0490044 11.505 0.242279C12.6664 0.421657 13.6328 0.949202 14.452 1.79052C14.47 1.80684 14.4879 1.82316 14.5064 1.83997C15.2765 2.55835 15.7596 3.72109 15.8499 4.75616C15.8531 4.79179 15.8562 4.82742 15.8595 4.86413C15.8618 4.89113 15.8641 4.91813 15.8665 4.94595C15.8879 4.94571 15.9093 4.94547 15.9314 4.94522C16.1544 4.94281 16.3774 4.94117 16.6004 4.93997C16.6836 4.93943 16.7668 4.93869 16.85 4.93774C16.9696 4.93642 17.0892 4.93581 17.2089 4.93533C17.246 4.93476 17.2832 4.9342 17.3215 4.93362C17.5526 4.93357 17.6791 4.95971 17.8568 5.1137C17.9376 5.2844 17.8773 5.49548 17.8166 5.66828C17.7978 5.71686 17.7785 5.76527 17.7589 5.81354C17.7429 5.85417 17.7429 5.85417 17.7267 5.89563C17.6911 5.98589 17.6549 6.07591 17.6188 6.16593C17.5929 6.23119 17.5671 6.29647 17.5412 6.36175C17.4702 6.54102 17.3986 6.72006 17.3268 6.89905C17.2803 7.01497 17.234 7.13093 17.1877 7.24691C16.971 7.789 16.7532 8.33063 16.5351 8.87212C16.4477 9.08922 16.3603 9.30634 16.273 9.52346C16.1744 9.76845 16.0759 10.0134 15.9772 10.2584C15.9624 10.2952 15.9476 10.3321 15.9323 10.3701C15.9033 10.4419 15.8743 10.5136 15.8452 10.5853C15.7754 10.7573 15.7078 10.9297 15.6442 11.1041C15.6255 11.1542 15.6255 11.1542 15.6064 11.2052C15.5832 11.2676 15.5607 11.3301 15.539 11.393C15.5233 11.4347 15.5233 11.4347 15.5073 11.4772C15.4987 11.5013 15.4901 11.5254 15.4812 11.5502C15.4017 11.6606 15.3024 11.7182 15.1774 11.7646C15.053 11.7842 14.9311 11.7836 14.8054 11.782C14.7684 11.7821 14.7315 11.7823 14.6934 11.7824C14.5699 11.7826 14.4464 11.7818 14.3229 11.781C14.2342 11.781 14.1456 11.781 14.0569 11.7811C13.8662 11.7811 13.6755 11.7807 13.4848 11.7799C13.209 11.7787 12.9333 11.7784 12.6575 11.7782C12.2101 11.7779 11.7627 11.7769 11.3153 11.7755C10.8807 11.7742 10.4462 11.7732 10.0117 11.7725C9.97145 11.7725 9.97145 11.7725 9.93044 11.7724C9.79598 11.7722 9.66153 11.7721 9.52707 11.7719C8.41225 11.7704 7.29743 11.7678 6.18261 11.7646C6.18955 11.7877 6.19648 11.8109 6.20362 11.8347C6.34375 12.3042 6.47685 12.7729 6.58158 13.2516C6.60493 13.2516 6.62828 13.2516 6.65234 13.2515C8.03553 13.2499 9.41873 13.2487 10.8019 13.2479C10.9679 13.2478 11.1339 13.2477 11.2999 13.2476C11.3329 13.2476 11.3659 13.2476 11.4 13.2476C11.9355 13.2473 12.4709 13.2467 13.0064 13.246C13.5556 13.2453 14.1048 13.2449 14.654 13.2448C14.993 13.2447 15.3321 13.2444 15.6711 13.2438C15.9034 13.2434 16.1357 13.2433 16.368 13.2434C16.5022 13.2434 16.6363 13.2434 16.7705 13.243C16.9158 13.2426 17.061 13.2427 17.2063 13.2429C17.2489 13.2427 17.2915 13.2425 17.3355 13.2423C17.3937 13.2425 17.3937 13.2425 17.4531 13.2427C17.4866 13.2427 17.5202 13.2426 17.5548 13.2426C17.6511 13.2524 17.708 13.2714 17.7888 13.3242C17.886 13.4699 17.8866 13.5881 17.8613 13.7594C17.7963 13.8635 17.7531 13.9223 17.6437 13.977C17.5806 13.9825 17.5174 13.986 17.4541 13.9885C17.4167 13.99 17.3793 13.9915 17.3408 13.9931C17.3016 13.9945 17.2624 13.9959 17.2221 13.9974C17.1826 13.999 17.1432 14.0005 17.1025 14.0022C17.0048 14.006 16.9072 14.0097 16.8095 14.0133C16.8193 14.0317 16.829 14.0502 16.839 14.0693C17.0698 14.5168 17.1243 14.9441 16.9896 15.4298C16.828 15.9231 16.5086 16.2775 16.0479 16.5159C15.5665 16.7178 15.0964 16.7041 14.6131 16.516C14.227 16.3419 13.9475 16.0602 13.7629 15.6817C13.7479 15.6532 13.733 15.6248 13.7176 15.5955C13.5491 15.2212 13.5483 14.7063 13.6858 14.3216C13.71 14.2665 13.7355 14.2119 13.7629 14.1584C13.7868 14.1105 13.8108 14.0626 13.8354 14.0133C12.5428 14.0013 11.2502 13.9893 9.91835 13.977C9.9782 14.0967 10.038 14.2164 10.0997 14.3397C10.2395 14.7283 10.223 15.2041 10.0732 15.5869C9.99938 15.7388 9.9118 15.8739 9.80954 16.0081C9.76915 16.0642 9.76915 16.0642 9.72794 16.1214C9.38541 16.4795 8.95378 16.6532 8.46305 16.67C7.9569 16.6638 7.57211 16.4717 7.20878 16.1309C6.85483 15.7625 6.71372 15.3228 6.71872 14.8194C6.73972 14.5097 6.83775 14.2487 6.98054 13.977C6.95641 13.978 6.93228 13.9789 6.90742 13.9799C6.7973 13.9837 6.6872 13.986 6.57704 13.9883C6.53908 13.9899 6.50112 13.9914 6.462 13.9929C6.42507 13.9935 6.38813 13.9941 6.35008 13.9947C6.31627 13.9957 6.28246 13.9966 6.24763 13.9976C6.10683 13.969 6.019 13.9042 5.92873 13.7957C5.8718 13.672 5.83912 13.5442 5.8055 13.4126C5.79503 13.3742 5.78456 13.3359 5.77378 13.2964C5.7515 13.2145 5.72956 13.1325 5.70793 13.0505C5.67566 12.9283 5.64238 12.8064 5.6087 12.6847C5.53749 12.4266 5.46765 12.1682 5.39787 11.9098C5.37179 11.8134 5.34569 11.7171 5.31958 11.6208C5.2646 11.4178 5.20967 11.2148 5.15478 11.0118C5.06837 10.6923 4.98184 10.3728 4.89527 10.0533C4.88808 10.0268 4.88089 10.0003 4.87348 9.97295C4.83741 9.83985 4.80134 9.70676 4.76527 9.57367C4.73667 9.46812 4.70807 9.36257 4.67947 9.25703C4.47476 8.50152 4.26945 7.74618 4.06222 6.99136C4.0362 6.8966 4.01022 6.80184 3.98423 6.70707C3.85868 6.24926 3.73299 5.79149 3.6072 5.33375C3.44908 4.75831 3.29108 4.18283 3.13331 3.60729C3.05222 3.31148 2.97101 3.0157 2.88965 2.71996C2.83365 2.51639 2.7778 2.31278 2.72204 2.10915C2.68933 1.9897 2.65656 1.87026 2.62363 1.75087C2.58746 1.61961 2.55151 1.48829 2.51563 1.35695C2.50489 1.31821 2.49416 1.27948 2.4831 1.23957C2.46866 1.18642 2.46866 1.18642 2.45392 1.13221C2.4455 1.10154 2.43708 1.07088 2.42841 1.03929C2.41061 0.95633 2.41061 0.95633 2.41061 0.811253C2.38527 0.811495 2.35994 0.811736 2.33383 0.811985C2.09426 0.814172 1.85469 0.815825 1.61512 0.816891C1.49197 0.817457 1.36882 0.818224 1.24568 0.819461C1.10388 0.820877 0.962089 0.821399 0.820286 0.821879C0.776375 0.82244 0.732465 0.823002 0.687224 0.823581C0.461039 0.823626 0.2861 0.819596 0.0893743 0.702445C-0.0128054 0.549176 -0.0121646 0.410976 0.0168357 0.230944C0.168225 0.0357326 0.267427 0.00883387 0.505807 0.00748453ZM11.1515 1.06514C11.1515 1.72343 11.1515 2.38171 11.1515 3.05995C11.5824 3.05995 12.0133 3.05995 12.4572 3.05995C12.4061 2.80421 12.3572 2.60325 12.2509 2.3731C12.238 2.34484 12.2252 2.31657 12.2119 2.28746C11.9816 1.7927 11.6769 1.33372 11.1878 1.06514C11.1758 1.06514 11.1638 1.06514 11.1515 1.06514ZM9.89795 1.4029C9.53851 1.7992 9.04789 2.49302 9.04789 3.05995C9.47877 3.05995 9.90965 3.05995 10.3536 3.05995C10.3536 2.41363 10.3536 1.76731 10.3536 1.10141C10.1854 1.10141 10.0172 1.29524 9.89795 1.4029ZM7.77846 2.11695C7.74639 2.14603 7.71432 2.17511 7.68127 2.20507C7.43491 2.43916 7.23846 2.70381 7.05308 2.98741C7.05308 2.99938 7.05308 3.01135 7.05308 3.02368C7.43608 3.02368 7.81909 3.02368 8.21369 3.02368C8.25559 2.89202 8.29748 2.76036 8.34064 2.62472C8.4475 2.29704 8.57041 1.99031 8.73365 1.68696C8.78508 1.58976 8.82818 1.49445 8.86654 1.39156C8.50241 1.39156 8.0334 1.88242 7.77846 2.11695ZM12.6023 1.42783C12.6319 1.48604 12.6319 1.48604 12.6622 1.54542C12.9066 2.03682 13.0815 2.5392 13.2551 3.05995C13.6381 3.05995 14.0211 3.05995 14.4157 3.05995C14.1353 2.35876 13.4163 1.81019 12.7753 1.45475C12.706 1.42082 12.706 1.42082 12.6023 1.42783ZM6.69038 3.85787C6.59327 4.04874 6.59327 4.04874 6.53922 4.24238C6.53302 4.27212 6.52683 4.30185 6.52044 4.33249C6.51444 4.36288 6.50843 4.39327 6.50224 4.42458C6.49581 4.45525 6.48938 4.48592 6.48276 4.51752C6.45504 4.65324 6.4365 4.77007 6.4365 4.90968C6.93919 4.90968 7.44188 4.90968 7.95981 4.90968C8.01367 4.38904 8.01367 4.38904 8.06862 3.85787C7.6138 3.85787 7.15898 3.85787 6.69038 3.85787ZM8.83027 3.85787C8.81232 4.00449 8.79437 4.15111 8.77587 4.30217C8.76735 4.3712 8.76735 4.3712 8.75866 4.44162C8.75424 4.47807 8.74982 4.51453 8.74527 4.55209C8.74071 4.58932 8.73615 4.62654 8.73145 4.6649C8.71905 4.77196 8.71905 4.77196 8.72146 4.90968C9.2481 4.90968 9.77472 4.90968 10.3173 4.90968C10.3173 4.56259 10.3173 4.21549 10.3173 3.85787C9.82659 3.85787 9.33587 3.85787 8.83027 3.85787ZM11.1152 3.85787C11.1152 4.20497 11.1152 4.55207 11.1152 4.90968C11.6538 4.90968 12.1924 4.90968 12.7474 4.90968C12.7474 4.66408 12.7472 4.45748 12.7134 4.22057C12.707 4.17493 12.7007 4.1293 12.6942 4.08229C12.6778 3.96636 12.6778 3.96636 12.6385 3.85787C12.1359 3.85787 11.6332 3.85787 11.1152 3.85787ZM13.4365 3.85787C13.4604 4.20497 13.4843 4.55207 13.509 4.90968C14.0117 4.90968 14.5144 4.90968 15.0323 4.90968C15.0351 4.69853 15.0351 4.69853 15.0031 4.5025C14.9969 4.47632 14.9907 4.45014 14.9843 4.42316C14.9777 4.3967 14.9711 4.37024 14.9643 4.34298C14.958 4.31623 14.9517 4.28949 14.9452 4.26194C14.9107 4.11932 14.8699 3.99592 14.8147 3.85787C14.3599 3.85787 13.9051 3.85787 13.4365 3.85787ZM4.51423 5.70761C4.63477 6.25239 4.78342 6.78951 4.93123 7.32737C4.96301 7.44309 4.99467 7.55885 5.02634 7.67461C5.11847 8.01109 5.21079 8.34752 5.30308 8.68396C5.50955 9.43725 5.71601 10.1905 5.92873 10.9667C8.8611 10.9667 11.7935 10.9667 14.8147 10.9667C15.2336 9.91339 15.6525 8.86013 16.0841 7.77496C16.636 6.39916 16.636 6.39916 16.8603 5.84312C16.886 5.77982 16.886 5.77982 16.8821 5.70761C16.535 5.70761 16.1879 5.70761 15.8302 5.70761C15.8108 5.8243 15.7913 5.941 15.7713 6.06123C15.5241 7.45093 14.8513 8.67529 13.6848 9.50591C12.5559 10.2847 11.2066 10.5771 9.8563 10.3511C9.10008 10.2112 8.35758 9.90857 7.74219 9.44334C7.71021 9.41936 7.67824 9.39537 7.64529 9.37066C6.56335 8.52169 5.86902 7.337 5.69808 5.96574C5.6902 5.8918 5.6825 5.81784 5.67484 5.74388C5.63446 5.69528 5.63446 5.69528 5.53125 5.70349C5.46088 5.70377 5.46088 5.70377 5.38908 5.70407C5.36418 5.70412 5.33927 5.70417 5.31361 5.70422C5.23379 5.70442 5.15396 5.70488 5.07413 5.70534C5.02013 5.70552 4.96613 5.70569 4.91213 5.70584C4.77949 5.70621 4.64686 5.70689 4.51423 5.70761ZM6.4365 5.70761C6.46447 5.97778 6.46447 5.97778 6.52391 6.23252C6.53266 6.26263 6.54141 6.29274 6.55042 6.32377C6.56145 6.36056 6.57248 6.39735 6.58384 6.43526C6.619 6.5542 6.65416 6.67314 6.69038 6.79569C7.1452 6.79569 7.60002 6.79569 8.06862 6.79569C8.03271 6.43662 7.9968 6.07755 7.95981 5.70761C7.45712 5.70761 6.95443 5.70761 6.4365 5.70761ZM8.72146 5.70761C8.7439 6.32639 8.7439 6.32639 8.83027 6.79569C9.33297 6.79569 9.83566 6.79569 10.3536 6.79569C10.3536 6.43662 10.3536 6.07755 10.3536 5.70761C9.81498 5.70761 9.27639 5.70761 8.72146 5.70761ZM11.1878 5.70761C11.1878 6.06667 11.1878 6.42574 11.1878 6.79569C11.6785 6.79569 12.1692 6.79569 12.6748 6.79569C12.6928 6.67675 12.7107 6.5578 12.7292 6.43526C12.7349 6.39847 12.7406 6.36168 12.7464 6.32377C12.7509 6.29366 12.7553 6.26354 12.7598 6.23252C12.7644 6.20232 12.7689 6.17212 12.7736 6.14101C12.7871 5.99713 12.7836 5.85211 12.7836 5.70761C12.257 5.70761 11.7304 5.70761 11.1878 5.70761ZM13.509 5.70761C13.497 5.84675 13.4851 5.98588 13.4727 6.12924C13.469 6.1727 13.4652 6.21616 13.4613 6.26094C13.4583 6.29575 13.4554 6.33055 13.4523 6.3664C13.4493 6.40173 13.4463 6.43706 13.4431 6.47346C13.4363 6.58067 13.4365 6.68825 13.4365 6.79569C13.8793 6.79569 14.3222 6.79569 14.7784 6.79569C14.9081 6.50543 14.9081 6.50543 14.987 6.21084C14.9958 6.16961 15.0046 6.12837 15.0136 6.08588C15.0386 5.94061 15.0386 5.94061 15.0323 5.70761C14.5296 5.70761 14.0269 5.70761 13.509 5.70761ZM7.05308 7.55734C7.43331 8.22275 8.07569 8.87916 8.794 9.18946C8.81794 9.18946 8.84188 9.18946 8.86654 9.18946C8.81664 9.05783 8.75757 8.93232 8.69548 8.80605C8.53719 8.48198 8.41547 8.15401 8.30984 7.80942C8.28137 7.72411 8.24709 7.64084 8.21369 7.55734C7.83069 7.55734 7.44769 7.55734 7.05308 7.55734ZM9.04789 7.55734C9.09981 7.81232 9.09981 7.81232 9.18333 8.0457C9.19507 8.07226 9.2068 8.09881 9.21889 8.12617C9.23128 8.15315 9.24367 8.18013 9.25644 8.20792C9.26939 8.23644 9.28234 8.26496 9.29568 8.29434C9.52185 8.78478 9.79736 9.24437 10.281 9.51588C10.305 9.51588 10.3289 9.51588 10.3536 9.51588C10.3536 8.86956 10.3536 8.22324 10.3536 7.55734C9.9227 7.55734 9.49182 7.55734 9.04789 7.55734ZM11.1515 7.55734C11.1515 8.21563 11.1515 8.87392 11.1515 9.55215C11.8439 9.1675 12.2304 8.44814 12.4572 7.70242C12.4572 7.65454 12.4572 7.60667 12.4572 7.55734C12.0263 7.55734 11.5954 7.55734 11.1515 7.55734ZM13.2551 7.55734C13.2245 7.65908 13.1938 7.76081 13.1622 7.86563C13.0189 8.32721 12.8258 8.76102 12.6023 9.18946C12.7732 9.14007 12.9147 9.06669 13.0624 8.96958C13.0845 8.9552 13.1065 8.94083 13.1293 8.92602C13.3403 8.78605 13.5368 8.63178 13.7266 8.46407C13.7514 8.44233 13.7762 8.42059 13.8017 8.39819C13.9665 8.24373 14.1005 8.06936 14.2344 7.8883C14.2523 7.8641 14.2702 7.8399 14.2887 7.81496C14.3832 7.69803 14.3832 7.69803 14.4157 7.55734C14.0327 7.55734 13.6497 7.55734 13.2551 7.55734ZM7.66966 14.376C7.48177 14.6355 7.44486 14.8955 7.48831 15.2102C7.54856 15.4095 7.65863 15.5446 7.81473 15.6817C7.84391 15.7078 7.87308 15.734 7.90314 15.761C8.1299 15.9214 8.37914 15.9319 8.64893 15.8993C8.95442 15.8034 9.12382 15.624 9.29497 15.3643C9.38579 15.1158 9.41068 14.8526 9.31112 14.6032C9.152 14.3166 8.94897 14.1258 8.63306 14.0333C8.25019 13.951 7.92271 14.085 7.66966 14.376ZM14.5608 14.3034C14.3731 14.5827 14.2723 14.7976 14.3069 15.1376C14.3809 15.4085 14.5477 15.6443 14.7783 15.8045C15.008 15.9246 15.25 15.9314 15.5038 15.8993C15.6127 15.865 15.7002 15.8185 15.794 15.7542C15.8261 15.734 15.8583 15.7138 15.8914 15.693C16.0817 15.5027 16.197 15.2567 16.2043 14.988C16.2015 14.7239 16.1137 14.5463 15.9685 14.3306C15.7672 14.1338 15.5429 14.026 15.2635 14.0019C15.0096 14.0053 14.7351 14.1195 14.5608 14.3034Z" fill="white"/>
</svg>
