<svg width="253" height="51" viewBox="0 0 253 51" fill="none" xmlns="http://www.w3.org/2000/svg">
<path fill-rule="evenodd" clip-rule="evenodd" d="M77.6915 0H7.95176C3.53828 0 -0.0345205 3.60782 0.000251678 7.98627V34.6072C0.000251678 39.0206 3.57331 42.5934 7.98679 42.5934H41.0176L56.1147 51L52.6819 42.5934H77.6915C82.1051 42.5934 85.6777 39.0206 85.6777 34.6072V7.98627C85.6777 3.57279 82.1051 0 77.6915 0ZM6.48076 6.16483C5.49998 6.23489 4.76439 6.58517 4.27401 7.25068C3.78363 7.88118 3.6085 8.68681 3.71357 9.59752C5.7802 22.7329 7.7067 31.5948 9.49311 36.1834C10.1937 37.8647 10.9993 38.6705 11.945 38.6004C13.4162 38.4952 15.1676 36.4637 17.2342 32.5056C18.32 30.2637 20.0014 26.9012 22.2782 22.4176C24.1695 29.0377 26.7616 34.0118 30.0193 37.3393C30.93 38.285 31.8758 38.7054 32.7863 38.6353C33.5921 38.5653 34.2224 38.1449 34.6428 37.3742C34.9931 36.7088 35.1332 35.9381 35.0632 35.0625C34.853 31.8751 35.1684 27.4265 36.044 21.717C36.9546 15.8324 38.0755 11.5941 39.4416 9.07212C39.7219 8.54671 39.8268 8.02128 39.7919 7.3908C39.7219 6.58515 39.3716 5.91964 38.7061 5.39423C38.0406 4.86882 37.3049 4.62363 36.4993 4.69367C35.4835 4.76373 34.7129 5.25411 34.1875 6.23489C32.0159 10.193 30.4745 16.603 29.564 25.5C28.2328 22.1374 27.1119 18.1793 26.2362 13.5206C25.851 11.454 24.9053 10.4732 23.364 10.5783C22.3132 10.6483 21.4375 11.3489 20.7369 12.6799L13.0659 27.2864C11.8049 22.2074 10.614 16.0076 9.52814 8.68681C9.28295 6.86539 8.26714 6.02471 6.48076 6.16483ZM73.9787 8.68692C76.4658 9.21235 78.3223 10.5434 79.5831 12.7501C80.7041 14.6416 81.2644 16.9184 81.2644 19.6505C81.2644 23.2583 80.3538 26.5509 78.5322 29.5633C76.4306 33.0661 73.6985 34.8174 70.3009 34.8174C69.7055 34.8174 69.075 34.7473 68.4093 34.6072C65.9225 34.0818 64.066 32.7509 62.8049 30.5441C61.6841 28.6176 61.1237 26.3058 61.1237 23.6086C61.1237 20.0008 62.0344 16.7082 63.8558 13.7309C65.9925 10.2281 68.7247 8.47676 72.0873 8.47676C72.6827 8.47676 73.3133 8.54682 73.9787 8.68692ZM72.5077 27.6367C73.8037 26.4808 74.6793 24.7645 75.1698 22.4527C75.3099 21.6471 75.4149 20.7714 75.4149 19.8607C75.4149 18.8449 75.2047 17.7591 74.7843 16.6732C74.259 15.3071 73.5584 14.5715 72.7177 14.3964C71.4568 14.1512 70.2308 14.8518 69.075 16.5681C68.1293 17.8992 67.5336 19.3003 67.2185 20.7364C67.0432 21.542 66.9731 22.4178 66.9731 23.2934C66.9731 24.3092 67.1833 25.395 67.6037 26.4808C68.1293 27.8469 68.8296 28.5824 69.6704 28.7577C70.546 28.9327 71.4917 28.5475 72.5077 27.6367ZM57.6209 12.7501C56.3598 10.5434 54.4684 9.21235 52.0165 8.68692C51.3508 8.54682 50.7205 8.47676 50.1248 8.47676C46.7624 8.47676 44.0302 10.2281 41.8935 13.7309C40.0719 16.7082 39.1614 20.0008 39.1614 23.6086C39.1614 26.3058 39.7219 28.6176 40.8426 30.5441C42.1037 32.7509 43.9602 34.0818 46.447 34.6072C47.1125 34.7473 47.743 34.8174 48.3386 34.8174C51.7362 34.8174 54.4684 33.0661 56.5699 29.5633C58.3915 26.5509 59.3021 23.2583 59.3021 19.6505C59.3021 16.9184 58.7416 14.6416 57.6209 12.7501ZM53.2073 22.4527C52.7171 24.7645 51.8412 26.4808 50.5452 27.6367C49.5294 28.5475 48.5837 28.9327 47.7081 28.7577C46.8674 28.5824 46.1667 27.8469 45.6414 26.4808C45.221 25.395 45.0109 24.3092 45.0109 23.2934C45.0109 22.4178 45.0809 21.542 45.2562 20.7364C45.5713 19.3003 46.1667 17.8992 47.1125 16.5681C48.2686 14.8518 49.4945 14.1512 50.7554 14.3964C51.5961 14.5715 52.2967 15.3071 52.822 16.6732C53.2424 17.7591 53.4526 18.8449 53.4526 19.8607C53.4526 20.7714 53.3825 21.6471 53.2073 22.4527Z" fill="#7F54B3"/>
<path fill-rule="evenodd" clip-rule="evenodd" d="M94.5398 12.4346C92.1929 14.7464 91.037 17.6887 91.037 21.2615C91.037 25.0796 92.1929 28.1969 94.5049 30.5438C96.8166 32.8907 99.829 34.0815 103.577 34.0815C104.663 34.0815 105.889 33.9065 107.22 33.5211V27.8466C105.994 28.1969 104.943 28.3722 104.032 28.3722C102.176 28.3722 100.705 27.7416 99.5837 26.5157C98.4629 25.2546 97.9025 23.5734 97.9025 21.4367C97.9025 19.4401 98.4629 17.7938 99.5488 16.5328C100.67 15.2368 102.036 14.6063 103.717 14.6063C104.803 14.6063 105.959 14.7814 107.22 15.1317V9.45726C106.064 9.14201 104.768 9.00189 103.402 9.00189C99.829 8.96686 96.8867 10.1228 94.5398 12.4346ZM118.849 8.96686C115.626 8.96686 113.104 10.0527 111.283 12.1894C109.462 14.3261 108.586 17.3385 108.586 21.1915C108.586 25.3598 109.496 28.5472 111.283 30.754C113.069 32.9608 115.696 34.0815 119.129 34.0815C122.457 34.0815 125.014 32.9608 126.8 30.754C128.586 28.5472 129.497 25.4299 129.497 21.4367C129.497 17.4435 128.586 14.3611 126.765 12.1894C124.909 10.0527 122.281 8.96686 118.849 8.96686ZM121.616 27.1812C120.985 28.162 120.04 28.6524 118.849 28.6524C117.728 28.6524 116.887 28.162 116.292 27.1812C115.696 26.2003 115.416 24.2388 115.416 21.2615C115.416 16.6729 116.572 14.3961 118.919 14.3961C121.371 14.3961 122.632 16.708 122.632 21.3666C122.597 24.2388 122.247 26.2003 121.616 27.1812ZM146.801 9.63239L145.54 14.9916C145.225 16.3577 144.909 17.7588 144.629 19.1949L143.929 22.9079C143.263 19.1949 142.352 14.7814 141.196 9.63239H133.07L130.023 33.4861H136.117L137.764 17.0582L141.932 33.4861H146.276L150.269 17.0932L151.985 33.4861H158.36L155.137 9.63239H146.801ZM175.979 9.63239L174.718 14.9916C174.402 16.3577 174.087 17.7588 173.807 19.1949L173.106 22.9079C172.441 19.1949 171.53 14.7814 170.374 9.63239H162.248L159.201 33.4861H165.295L166.942 17.0582L171.11 33.4861H175.453L179.411 17.0932L181.128 33.4861H187.503L184.28 9.63239H175.979ZM195.804 24.0638H201.514V19.1248H195.804V14.7464H202.389V9.66742H189.359V33.5211H202.425V28.4422H195.804V24.0638ZM220.569 20.2808C221.234 19.1949 221.584 18.074 221.584 16.9181C221.584 14.6764 220.709 12.89 218.958 11.5939C217.206 10.2979 214.789 9.63239 211.777 9.63239H204.281V33.4861H210.726V22.6277H210.831L216.05 33.4861H222.846L217.696 22.7326C218.922 22.1723 219.903 21.3666 220.569 20.2808ZM210.691 19.8954V14.221C212.232 14.256 213.318 14.5012 213.984 14.9916C214.649 15.482 214.964 16.2526 214.964 17.3735C214.964 19.0198 213.528 19.8604 210.691 19.8954ZM225.367 12.4346C223.021 14.7464 221.865 17.6887 221.865 21.2615C221.865 25.0796 223.021 28.1969 225.333 30.5438C227.645 32.8907 230.656 34.0815 234.405 34.0815C235.491 34.0815 236.717 33.9065 238.047 33.5211V27.8466C236.823 28.1969 235.771 28.3722 234.86 28.3722C233.004 28.3722 231.533 27.7416 230.412 26.5157C229.29 25.2546 228.731 23.5734 228.731 21.4367C228.731 19.4401 229.29 17.7938 230.376 16.5328C231.498 15.2368 232.863 14.6063 234.544 14.6063C235.629 14.6063 236.787 14.7814 238.047 15.1317V9.45726C236.892 9.14201 235.596 9.00189 234.231 9.00189C230.692 8.96686 227.715 10.1228 225.367 12.4346ZM246.28 28.3722V24.0287H251.987V19.0898H246.28V14.7114H252.898V9.63239H239.869V33.4861H252.934V28.4071H246.28V28.3722Z" fill="black"/>
</svg>
